<svg version="1.1" xmlns="http://www.w3.org/2000/svg" xmlns:xlink="http://www.w3.org/1999/xlink" stroke-linecap="round" stroke-linejoin="round" stroke-width="0" fill-rule="evenodd" clip-rule="evenodd" id="vpyqIN2GEDmI_bottom" viewBox="55880 -121920 91440 66040" width="91.44mm" height="66.04mm"><defs><style>.vpyqIN2GEDmI_fr4 {color: #666666;}
.vpyqIN2GEDmI_cu {color: #cccccc;}
.vpyqIN2GEDmI_cf {color: #cc9933;}
.vpyqIN2GEDmI_sm {color: #ff0000; opacity: 0.75;}
.vpyqIN2GEDmI_ss {color: #ffffff;}
.vpyqIN2GEDmI_sp {color: #999999;}
.vpyqIN2GEDmI_out {color: #000000;}</style><circle cx="0" cy="0" r="1500" id="gFHhJOHNJAfA_pad-10"/><circle cx="0" cy="0" r="317.5" id="gFHhJOHNJAfA_pad-11"/><circle cx="0" cy="0" r="1500" id="u3tGgwOsZSkl_pad-10"/><circle cx="0" cy="0" r="1600" id="u3tGgwOsZSkl_pad-11"/><circle cx="0" cy="0" r="63" id="wI69xbaIGHWd_pad-1"/><circle cx="0" cy="0" r="5.9" id="qYxYB5LD328U_pad-1"/><circle cx="0" cy="0" r="29.55" id="qYxYB5LD328U_pad-2"/><g id="vpyqIN2GEDmI_bottom_copper"><use xlink:href="#gFHhJOHNJAfA_pad-10" x="127000" y="-63500"/><use xlink:href="#gFHhJOHNJAfA_pad-10" x="119380" y="-63500"/><use xlink:href="#gFHhJOHNJAfA_pad-10" x="111760" y="-63500"/><use xlink:href="#gFHhJOHNJAfA_pad-10" x="83820" y="-63500"/><use xlink:href="#gFHhJOHNJAfA_pad-10" x="76200" y="-63500"/><use xlink:href="#gFHhJOHNJAfA_pad-11" x="116713" y="-92837"/><use xlink:href="#gFHhJOHNJAfA_pad-11" x="115189" y="-98933"/><use xlink:href="#gFHhJOHNJAfA_pad-11" x="107569" y="-98933"/><use xlink:href="#gFHhJOHNJAfA_pad-11" x="99949" y="-98933"/><use xlink:href="#gFHhJOHNJAfA_pad-11" x="109093" y="-92837"/><use xlink:href="#gFHhJOHNJAfA_pad-11" x="101473" y="-92837"/><use xlink:href="#gFHhJOHNJAfA_pad-11" x="116713" y="-84201"/><use xlink:href="#gFHhJOHNJAfA_pad-11" x="109093" y="-84201"/><use xlink:href="#gFHhJOHNJAfA_pad-11" x="115189" y="-84963"/><use xlink:href="#gFHhJOHNJAfA_pad-11" x="107569" y="-84963"/><use xlink:href="#gFHhJOHNJAfA_pad-11" x="99949" y="-84963"/><use xlink:href="#gFHhJOHNJAfA_pad-11" x="125603" y="-80264"/><use xlink:href="#gFHhJOHNJAfA_pad-11" x="87249" y="-81915"/><use xlink:href="#gFHhJOHNJAfA_pad-11" x="94996" y="-81915"/><use xlink:href="#gFHhJOHNJAfA_pad-11" x="110109" y="-81915"/><use xlink:href="#gFHhJOHNJAfA_pad-11" x="102616" y="-81915"/><use xlink:href="#gFHhJOHNJAfA_pad-11" x="90170" y="-95885"/><use xlink:href="#gFHhJOHNJAfA_pad-11" x="104013" y="-95885"/><use xlink:href="#gFHhJOHNJAfA_pad-11" x="96393" y="-95885"/><use xlink:href="#gFHhJOHNJAfA_pad-11" x="111633" y="-95885"/><use xlink:href="#gFHhJOHNJAfA_pad-11" x="121031" y="-95885"/><use xlink:href="#gFHhJOHNJAfA_pad-11" x="121031" y="-81915"/><use xlink:href="#gFHhJOHNJAfA_pad-11" x="129667" y="-81915"/><use xlink:href="#gFHhJOHNJAfA_pad-11" x="88773" y="-82677"/><use xlink:href="#gFHhJOHNJAfA_pad-11" x="96393" y="-82677"/><use xlink:href="#gFHhJOHNJAfA_pad-11" x="111633" y="-82677"/><use xlink:href="#gFHhJOHNJAfA_pad-11" x="104013" y="-82677"/><use xlink:href="#gFHhJOHNJAfA_pad-11" x="106807" y="-96647"/><use xlink:href="#gFHhJOHNJAfA_pad-11" x="114427" y="-96647"/><use xlink:href="#gFHhJOHNJAfA_pad-11" x="97790" y="-96647"/><use xlink:href="#gFHhJOHNJAfA_pad-11" x="88773" y="-96647"/><use xlink:href="#gFHhJOHNJAfA_pad-11" x="121793" y="-96647"/><use xlink:href="#gFHhJOHNJAfA_pad-11" x="121793" y="-82677"/><use xlink:href="#gFHhJOHNJAfA_pad-11" x="130314.7" y="-82677"/><use xlink:href="#gFHhJOHNJAfA_pad-11" x="91567" y="-83439"/><use xlink:href="#gFHhJOHNJAfA_pad-11" x="99314" y="-83439"/><use xlink:href="#gFHhJOHNJAfA_pad-11" x="106807" y="-83439"/><use xlink:href="#gFHhJOHNJAfA_pad-11" x="114427" y="-83439"/><use xlink:href="#gFHhJOHNJAfA_pad-11" x="91567" y="-97409"/><use xlink:href="#gFHhJOHNJAfA_pad-11" x="99187" y="-97409"/><use xlink:href="#gFHhJOHNJAfA_pad-11" x="105537" y="-97409"/><use xlink:href="#gFHhJOHNJAfA_pad-11" x="115951" y="-97409"/><use xlink:href="#gFHhJOHNJAfA_pad-11" x="122555" y="-97409"/><use xlink:href="#gFHhJOHNJAfA_pad-11" x="122555" y="-83439"/><use xlink:href="#gFHhJOHNJAfA_pad-11" x="130937" y="-83439"/><use xlink:href="#gFHhJOHNJAfA_pad-11" x="93853" y="-84201"/><use xlink:href="#gFHhJOHNJAfA_pad-11" x="101473" y="-84201"/><use xlink:href="#gFHhJOHNJAfA_pad-11" x="93091" y="-98171"/><use xlink:href="#gFHhJOHNJAfA_pad-11" x="113030" y="-98171"/><use xlink:href="#gFHhJOHNJAfA_pad-11" x="108331" y="-98171"/><use xlink:href="#gFHhJOHNJAfA_pad-11" x="123317" y="-98171"/><use xlink:href="#gFHhJOHNJAfA_pad-11" x="123317" y="-84201"/><use xlink:href="#gFHhJOHNJAfA_pad-11" x="131699" y="-84201"/><use xlink:href="#gFHhJOHNJAfA_pad-11" x="100711" y="-98171"/><use xlink:href="#gFHhJOHNJAfA_pad-11" x="92329" y="-84963"/><use xlink:href="#gFHhJOHNJAfA_pad-11" x="92329" y="-98933"/><use xlink:href="#gFHhJOHNJAfA_pad-11" x="124079" y="-98933"/><use xlink:href="#gFHhJOHNJAfA_pad-11" x="124079" y="-84963"/><use xlink:href="#gFHhJOHNJAfA_pad-11" x="132207" y="-84963"/><use xlink:href="#gFHhJOHNJAfA_pad-11" x="90170" y="-78867"/><use xlink:href="#gFHhJOHNJAfA_pad-11" x="100711" y="-78867"/><use xlink:href="#gFHhJOHNJAfA_pad-11" x="115824" y="-78867"/><use xlink:href="#gFHhJOHNJAfA_pad-11" x="108204" y="-78867"/><use xlink:href="#gFHhJOHNJAfA_pad-11" x="93853" y="-92837"/><use xlink:href="#gFHhJOHNJAfA_pad-11" x="117983" y="-78867"/><use xlink:href="#gFHhJOHNJAfA_pad-11" x="117983" y="-92837"/><use xlink:href="#gFHhJOHNJAfA_pad-11" x="131572" y="-90043"/><use xlink:href="#gFHhJOHNJAfA_pad-11" x="93091" y="-79629"/><use xlink:href="#gFHhJOHNJAfA_pad-11" x="97790" y="-79629"/><use xlink:href="#gFHhJOHNJAfA_pad-11" x="110109" y="-79629"/><use xlink:href="#gFHhJOHNJAfA_pad-11" x="102489" y="-79629"/><use xlink:href="#gFHhJOHNJAfA_pad-11" x="87376" y="-93599"/><use xlink:href="#gFHhJOHNJAfA_pad-11" x="94869" y="-93599"/><use xlink:href="#gFHhJOHNJAfA_pad-11" x="102616" y="-93599"/><use xlink:href="#gFHhJOHNJAfA_pad-11" x="110236" y="-93599"/><use xlink:href="#gFHhJOHNJAfA_pad-11" x="118745" y="-93599"/><use xlink:href="#gFHhJOHNJAfA_pad-11" x="118745" y="-79629"/><use xlink:href="#gFHhJOHNJAfA_pad-11" x="131191" y="-93599"/><use xlink:href="#gFHhJOHNJAfA_pad-11" x="87376" y="-80391"/><use xlink:href="#gFHhJOHNJAfA_pad-11" x="94996" y="-80391"/><use xlink:href="#gFHhJOHNJAfA_pad-11" x="111633" y="-80391"/><use xlink:href="#gFHhJOHNJAfA_pad-11" x="105410" y="-80391"/><use xlink:href="#gFHhJOHNJAfA_pad-11" x="88773" y="-94361"/><use xlink:href="#gFHhJOHNJAfA_pad-11" x="96393" y="-94361"/><use xlink:href="#gFHhJOHNJAfA_pad-11" x="104140" y="-94361"/><use xlink:href="#gFHhJOHNJAfA_pad-11" x="111633" y="-94361"/><use xlink:href="#gFHhJOHNJAfA_pad-11" x="119507" y="-94361"/><use xlink:href="#gFHhJOHNJAfA_pad-11" x="119507" y="-80391"/><use xlink:href="#gFHhJOHNJAfA_pad-11" x="130429" y="-94361"/><use xlink:href="#gFHhJOHNJAfA_pad-11" x="88773" y="-81153"/><use xlink:href="#gFHhJOHNJAfA_pad-11" x="96393" y="-81153"/><use xlink:href="#gFHhJOHNJAfA_pad-11" x="113030" y="-81153"/><use xlink:href="#gFHhJOHNJAfA_pad-11" x="104013" y="-81153"/><use xlink:href="#gFHhJOHNJAfA_pad-11" x="102616" y="-95123"/><use xlink:href="#gFHhJOHNJAfA_pad-11" x="87376" y="-95123"/><use xlink:href="#gFHhJOHNJAfA_pad-11" x="94869" y="-95123"/><use xlink:href="#gFHhJOHNJAfA_pad-11" x="110236" y="-95123"/><use xlink:href="#gFHhJOHNJAfA_pad-11" x="120269" y="-95123"/><use xlink:href="#gFHhJOHNJAfA_pad-11" x="120269" y="-81153"/><use xlink:href="#gFHhJOHNJAfA_pad-11" x="129667" y="-95123"/><use xlink:href="#gFHhJOHNJAfA_pad-11" x="129032" y="-89535"/><use xlink:href="#gFHhJOHNJAfA_pad-11" x="128524" y="-90297"/><path d="M 122555 -77216 125603 -80264 M 97536 -77216 122555 -77216 M 83820 -63500 97536 -77216 M 94996 -81915 87249 -81915 M 102616 -81915 94996 -81915 M 110109 -81915 102616 -81915 M 96393 -95885 90170 -95885 M 104013 -95885 96393 -95885 M 111633 -95885 104013 -95885 M 116840 -81915 110109 -81915 M 111633 -95885 121031 -95885 M 121031 -81915 116840 -81915 M 129667 -81915 121031 -81915 M 88773 -82677 96393 -82677 104013 -82677 M 106807 -96647 114427 -96647 M 97790 -96647 106807 -96647 M 88773 -96647 97790 -96647 M 114427 -96647 116459 -96647 116840 -96647 121793 -96647 M 121793 -82677 111379 -82677 111633 -82677 M 104013 -82677 111379 -82677 M 121793 -82677 130314.7 -82677 M 99314 -83439 91567 -83439 M 106807 -83439 99314 -83439 M 114427 -83439 106807 -83439 M 99187 -97409 91567 -97409 M 105537 -97409 99187 -97409 M 115951 -97409 105537 -97409 M 116840 -97409 115951 -97409 M 116840 -97409 122555 -97409 M 122555 -83439 114427 -83439 M 130937 -83439 122555 -83439 M 101473 -84201 116840 -84201 M 93853 -84201 101473 -84201 M 113030 -98171 116840 -98171 M 108331 -98171 113030 -98171 M 116840 -98171 123317 -98171 M 123317 -84201 116713 -84201 M 123317 -84201 131699 -84201 M 100711 -98171 108331 -98171 M 93091 -98171 100711 -98171 M 116205 -98933 92329 -98933 M 116840 -98933 116205 -98933 M 116840 -98933 124079 -98933 M 124079 -84963 115189 -84963 92329 -84963 M 132207 -84963 124079 -84963 M 100711 -78867 90170 -78867 M 108204 -78867 100711 -78867 M 115824 -78867 108204 -78867 M 116840 -92837 93853 -92837 M 116840 -78867 115824 -78867 M 116840 -78867 117983 -78867 M 116840 -92837 117983 -92837 M 128778 -92837 131572 -90043 M 117983 -92837 128778 -92837 M 93091 -79629 97790 -79629 M 110109 -79629 116840 -79629 M 102489 -79629 110109 -79629 M 97790 -79629 102489 -79629 M 87376 -93599 94869 -93599 102616 -93599 110236 -93599 M 115443 -93599 116815.618 -93599 M 110236 -93599 115443 -93599 116840 -93599 118745 -93599 M 118745 -79629 116840 -79629 M 131191 -93599 118745 -93599 M 94996 -80391 87376 -80391 M 105410 -80391 94996 -80391 M 111633 -80391 105410 -80391 M 96393 -94361 88773 -94361 M 104140 -94361 96393 -94361 M 111633 -94361 104140 -94361 M 116840 -94361 115316 -94361 111633 -94361 M 116840 -94361 119507 -94361 M 119507 -80391 111633 -80391 M 130429 -94361 119507 -94361 M 88773 -81153 96393 -81153 M 113030 -81153 116840 -81153 M 104013 -81153 113030 -81153 M 96393 -81153 104013 -81153 M 94869 -95123 102616 -95123 M 87376 -95123 94869 -95123 M 110236 -95123 116840 -95123 M 102616 -95123 110236 -95123 M 116840 -95123 117196.618 -95123 120269 -95123 M 120269 -81153 116840 -81153 M 129667 -95123 120269 -95123 M 119380 -63500 133223 -77343 M 129032 -89535 133223 -85344 M 133223 -77343 133223 -85344 M 133985 -85979 133985 -70485 M 129667 -90297 133985 -85979 M 133985 -70485 127000 -63500 M 128524 -90297 129667 -90297" fill="none" stroke-width="381"/><path d="M 140704.47 -56614.617 141687.898 -56831.739 142629.675 -57188.546 143510.095 -57677.575 144310.687 -58288.569 145014.694 -59008.732 145607.37 -59822.987 146076.296 -60714.269 146411.647 -61663.9 146607.127 -62655.692 146660 -63520.164 146660.001 -114276.08 146585.382 -115304.47 146368.262 -116287.896 146011.454 -117229.675 145522.424 -118110.095 144911.435 -118910.684 144191.268 -119614.694 143377.013 -120207.37 142485.731 -120676.296 141536.099 -121011.647 140544.309 -121207.127 139679.835 -121260 63523.906 -121260 62495.53 -121185.382 61512.104 -120968.262 60570.325 -120611.454 59689.905 -120122.424 58889.316 -119511.435 58185.306 -118791.268 57592.63 -117977.013 57123.704 -117085.731 56788.353 -116136.099 56592.873 -115144.309 56540 -114279.835 56540 -114079.872 61265 -114079.872 61265 -114520.128 61350.89 -114951.925 61519.369 -115358.669 61763.962 -115724.729 62075.271 -116036.038 62441.331 -116280.631 62848.075 -116449.11 63279.872 -116535 63720.128 -116535 64151.925 -116449.11 64558.669 -116280.631 64924.729 -116036.038 65236.038 -115724.729 65480.631 -115358.669 65649.11 -114951.925 65735 -114520.128 65735 -114079.872 137465 -114079.872 137465 -114520.128 137550.89 -114951.925 137719.369 -115358.669 137963.962 -115724.729 138275.271 -116036.038 138641.331 -116280.631 139048.075 -116449.11 139479.872 -116535 139920.128 -116535 140351.925 -116449.11 140758.669 -116280.631 141124.729 -116036.038 141436.038 -115724.729 141680.631 -115358.669 141849.11 -114951.925 141935 -114520.128 141935 -114079.872 141849.11 -113648.075 141680.631 -113241.331 141436.038 -112875.271 141124.729 -112563.962 140758.669 -112319.369 140351.925 -112150.89 139920.128 -112065 139479.872 -112065 139048.075 -112150.89 138641.331 -112319.369 138275.271 -112563.962 137963.962 -112875.271 137719.369 -113241.331 137550.89 -113648.075 137465 -114079.872 65735 -114079.872 65649.11 -113648.075 65480.631 -113241.331 65236.038 -112875.271 64924.729 -112563.962 64558.669 -112319.369 64151.925 -112150.89 63720.128 -112065 63279.872 -112065 62848.075 -112150.89 62441.331 -112319.369 62075.271 -112563.962 61763.962 -112875.271 61519.369 -113241.331 61350.89 -113648.075 61265 -114079.872 56540 -114079.872 56540 -63523.92 56557.707 -63279.872 61265 -63279.872 61265 -63720.128 61350.89 -64151.925 61519.369 -64558.669 61763.962 -64924.729 62075.271 -65236.038 62441.331 -65480.631 62848.075 -65649.11 63279.872 -65735 63720.128 -65735 64151.925 -65649.11 64558.669 -65480.631 64924.729 -65236.038 65169.114 -64991.653 74887.952 -64991.653 75043.962 -65307.214 75418.745 -65498.02 75823.551 -65612.044 76242.824 -65644.902 76660.451 -65595.334 77060.383 -65465.243 77356.038 -65307.214 77512.048 -64991.653 76200 -63679.605 74887.952 -64991.653 65169.114 -64991.653 65236.038 -64924.729 65480.631 -64558.669 65649.11 -64151.925 65735 -63720.128 65735 -63542.824 74055.098 -63542.824 74104.666 -63960.451 74234.757 -64360.383 74392.786 -64656.038 74708.347 -64812.048 76020.395 -63500 76379.605 -63500 77691.653 -64812.048 78007.214 -64656.038 78198.02 -64281.255 78312.044 -63876.449 78344.902 -63457.176 78325.027 -63289.721 81685 -63289.721 81685 -63710.279 81767.047 -64122.756 81927.988 -64511.302 82161.637 -64860.983 82459.017 -65158.363 82808.698 -65392.012 83197.244 -65552.953 83609.721 -65635 84030.279 -65635 84442.756 -65552.953 84628.559 -65475.991 96923.607 -77771.04 96949.459 -77802.541 97013.596 -77855.177 97075.157 -77905.699 97091.623 -77914.5 97218.566 -77982.353 97374.174 -78029.556 97495.447 -78041.5 90649.007 -78041.5 90621.178 -78022.905 90447.834 -77951.104 90263.813 -77914.5 90076.187 -77914.5 89892.166 -77951.104 89718.822 -78022.905 89562.816 -78127.145 89430.145 -78259.816 89325.905 -78415.822 89254.104 -78589.166 89217.5 -78773.187 89217.5 -78960.813 89254.104 -79144.834 89325.905 -79318.178 89430.145 -79474.184 89521.461 -79565.5 87855.007 -79565.5 87827.178 -79546.905 87653.834 -79475.104 87469.813 -79438.5 87282.187 -79438.5 87098.166 -79475.104 86924.822 -79546.905 86768.816 -79651.145 86636.145 -79783.816 86531.905 -79939.822 86460.104 -80113.166 86423.5 -80297.187 86423.5 -80484.813 86460.104 -80668.834 86531.905 -80842.178 86636.145 -80998.184 86744.497 -81106.536 86641.816 -81175.145 86509.145 -81307.816 86404.905 -81463.822 86333.104 -81637.166 86296.5 -81821.187 86296.5 -82008.813 86333.104 -82192.834 86404.905 -82366.178 86509.145 -82522.184 86641.816 -82654.855 86797.822 -82759.095 86971.166 -82830.896 87155.187 -82867.5 87342.813 -82867.5 87526.834 -82830.896 87700.178 -82759.095 87728.007 -82740.5 87820.5 -82740.5 87820.5 -82770.813 87857.104 -82954.834 87928.905 -83128.178 88033.145 -83284.184 88165.816 -83416.855 88321.822 -83521.095 88495.166 -83592.896 88679.187 -83629.5 88866.813 -83629.5 89050.834 -83592.896 89224.178 -83521.095 89252.007 -83502.5 90614.5 -83502.5 90614.5 -83532.813 90651.104 -83716.834 90722.905 -83890.178 90827.145 -84046.184 90959.816 -84178.855 91115.822 -84283.095 91289.166 -84354.896 91473.187 -84391.5 91565.302 -84391.5 91484.905 -84511.822 91413.104 -84685.166 91376.5 -84869.187 91376.5 -85056.813 91413.104 -85240.834 91484.905 -85414.178 91589.145 -85570.184 91721.816 -85702.855 91877.822 -85807.095 92051.166 -85878.896 92235.187 -85915.5 92422.813 -85915.5 92606.834 -85878.896 92780.178 -85807.095 92808.007 -85788.5 99469.993 -85788.5 99497.822 -85807.095 99671.166 -85878.896 99855.187 -85915.5 100042.813 -85915.5 100226.834 -85878.896 100400.178 -85807.095 100428.007 -85788.5 107089.993 -85788.5 107117.822 -85807.095 107291.166 -85878.896 107475.187 -85915.5 107662.813 -85915.5 107846.834 -85878.896 108020.178 -85807.095 108048.007 -85788.5 114709.993 -85788.5 114737.822 -85807.095 114911.166 -85878.896 115095.187 -85915.5 115282.813 -85915.5 115466.834 -85878.896 115640.178 -85807.095 115668.007 -85788.5 123599.993 -85788.5 123627.822 -85807.095 123801.166 -85878.896 123985.187 -85915.5 124172.813 -85915.5 124356.834 -85878.896 124530.178 -85807.095 124558.007 -85788.5 131611.067 -85788.5 128786.994 -88612.574 128754.166 -88619.104 128580.822 -88690.905 128424.816 -88795.145 128292.145 -88927.816 128187.905 -89083.822 128116.104 -89257.166 128079.5 -89441.187 128079.5 -89450.139 128072.822 -89452.905 127916.816 -89557.145 127784.145 -89689.816 127679.905 -89845.822 127608.104 -90019.166 127571.5 -90203.187 127571.5 -90390.813 127608.104 -90574.834 127679.905 -90748.178 127784.145 -90904.184 127916.816 -91036.855 128072.822 -91141.095 128246.166 -91212.896 128430.187 -91249.5 128617.813 -91249.5 128801.834 -91212.896 128975.178 -91141.095 129003.007 -91122.5 129325.067 -91122.5 128436.068 -92011.5 118462.007 -92011.5 118434.178 -91992.905 118260.834 -91921.104 118076.813 -91884.5 117889.187 -91884.5 117705.166 -91921.104 117531.822 -91992.905 117503.993 -92011.5 117192.007 -92011.5 117164.178 -91992.905 116990.834 -91921.104 116806.813 -91884.5 116619.187 -91884.5 116435.166 -91921.104 116261.822 -91992.905 116233.993 -92011.5 109572.007 -92011.5 109544.178 -91992.905 109370.834 -91921.104 109186.813 -91884.5 108999.187 -91884.5 108815.166 -91921.104 108641.822 -91992.905 108613.993 -92011.5 101952.007 -92011.5 101924.178 -91992.905 101750.834 -91921.104 101566.813 -91884.5 101379.187 -91884.5 101195.166 -91921.104 101021.822 -91992.905 100993.993 -92011.5 94332.007 -92011.5 94304.178 -91992.905 94130.834 -91921.104 93946.813 -91884.5 93759.187 -91884.5 93575.166 -91921.104 93401.822 -91992.905 93245.816 -92097.145 93113.145 -92229.816 93008.905 -92385.822 92937.104 -92559.166 92900.5 -92743.187 92900.5 -92773.5 87855.007 -92773.5 87827.178 -92754.905 87653.834 -92683.104 87469.813 -92646.5 87282.187 -92646.5 87098.166 -92683.104 86924.822 -92754.905 86768.816 -92859.145 86636.145 -92991.816 86531.905 -93147.822 86460.104 -93321.166 86423.5 -93505.187 86423.5 -93692.813 86460.104 -93876.834 86531.905 -94050.178 86636.145 -94206.184 86768.816 -94338.855 86801.958 -94361 86768.816 -94383.145 86636.145 -94515.816 86531.905 -94671.822 86460.104 -94845.166 86423.5 -95029.187 86423.5 -95216.813 86460.104 -95400.834 86531.905 -95574.178 86636.145 -95730.184 86768.816 -95862.855 86924.822 -95967.095 87098.166 -96038.896 87282.187 -96075.5 87469.813 -96075.5 87653.834 -96038.896 87827.178 -95967.095 87855.007 -95948.5 88124.461 -95948.5 88033.145 -96039.816 87928.905 -96195.822 87857.104 -96369.166 87820.5 -96553.187 87820.5 -96740.813 87857.104 -96924.834 87928.905 -97098.178 88033.145 -97254.184 88165.816 -97386.855 88321.822 -97491.095 88495.166 -97562.896 88679.187 -97599.5 88866.813 -97599.5 89050.834 -97562.896 89224.178 -97491.095 89252.007 -97472.5 90614.5 -97472.5 90614.5 -97502.813 90651.104 -97686.834 90722.905 -97860.178 90827.145 -98016.184 90959.816 -98148.855 91115.822 -98253.095 91289.166 -98324.896 91473.187 -98361.5 91565.302 -98361.5 91484.905 -98481.822 91413.104 -98655.166 91376.5 -98839.187 91376.5 -99026.813 91413.104 -99210.834 91484.905 -99384.178 91589.145 -99540.184 91721.816 -99672.855 91877.822 -99777.095 92051.166 -99848.896 92235.187 -99885.5 92422.813 -99885.5 92606.834 -99848.896 92780.178 -99777.095 92808.007 -99758.5 99469.993 -99758.5 99497.822 -99777.095 99671.166 -99848.896 99855.187 -99885.5 100042.813 -99885.5 100226.834 -99848.896 100400.178 -99777.095 100428.007 -99758.5 107089.993 -99758.5 107117.822 -99777.095 107291.166 -99848.896 107475.187 -99885.5 107662.813 -99885.5 107846.834 -99848.896 108020.178 -99777.095 108048.007 -99758.5 114709.993 -99758.5 114737.822 -99777.095 114911.166 -99848.896 115095.187 -99885.5 115282.813 -99885.5 115466.834 -99848.896 115640.178 -99777.095 115668.007 -99758.5 123599.993 -99758.5 123627.822 -99777.095 123801.166 -99848.896 123985.187 -99885.5 124172.813 -99885.5 124356.834 -99848.896 124530.178 -99777.095 124686.184 -99672.855 124818.855 -99540.184 124923.095 -99384.178 124994.896 -99210.834 125031.5 -99026.813 125031.5 -98839.187 124994.896 -98655.166 124923.095 -98481.822 124818.855 -98325.816 124686.184 -98193.145 124530.178 -98088.905 124356.834 -98017.104 124253.459 -97996.541 124232.896 -97893.166 124161.095 -97719.822 124056.855 -97563.816 123924.184 -97431.145 123768.178 -97326.905 123594.834 -97255.104 123491.459 -97234.541 123470.896 -97131.166 123399.095 -96957.822 123294.855 -96801.816 123162.184 -96669.145 123006.178 -96564.905 122832.834 -96493.104 122729.459 -96472.541 122708.896 -96369.166 122637.095 -96195.822 122532.855 -96039.816 122441.539 -95948.5 129187.993 -95948.5 129215.822 -95967.095 129389.166 -96038.896 129573.187 -96075.5 129760.813 -96075.5 129944.834 -96038.896 130118.178 -95967.095 130274.184 -95862.855 130406.855 -95730.184 130511.095 -95574.178 130582.896 -95400.834 130603.459 -95297.459 130706.834 -95276.896 130880.178 -95205.095 131036.184 -95100.855 131168.855 -94968.184 131273.095 -94812.178 131344.896 -94638.834 131365.459 -94535.459 131468.834 -94514.896 131642.178 -94443.095 131798.184 -94338.855 131930.855 -94206.184 132035.095 -94050.178 132106.896 -93876.834 132143.5 -93692.813 132143.5 -93505.187 132106.896 -93321.166 132035.095 -93147.822 131930.855 -92991.816 131798.184 -92859.145 131642.178 -92754.905 131468.834 -92683.104 131284.813 -92646.5 131097.187 -92646.5 130913.166 -92683.104 130739.822 -92754.905 130711.993 -92773.5 130008.932 -92773.5 131817.008 -90965.425 131849.834 -90958.896 132023.178 -90887.095 132179.184 -90782.855 132311.855 -90650.184 132416.095 -90494.178 132487.896 -90320.834 132524.5 -90136.813 132524.5 -89949.187 132487.896 -89765.166 132416.095 -89591.822 132311.855 -89435.816 132179.184 -89303.145 132023.178 -89198.905 131959.078 -89172.354 134540.041 -86591.392 134571.541 -86565.541 134624.177 -86501.404 134674.699 -86439.843 134751.353 -86296.434 134788.646 -86173.494 134798.556 -86140.826 134810.5 -86019.553 134810.5 -86019.551 134814.494 -85979.001 134810.5 -85938.45 134810.5 -70525.55 134814.494 -70485 134810.5 -70444.447 134798.556 -70323.174 134751.353 -70167.566 134674.699 -70024.157 134597.392 -69929.958 134597.389 -69929.955 134571.541 -69898.459 134540.045 -69872.611 128975.991 -64308.559 129052.953 -64122.756 129135 -63710.279 129135 -63289.721 129133.041 -63279.872 137465 -63279.872 137465 -63720.128 137550.89 -64151.925 137719.369 -64558.669 137963.962 -64924.729 138275.271 -65236.038 138641.331 -65480.631 139048.075 -65649.11 139479.872 -65735 139920.128 -65735 140351.925 -65649.11 140758.669 -65480.631 141124.729 -65236.038 141436.038 -64924.729 141680.631 -64558.669 141849.11 -64151.925 141935 -63720.128 141935 -63279.872 141849.11 -62848.075 141680.631 -62441.331 141436.038 -62075.271 141124.729 -61763.962 140758.669 -61519.369 140351.925 -61350.89 139920.128 -61265 139479.872 -61265 139048.075 -61350.89 138641.331 -61519.369 138275.271 -61763.962 137963.962 -62075.271 137719.369 -62441.331 137550.89 -62848.075 137465 -63279.872 129133.041 -63279.872 129052.953 -62877.244 128892.012 -62488.698 128658.363 -62139.017 128360.983 -61841.637 128011.302 -61607.988 127622.756 -61447.047 127210.279 -61365 126789.721 -61365 126377.244 -61447.047 125988.698 -61607.988 125639.017 -61841.637 125341.637 -62139.017 125107.988 -62488.698 124947.047 -62877.244 124865 -63289.721 124865 -63710.279 124947.047 -64122.756 125107.988 -64511.302 125341.637 -64860.983 125639.017 -65158.363 125988.698 -65392.012 126377.244 -65552.953 126789.721 -65635 127210.279 -65635 127622.756 -65552.953 127808.559 -65475.991 133159.501 -70826.935 133159.501 -76112.068 121355.991 -64308.559 121432.953 -64122.756 121515 -63710.279 121515 -63289.721 121432.953 -62877.244 121272.012 -62488.698 121038.363 -62139.017 120740.983 -61841.637 120391.302 -61607.988 120002.756 -61447.047 119590.279 -61365 119169.721 -61365 118757.244 -61447.047 118368.698 -61607.988 118019.017 -61841.637 117721.637 -62139.017 117487.988 -62488.698 117327.047 -62877.244 117245 -63289.721 117245 -63710.279 117327.047 -64122.756 117487.988 -64511.302 117721.637 -64860.983 118019.017 -65158.363 118368.698 -65392.012 118757.244 -65552.953 119169.721 -65635 119590.279 -65635 120002.756 -65552.953 120188.559 -65475.991 132397.5 -77684.933 132397.501 -83552.462 132306.184 -83461.145 132150.178 -83356.905 131976.834 -83285.104 131873.459 -83264.541 131852.896 -83161.166 131781.095 -82987.822 131676.855 -82831.816 131544.184 -82699.145 131388.178 -82594.905 131258.878 -82541.347 131230.596 -82399.166 131158.795 -82225.822 131054.555 -82069.816 130921.884 -81937.145 130765.878 -81832.905 130608.897 -81767.882 130582.896 -81637.166 130511.095 -81463.822 130406.855 -81307.816 130274.184 -81175.145 130118.178 -81070.905 129944.834 -80999.104 129760.813 -80962.5 129573.187 -80962.5 129389.166 -80999.104 129215.822 -81070.905 129187.993 -81089.5 126082.007 -81089.5 126210.184 -81003.855 126342.855 -80871.184 126447.095 -80715.178 126518.896 -80541.834 126555.5 -80357.813 126555.5 -80170.187 126518.896 -79986.166 126447.095 -79812.822 126342.855 -79656.816 126210.184 -79524.145 126054.178 -79419.905 125880.834 -79348.104 125848.007 -79341.574 123167.398 -76660.966 123141.541 -76629.459 123015.842 -76526.301 122872.434 -76449.647 122716.826 -76402.444 122595.553 -76390.5 122595.55 -76390.5 122555 -76386.506 122514.45 -76390.5 97877.933 -76390.5 85795.991 -64308.559 85872.953 -64122.756 85955 -63710.279 85955 -63289.721 109625 -63289.721 109625 -63710.279 109707.047 -64122.756 109867.988 -64511.302 110101.637 -64860.983 110399.017 -65158.363 110748.698 -65392.012 111137.244 -65552.953 111549.721 -65635 111970.279 -65635 112382.756 -65552.953 112771.302 -65392.012 113120.983 -65158.363 113418.363 -64860.983 113652.012 -64511.302 113812.953 -64122.756 113895 -63710.279 113895 -63289.721 113812.953 -62877.244 113652.012 -62488.698 113418.363 -62139.017 113120.983 -61841.637 112771.302 -61607.988 112382.756 -61447.047 111970.279 -61365 111549.721 -61365 111137.244 -61447.047 110748.698 -61607.988 110399.017 -61841.637 110101.637 -62139.017 109867.988 -62488.698 109707.047 -62877.244 109625 -63289.721 85955 -63289.721 85872.953 -62877.244 85712.012 -62488.698 85478.363 -62139.017 85180.983 -61841.637 84831.302 -61607.988 84442.756 -61447.047 84030.279 -61365 83609.721 -61365 83197.244 -61447.047 82808.698 -61607.988 82459.017 -61841.637 82161.637 -62139.017 81927.988 -62488.698 81767.047 -62877.244 81685 -63289.721 78325.027 -63289.721 78295.334 -63039.549 78165.243 -62639.617 78007.214 -62343.962 77691.653 -62187.952 76379.605 -63500 76020.395 -63500 74708.347 -62187.952 74392.786 -62343.962 74201.98 -62718.745 74087.956 -63123.551 74055.098 -63542.824 65735 -63542.824 65735 -63279.872 65649.11 -62848.075 65480.631 -62441.331 65236.038 -62075.271 65169.114 -62008.347 74887.952 -62008.347 76200 -63320.395 77512.048 -62008.347 77356.038 -61692.786 76981.255 -61501.98 76576.449 -61387.956 76157.176 -61355.098 75739.549 -61404.666 75339.617 -61534.757 75043.962 -61692.786 74887.952 -62008.347 65169.114 -62008.347 64924.729 -61763.962 64558.669 -61519.369 64151.925 -61350.89 63720.128 -61265 63279.872 -61265 62848.075 -61350.89 62441.331 -61519.369 62075.271 -61763.962 61763.962 -62075.271 61519.369 -62441.331 61350.89 -62848.075 61265 -63279.872 56557.707 -63279.872 56614.617 -62495.53 56831.739 -61512.102 57188.546 -60570.325 57677.575 -59689.905 58288.569 -58889.313 59008.732 -58185.306 59822.987 -57592.63 60714.269 -57123.704 61663.9 -56788.353 62655.692 -56592.873 63520.164 -56540 139676.08 -56540 140704.47 -56614.617" fill="none" stroke-width="254"/><path d="M 140704.47 -56614.617 141687.898 -56831.739 142629.675 -57188.546 143510.095 -57677.575 144310.687 -58288.569 145014.694 -59008.732 145607.37 -59822.987 146076.296 -60714.269 146411.647 -61663.9 146607.127 -62655.692 146660 -63520.164 146660.001 -114276.08 146585.382 -115304.47 146368.262 -116287.896 146011.454 -117229.675 145522.424 -118110.095 144911.435 -118910.684 144191.268 -119614.694 143377.013 -120207.37 142485.731 -120676.296 141536.099 -121011.647 140544.309 -121207.127 139679.835 -121260 63523.906 -121260 62495.53 -121185.382 61512.104 -120968.262 60570.325 -120611.454 59689.905 -120122.424 58889.316 -119511.435 58185.306 -118791.268 57592.63 -117977.013 57123.704 -117085.731 56788.353 -116136.099 56592.873 -115144.309 56540 -114279.835 56540 -114079.872 61265 -114079.872 61265 -114520.128 61350.89 -114951.925 61519.369 -115358.669 61763.962 -115724.729 62075.271 -116036.038 62441.331 -116280.631 62848.075 -116449.11 63279.872 -116535 63720.128 -116535 64151.925 -116449.11 64558.669 -116280.631 64924.729 -116036.038 65236.038 -115724.729 65480.631 -115358.669 65649.11 -114951.925 65735 -114520.128 65735 -114079.872 137465 -114079.872 137465 -114520.128 137550.89 -114951.925 137719.369 -115358.669 137963.962 -115724.729 138275.271 -116036.038 138641.331 -116280.631 139048.075 -116449.11 139479.872 -116535 139920.128 -116535 140351.925 -116449.11 140758.669 -116280.631 141124.729 -116036.038 141436.038 -115724.729 141680.631 -115358.669 141849.11 -114951.925 141935 -114520.128 141935 -114079.872 141849.11 -113648.075 141680.631 -113241.331 141436.038 -112875.271 141124.729 -112563.962 140758.669 -112319.369 140351.925 -112150.89 139920.128 -112065 139479.872 -112065 139048.075 -112150.89 138641.331 -112319.369 138275.271 -112563.962 137963.962 -112875.271 137719.369 -113241.331 137550.89 -113648.075 137465 -114079.872 65735 -114079.872 65649.11 -113648.075 65480.631 -113241.331 65236.038 -112875.271 64924.729 -112563.962 64558.669 -112319.369 64151.925 -112150.89 63720.128 -112065 63279.872 -112065 62848.075 -112150.89 62441.331 -112319.369 62075.271 -112563.962 61763.962 -112875.271 61519.369 -113241.331 61350.89 -113648.075 61265 -114079.872 56540 -114079.872 56540 -63523.92 56557.707 -63279.872 61265 -63279.872 61265 -63720.128 61350.89 -64151.925 61519.369 -64558.669 61763.962 -64924.729 62075.271 -65236.038 62441.331 -65480.631 62848.075 -65649.11 63279.872 -65735 63720.128 -65735 64151.925 -65649.11 64558.669 -65480.631 64924.729 -65236.038 65169.114 -64991.653 74887.952 -64991.653 75043.962 -65307.214 75418.745 -65498.02 75823.551 -65612.044 76242.824 -65644.902 76660.451 -65595.334 77060.383 -65465.243 77356.038 -65307.214 77512.048 -64991.653 76200 -63679.605 74887.952 -64991.653 65169.114 -64991.653 65236.038 -64924.729 65480.631 -64558.669 65649.11 -64151.925 65735 -63720.128 65735 -63542.824 74055.098 -63542.824 74104.666 -63960.451 74234.757 -64360.383 74392.786 -64656.038 74708.347 -64812.048 76020.395 -63500 76379.605 -63500 77691.653 -64812.048 78007.214 -64656.038 78198.02 -64281.255 78312.044 -63876.449 78344.902 -63457.176 78325.027 -63289.721 81685 -63289.721 81685 -63710.279 81767.047 -64122.756 81927.988 -64511.302 82161.637 -64860.983 82459.017 -65158.363 82808.698 -65392.012 83197.244 -65552.953 83609.721 -65635 84030.279 -65635 84442.756 -65552.953 84628.559 -65475.991 96923.607 -77771.04 96949.459 -77802.541 97013.596 -77855.177 97075.157 -77905.699 97091.623 -77914.5 97218.566 -77982.353 97374.174 -78029.556 97495.447 -78041.5 90649.007 -78041.5 90621.178 -78022.905 90447.834 -77951.104 90263.813 -77914.5 90076.187 -77914.5 89892.166 -77951.104 89718.822 -78022.905 89562.816 -78127.145 89430.145 -78259.816 89325.905 -78415.822 89254.104 -78589.166 89217.5 -78773.187 89217.5 -78960.813 89254.104 -79144.834 89325.905 -79318.178 89430.145 -79474.184 89521.461 -79565.5 87855.007 -79565.5 87827.178 -79546.905 87653.834 -79475.104 87469.813 -79438.5 87282.187 -79438.5 87098.166 -79475.104 86924.822 -79546.905 86768.816 -79651.145 86636.145 -79783.816 86531.905 -79939.822 86460.104 -80113.166 86423.5 -80297.187 86423.5 -80484.813 86460.104 -80668.834 86531.905 -80842.178 86636.145 -80998.184 86744.497 -81106.536 86641.816 -81175.145 86509.145 -81307.816 86404.905 -81463.822 86333.104 -81637.166 86296.5 -81821.187 86296.5 -82008.813 86333.104 -82192.834 86404.905 -82366.178 86509.145 -82522.184 86641.816 -82654.855 86797.822 -82759.095 86971.166 -82830.896 87155.187 -82867.5 87342.813 -82867.5 87526.834 -82830.896 87700.178 -82759.095 87728.007 -82740.5 87820.5 -82740.5 87820.5 -82770.813 87857.104 -82954.834 87928.905 -83128.178 88033.145 -83284.184 88165.816 -83416.855 88321.822 -83521.095 88495.166 -83592.896 88679.187 -83629.5 88866.813 -83629.5 89050.834 -83592.896 89224.178 -83521.095 89252.007 -83502.5 90614.5 -83502.5 90614.5 -83532.813 90651.104 -83716.834 90722.905 -83890.178 90827.145 -84046.184 90959.816 -84178.855 91115.822 -84283.095 91289.166 -84354.896 91473.187 -84391.5 91565.302 -84391.5 91484.905 -84511.822 91413.104 -84685.166 91376.5 -84869.187 91376.5 -85056.813 91413.104 -85240.834 91484.905 -85414.178 91589.145 -85570.184 91721.816 -85702.855 91877.822 -85807.095 92051.166 -85878.896 92235.187 -85915.5 92422.813 -85915.5 92606.834 -85878.896 92780.178 -85807.095 92808.007 -85788.5 99469.993 -85788.5 99497.822 -85807.095 99671.166 -85878.896 99855.187 -85915.5 100042.813 -85915.5 100226.834 -85878.896 100400.178 -85807.095 100428.007 -85788.5 107089.993 -85788.5 107117.822 -85807.095 107291.166 -85878.896 107475.187 -85915.5 107662.813 -85915.5 107846.834 -85878.896 108020.178 -85807.095 108048.007 -85788.5 114709.993 -85788.5 114737.822 -85807.095 114911.166 -85878.896 115095.187 -85915.5 115282.813 -85915.5 115466.834 -85878.896 115640.178 -85807.095 115668.007 -85788.5 123599.993 -85788.5 123627.822 -85807.095 123801.166 -85878.896 123985.187 -85915.5 124172.813 -85915.5 124356.834 -85878.896 124530.178 -85807.095 124558.007 -85788.5 131611.067 -85788.5 128786.994 -88612.574 128754.166 -88619.104 128580.822 -88690.905 128424.816 -88795.145 128292.145 -88927.816 128187.905 -89083.822 128116.104 -89257.166 128079.5 -89441.187 128079.5 -89450.139 128072.822 -89452.905 127916.816 -89557.145 127784.145 -89689.816 127679.905 -89845.822 127608.104 -90019.166 127571.5 -90203.187 127571.5 -90390.813 127608.104 -90574.834 127679.905 -90748.178 127784.145 -90904.184 127916.816 -91036.855 128072.822 -91141.095 128246.166 -91212.896 128430.187 -91249.5 128617.813 -91249.5 128801.834 -91212.896 128975.178 -91141.095 129003.007 -91122.5 129325.067 -91122.5 128436.068 -92011.5 118462.007 -92011.5 118434.178 -91992.905 118260.834 -91921.104 118076.813 -91884.5 117889.187 -91884.5 117705.166 -91921.104 117531.822 -91992.905 117503.993 -92011.5 117192.007 -92011.5 117164.178 -91992.905 116990.834 -91921.104 116806.813 -91884.5 116619.187 -91884.5 116435.166 -91921.104 116261.822 -91992.905 116233.993 -92011.5 109572.007 -92011.5 109544.178 -91992.905 109370.834 -91921.104 109186.813 -91884.5 108999.187 -91884.5 108815.166 -91921.104 108641.822 -91992.905 108613.993 -92011.5 101952.007 -92011.5 101924.178 -91992.905 101750.834 -91921.104 101566.813 -91884.5 101379.187 -91884.5 101195.166 -91921.104 101021.822 -91992.905 100993.993 -92011.5 94332.007 -92011.5 94304.178 -91992.905 94130.834 -91921.104 93946.813 -91884.5 93759.187 -91884.5 93575.166 -91921.104 93401.822 -91992.905 93245.816 -92097.145 93113.145 -92229.816 93008.905 -92385.822 92937.104 -92559.166 92900.5 -92743.187 92900.5 -92773.5 87855.007 -92773.5 87827.178 -92754.905 87653.834 -92683.104 87469.813 -92646.5 87282.187 -92646.5 87098.166 -92683.104 86924.822 -92754.905 86768.816 -92859.145 86636.145 -92991.816 86531.905 -93147.822 86460.104 -93321.166 86423.5 -93505.187 86423.5 -93692.813 86460.104 -93876.834 86531.905 -94050.178 86636.145 -94206.184 86768.816 -94338.855 86801.958 -94361 86768.816 -94383.145 86636.145 -94515.816 86531.905 -94671.822 86460.104 -94845.166 86423.5 -95029.187 86423.5 -95216.813 86460.104 -95400.834 86531.905 -95574.178 86636.145 -95730.184 86768.816 -95862.855 86924.822 -95967.095 87098.166 -96038.896 87282.187 -96075.5 87469.813 -96075.5 87653.834 -96038.896 87827.178 -95967.095 87855.007 -95948.5 88124.461 -95948.5 88033.145 -96039.816 87928.905 -96195.822 87857.104 -96369.166 87820.5 -96553.187 87820.5 -96740.813 87857.104 -96924.834 87928.905 -97098.178 88033.145 -97254.184 88165.816 -97386.855 88321.822 -97491.095 88495.166 -97562.896 88679.187 -97599.5 88866.813 -97599.5 89050.834 -97562.896 89224.178 -97491.095 89252.007 -97472.5 90614.5 -97472.5 90614.5 -97502.813 90651.104 -97686.834 90722.905 -97860.178 90827.145 -98016.184 90959.816 -98148.855 91115.822 -98253.095 91289.166 -98324.896 91473.187 -98361.5 91565.302 -98361.5 91484.905 -98481.822 91413.104 -98655.166 91376.5 -98839.187 91376.5 -99026.813 91413.104 -99210.834 91484.905 -99384.178 91589.145 -99540.184 91721.816 -99672.855 91877.822 -99777.095 92051.166 -99848.896 92235.187 -99885.5 92422.813 -99885.5 92606.834 -99848.896 92780.178 -99777.095 92808.007 -99758.5 99469.993 -99758.5 99497.822 -99777.095 99671.166 -99848.896 99855.187 -99885.5 100042.813 -99885.5 100226.834 -99848.896 100400.178 -99777.095 100428.007 -99758.5 107089.993 -99758.5 107117.822 -99777.095 107291.166 -99848.896 107475.187 -99885.5 107662.813 -99885.5 107846.834 -99848.896 108020.178 -99777.095 108048.007 -99758.5 114709.993 -99758.5 114737.822 -99777.095 114911.166 -99848.896 115095.187 -99885.5 115282.813 -99885.5 115466.834 -99848.896 115640.178 -99777.095 115668.007 -99758.5 123599.993 -99758.5 123627.822 -99777.095 123801.166 -99848.896 123985.187 -99885.5 124172.813 -99885.5 124356.834 -99848.896 124530.178 -99777.095 124686.184 -99672.855 124818.855 -99540.184 124923.095 -99384.178 124994.896 -99210.834 125031.5 -99026.813 125031.5 -98839.187 124994.896 -98655.166 124923.095 -98481.822 124818.855 -98325.816 124686.184 -98193.145 124530.178 -98088.905 124356.834 -98017.104 124253.459 -97996.541 124232.896 -97893.166 124161.095 -97719.822 124056.855 -97563.816 123924.184 -97431.145 123768.178 -97326.905 123594.834 -97255.104 123491.459 -97234.541 123470.896 -97131.166 123399.095 -96957.822 123294.855 -96801.816 123162.184 -96669.145 123006.178 -96564.905 122832.834 -96493.104 122729.459 -96472.541 122708.896 -96369.166 122637.095 -96195.822 122532.855 -96039.816 122441.539 -95948.5 129187.993 -95948.5 129215.822 -95967.095 129389.166 -96038.896 129573.187 -96075.5 129760.813 -96075.5 129944.834 -96038.896 130118.178 -95967.095 130274.184 -95862.855 130406.855 -95730.184 130511.095 -95574.178 130582.896 -95400.834 130603.459 -95297.459 130706.834 -95276.896 130880.178 -95205.095 131036.184 -95100.855 131168.855 -94968.184 131273.095 -94812.178 131344.896 -94638.834 131365.459 -94535.459 131468.834 -94514.896 131642.178 -94443.095 131798.184 -94338.855 131930.855 -94206.184 132035.095 -94050.178 132106.896 -93876.834 132143.5 -93692.813 132143.5 -93505.187 132106.896 -93321.166 132035.095 -93147.822 131930.855 -92991.816 131798.184 -92859.145 131642.178 -92754.905 131468.834 -92683.104 131284.813 -92646.5 131097.187 -92646.5 130913.166 -92683.104 130739.822 -92754.905 130711.993 -92773.5 130008.932 -92773.5 131817.008 -90965.425 131849.834 -90958.896 132023.178 -90887.095 132179.184 -90782.855 132311.855 -90650.184 132416.095 -90494.178 132487.896 -90320.834 132524.5 -90136.813 132524.5 -89949.187 132487.896 -89765.166 132416.095 -89591.822 132311.855 -89435.816 132179.184 -89303.145 132023.178 -89198.905 131959.078 -89172.354 134540.041 -86591.392 134571.541 -86565.541 134624.177 -86501.404 134674.699 -86439.843 134751.353 -86296.434 134788.646 -86173.494 134798.556 -86140.826 134810.5 -86019.553 134810.5 -86019.551 134814.494 -85979.001 134810.5 -85938.45 134810.5 -70525.55 134814.494 -70485 134810.5 -70444.447 134798.556 -70323.174 134751.353 -70167.566 134674.699 -70024.157 134597.392 -69929.958 134597.389 -69929.955 134571.541 -69898.459 134540.045 -69872.611 128975.991 -64308.559 129052.953 -64122.756 129135 -63710.279 129135 -63289.721 129133.041 -63279.872 137465 -63279.872 137465 -63720.128 137550.89 -64151.925 137719.369 -64558.669 137963.962 -64924.729 138275.271 -65236.038 138641.331 -65480.631 139048.075 -65649.11 139479.872 -65735 139920.128 -65735 140351.925 -65649.11 140758.669 -65480.631 141124.729 -65236.038 141436.038 -64924.729 141680.631 -64558.669 141849.11 -64151.925 141935 -63720.128 141935 -63279.872 141849.11 -62848.075 141680.631 -62441.331 141436.038 -62075.271 141124.729 -61763.962 140758.669 -61519.369 140351.925 -61350.89 139920.128 -61265 139479.872 -61265 139048.075 -61350.89 138641.331 -61519.369 138275.271 -61763.962 137963.962 -62075.271 137719.369 -62441.331 137550.89 -62848.075 137465 -63279.872 129133.041 -63279.872 129052.953 -62877.244 128892.012 -62488.698 128658.363 -62139.017 128360.983 -61841.637 128011.302 -61607.988 127622.756 -61447.047 127210.279 -61365 126789.721 -61365 126377.244 -61447.047 125988.698 -61607.988 125639.017 -61841.637 125341.637 -62139.017 125107.988 -62488.698 124947.047 -62877.244 124865 -63289.721 124865 -63710.279 124947.047 -64122.756 125107.988 -64511.302 125341.637 -64860.983 125639.017 -65158.363 125988.698 -65392.012 126377.244 -65552.953 126789.721 -65635 127210.279 -65635 127622.756 -65552.953 127808.559 -65475.991 133159.501 -70826.935 133159.501 -76112.068 121355.991 -64308.559 121432.953 -64122.756 121515 -63710.279 121515 -63289.721 121432.953 -62877.244 121272.012 -62488.698 121038.363 -62139.017 120740.983 -61841.637 120391.302 -61607.988 120002.756 -61447.047 119590.279 -61365 119169.721 -61365 118757.244 -61447.047 118368.698 -61607.988 118019.017 -61841.637 117721.637 -62139.017 117487.988 -62488.698 117327.047 -62877.244 117245 -63289.721 117245 -63710.279 117327.047 -64122.756 117487.988 -64511.302 117721.637 -64860.983 118019.017 -65158.363 118368.698 -65392.012 118757.244 -65552.953 119169.721 -65635 119590.279 -65635 120002.756 -65552.953 120188.559 -65475.991 132397.5 -77684.933 132397.501 -83552.462 132306.184 -83461.145 132150.178 -83356.905 131976.834 -83285.104 131873.459 -83264.541 131852.896 -83161.166 131781.095 -82987.822 131676.855 -82831.816 131544.184 -82699.145 131388.178 -82594.905 131258.878 -82541.347 131230.596 -82399.166 131158.795 -82225.822 131054.555 -82069.816 130921.884 -81937.145 130765.878 -81832.905 130608.897 -81767.882 130582.896 -81637.166 130511.095 -81463.822 130406.855 -81307.816 130274.184 -81175.145 130118.178 -81070.905 129944.834 -80999.104 129760.813 -80962.5 129573.187 -80962.5 129389.166 -80999.104 129215.822 -81070.905 129187.993 -81089.5 126082.007 -81089.5 126210.184 -81003.855 126342.855 -80871.184 126447.095 -80715.178 126518.896 -80541.834 126555.5 -80357.813 126555.5 -80170.187 126518.896 -79986.166 126447.095 -79812.822 126342.855 -79656.816 126210.184 -79524.145 126054.178 -79419.905 125880.834 -79348.104 125848.007 -79341.574 123167.398 -76660.966 123141.541 -76629.459 123015.842 -76526.301 122872.434 -76449.647 122716.826 -76402.444 122595.553 -76390.5 122595.55 -76390.5 122555 -76386.506 122514.45 -76390.5 97877.933 -76390.5 85795.991 -64308.559 85872.953 -64122.756 85955 -63710.279 85955 -63289.721 109625 -63289.721 109625 -63710.279 109707.047 -64122.756 109867.988 -64511.302 110101.637 -64860.983 110399.017 -65158.363 110748.698 -65392.012 111137.244 -65552.953 111549.721 -65635 111970.279 -65635 112382.756 -65552.953 112771.302 -65392.012 113120.983 -65158.363 113418.363 -64860.983 113652.012 -64511.302 113812.953 -64122.756 113895 -63710.279 113895 -63289.721 113812.953 -62877.244 113652.012 -62488.698 113418.363 -62139.017 113120.983 -61841.637 112771.302 -61607.988 112382.756 -61447.047 111970.279 -61365 111549.721 -61365 111137.244 -61447.047 110748.698 -61607.988 110399.017 -61841.637 110101.637 -62139.017 109867.988 -62488.698 109707.047 -62877.244 109625 -63289.721 85955 -63289.721 85872.953 -62877.244 85712.012 -62488.698 85478.363 -62139.017 85180.983 -61841.637 84831.302 -61607.988 84442.756 -61447.047 84030.279 -61365 83609.721 -61365 83197.244 -61447.047 82808.698 -61607.988 82459.017 -61841.637 82161.637 -62139.017 81927.988 -62488.698 81767.047 -62877.244 81685 -63289.721 78325.027 -63289.721 78295.334 -63039.549 78165.243 -62639.617 78007.214 -62343.962 77691.653 -62187.952 76379.605 -63500 76020.395 -63500 74708.347 -62187.952 74392.786 -62343.962 74201.98 -62718.745 74087.956 -63123.551 74055.098 -63542.824 65735 -63542.824 65735 -63279.872 65649.11 -62848.075 65480.631 -62441.331 65236.038 -62075.271 65169.114 -62008.347 74887.952 -62008.347 76200 -63320.395 77512.048 -62008.347 77356.038 -61692.786 76981.255 -61501.98 76576.449 -61387.956 76157.176 -61355.098 75739.549 -61404.666 75339.617 -61534.757 75043.962 -61692.786 74887.952 -62008.347 65169.114 -62008.347 64924.729 -61763.962 64558.669 -61519.369 64151.925 -61350.89 63720.128 -61265 63279.872 -61265 62848.075 -61350.89 62441.331 -61519.369 62075.271 -61763.962 61763.962 -62075.271 61519.369 -62441.331 61350.89 -62848.075 61265 -63279.872 56557.707 -63279.872 56614.617 -62495.53 56831.739 -61512.102 57188.546 -60570.325 57677.575 -59689.905 58288.569 -58889.313 59008.732 -58185.306 59822.987 -57592.63 60714.269 -57123.704 61663.9 -56788.353 62655.692 -56592.873 63520.164 -56540 139676.08 -56540 140704.47 -56614.617"/></g><g id="vpyqIN2GEDmI_bottom_soldermask"><use xlink:href="#u3tGgwOsZSkl_pad-10" x="127000" y="-63500"/><use xlink:href="#u3tGgwOsZSkl_pad-10" x="119380" y="-63500"/><use xlink:href="#u3tGgwOsZSkl_pad-10" x="111760" y="-63500"/><use xlink:href="#u3tGgwOsZSkl_pad-10" x="83820" y="-63500"/><use xlink:href="#u3tGgwOsZSkl_pad-10" x="76200" y="-63500"/><use xlink:href="#u3tGgwOsZSkl_pad-11" x="63500" y="-114300"/><use xlink:href="#u3tGgwOsZSkl_pad-11" x="139700" y="-114300"/><use xlink:href="#u3tGgwOsZSkl_pad-11" x="63500" y="-63500"/><use xlink:href="#u3tGgwOsZSkl_pad-11" x="139700" y="-63500"/></g><g id="vpyqIN2GEDmI_bottom_drill1" transform="scale(25.4,25.4)"><use xlink:href="#wI69xbaIGHWd_pad-1" x="5500" y="-2500"/><use xlink:href="#wI69xbaIGHWd_pad-1" x="5500" y="-4500"/><use xlink:href="#wI69xbaIGHWd_pad-1" x="2500" y="-4500"/><use xlink:href="#wI69xbaIGHWd_pad-1" x="2500" y="-2500"/></g><g id="vpyqIN2GEDmI_bottom_drill2" transform="scale(25.4,25.4)"><use xlink:href="#qYxYB5LD328U_pad-1" x="3435" y="-3225"/><use xlink:href="#qYxYB5LD328U_pad-1" x="3440" y="-3165"/><use xlink:href="#qYxYB5LD328U_pad-1" x="3440" y="-3685"/><use xlink:href="#qYxYB5LD328U_pad-1" x="3440" y="-3745"/><use xlink:href="#qYxYB5LD328U_pad-1" x="3495" y="-3195"/><use xlink:href="#qYxYB5LD328U_pad-1" x="3495" y="-3255"/><use xlink:href="#qYxYB5LD328U_pad-1" x="3495" y="-3715"/><use xlink:href="#qYxYB5LD328U_pad-1" x="3495" y="-3805"/><use xlink:href="#qYxYB5LD328U_pad-1" x="3550" y="-3105"/><use xlink:href="#qYxYB5LD328U_pad-1" x="3550" y="-3775"/><use xlink:href="#qYxYB5LD328U_pad-1" x="3605" y="-3285"/><use xlink:href="#qYxYB5LD328U_pad-1" x="3605" y="-3835"/><use xlink:href="#qYxYB5LD328U_pad-1" x="3635" y="-3345"/><use xlink:href="#qYxYB5LD328U_pad-1" x="3635" y="-3895"/><use xlink:href="#qYxYB5LD328U_pad-1" x="3665" y="-3135"/><use xlink:href="#qYxYB5LD328U_pad-1" x="3665" y="-3865"/><use xlink:href="#qYxYB5LD328U_pad-1" x="3695" y="-3315"/><use xlink:href="#qYxYB5LD328U_pad-1" x="3695" y="-3655"/><use xlink:href="#qYxYB5LD328U_pad-1" x="3735" y="-3685"/><use xlink:href="#qYxYB5LD328U_pad-1" x="3735" y="-3745"/><use xlink:href="#qYxYB5LD328U_pad-1" x="3740" y="-3165"/><use xlink:href="#qYxYB5LD328U_pad-1" x="3740" y="-3225"/><use xlink:href="#qYxYB5LD328U_pad-1" x="3795" y="-3195"/><use xlink:href="#qYxYB5LD328U_pad-1" x="3795" y="-3255"/><use xlink:href="#qYxYB5LD328U_pad-1" x="3795" y="-3715"/><use xlink:href="#qYxYB5LD328U_pad-1" x="3795" y="-3775"/><use xlink:href="#qYxYB5LD328U_pad-1" x="3850" y="-3135"/><use xlink:href="#qYxYB5LD328U_pad-1" x="3850" y="-3805"/><use xlink:href="#qYxYB5LD328U_pad-1" x="3905" y="-3835"/><use xlink:href="#qYxYB5LD328U_pad-1" x="3910" y="-3285"/><use xlink:href="#qYxYB5LD328U_pad-1" x="3935" y="-3345"/><use xlink:href="#qYxYB5LD328U_pad-1" x="3935" y="-3895"/><use xlink:href="#qYxYB5LD328U_pad-1" x="3965" y="-3105"/><use xlink:href="#qYxYB5LD328U_pad-1" x="3965" y="-3865"/><use xlink:href="#qYxYB5LD328U_pad-1" x="3995" y="-3315"/><use xlink:href="#qYxYB5LD328U_pad-1" x="3995" y="-3655"/><use xlink:href="#qYxYB5LD328U_pad-1" x="4035" y="-3135"/><use xlink:href="#qYxYB5LD328U_pad-1" x="4040" y="-3225"/><use xlink:href="#qYxYB5LD328U_pad-1" x="4040" y="-3685"/><use xlink:href="#qYxYB5LD328U_pad-1" x="4040" y="-3745"/><use xlink:href="#qYxYB5LD328U_pad-1" x="4095" y="-3195"/><use xlink:href="#qYxYB5LD328U_pad-1" x="4095" y="-3255"/><use xlink:href="#qYxYB5LD328U_pad-1" x="4095" y="-3775"/><use xlink:href="#qYxYB5LD328U_pad-1" x="4100" y="-3715"/><use xlink:href="#qYxYB5LD328U_pad-1" x="4150" y="-3165"/><use xlink:href="#qYxYB5LD328U_pad-1" x="4155" y="-3835"/><use xlink:href="#qYxYB5LD328U_pad-1" x="4205" y="-3285"/><use xlink:href="#qYxYB5LD328U_pad-1" x="4205" y="-3805"/><use xlink:href="#qYxYB5LD328U_pad-1" x="4235" y="-3345"/><use xlink:href="#qYxYB5LD328U_pad-1" x="4235" y="-3895"/><use xlink:href="#qYxYB5LD328U_pad-1" x="4260" y="-3105"/><use xlink:href="#qYxYB5LD328U_pad-1" x="4265" y="-3865"/><use xlink:href="#qYxYB5LD328U_pad-1" x="4295" y="-3315"/><use xlink:href="#qYxYB5LD328U_pad-1" x="4295" y="-3655"/><use xlink:href="#qYxYB5LD328U_pad-1" x="4335" y="-3135"/><use xlink:href="#qYxYB5LD328U_pad-1" x="4335" y="-3225"/><use xlink:href="#qYxYB5LD328U_pad-1" x="4340" y="-3685"/><use xlink:href="#qYxYB5LD328U_pad-1" x="4340" y="-3745"/><use xlink:href="#qYxYB5LD328U_pad-1" x="4395" y="-3165"/><use xlink:href="#qYxYB5LD328U_pad-1" x="4395" y="-3255"/><use xlink:href="#qYxYB5LD328U_pad-1" x="4395" y="-3715"/><use xlink:href="#qYxYB5LD328U_pad-1" x="4395" y="-3775"/><use xlink:href="#qYxYB5LD328U_pad-1" x="4450" y="-3195"/><use xlink:href="#qYxYB5LD328U_pad-1" x="4450" y="-3865"/><use xlink:href="#qYxYB5LD328U_pad-1" x="4505" y="-3285"/><use xlink:href="#qYxYB5LD328U_pad-1" x="4505" y="-3805"/><use xlink:href="#qYxYB5LD328U_pad-1" x="4535" y="-3345"/><use xlink:href="#qYxYB5LD328U_pad-1" x="4535" y="-3895"/><use xlink:href="#qYxYB5LD328U_pad-1" x="4560" y="-3105"/><use xlink:href="#qYxYB5LD328U_pad-1" x="4565" y="-3835"/><use xlink:href="#qYxYB5LD328U_pad-1" x="4595" y="-3315"/><use xlink:href="#qYxYB5LD328U_pad-1" x="4595" y="-3655"/><use xlink:href="#qYxYB5LD328U_pad-1" x="4645" y="-3105"/><use xlink:href="#qYxYB5LD328U_pad-1" x="4645" y="-3655"/><use xlink:href="#qYxYB5LD328U_pad-1" x="4675" y="-3135"/><use xlink:href="#qYxYB5LD328U_pad-1" x="4675" y="-3685"/><use xlink:href="#qYxYB5LD328U_pad-1" x="4705" y="-3165"/><use xlink:href="#qYxYB5LD328U_pad-1" x="4705" y="-3715"/><use xlink:href="#qYxYB5LD328U_pad-1" x="4735" y="-3195"/><use xlink:href="#qYxYB5LD328U_pad-1" x="4735" y="-3745"/><use xlink:href="#qYxYB5LD328U_pad-1" x="4765" y="-3225"/><use xlink:href="#qYxYB5LD328U_pad-1" x="4765" y="-3775"/><use xlink:href="#qYxYB5LD328U_pad-1" x="4795" y="-3255"/><use xlink:href="#qYxYB5LD328U_pad-1" x="4795" y="-3805"/><use xlink:href="#qYxYB5LD328U_pad-1" x="4825" y="-3285"/><use xlink:href="#qYxYB5LD328U_pad-1" x="4825" y="-3835"/><use xlink:href="#qYxYB5LD328U_pad-1" x="4855" y="-3315"/><use xlink:href="#qYxYB5LD328U_pad-1" x="4855" y="-3865"/><use xlink:href="#qYxYB5LD328U_pad-1" x="4885" y="-3345"/><use xlink:href="#qYxYB5LD328U_pad-1" x="4885" y="-3895"/><use xlink:href="#qYxYB5LD328U_pad-1" x="4945" y="-3160"/><use xlink:href="#qYxYB5LD328U_pad-1" x="5060" y="-3555"/><use xlink:href="#qYxYB5LD328U_pad-1" x="5080" y="-3525"/><use xlink:href="#qYxYB5LD328U_pad-1" x="5105" y="-3225"/><use xlink:href="#qYxYB5LD328U_pad-1" x="5105" y="-3745"/><use xlink:href="#qYxYB5LD328U_pad-1" x="5130.5" y="-3255"/><use xlink:href="#qYxYB5LD328U_pad-1" x="5135" y="-3715"/><use xlink:href="#qYxYB5LD328U_pad-1" x="5155" y="-3285"/><use xlink:href="#qYxYB5LD328U_pad-1" x="5165" y="-3685"/><use xlink:href="#qYxYB5LD328U_pad-1" x="5180" y="-3545"/><use xlink:href="#qYxYB5LD328U_pad-1" x="5185" y="-3315"/><use xlink:href="#qYxYB5LD328U_pad-1" x="5205" y="-3345"/><use xlink:href="#qYxYB5LD328U_pad-2" x="4700" y="-2500"/><use xlink:href="#qYxYB5LD328U_pad-2" x="5000" y="-2500"/><use xlink:href="#qYxYB5LD328U_pad-2" x="3300" y="-2500"/><use xlink:href="#qYxYB5LD328U_pad-2" x="3000" y="-2500"/><use xlink:href="#qYxYB5LD328U_pad-2" x="4400" y="-2500"/></g><clipPath id="vpyqIN2GEDmI_bottom_outline"><path d="M 63500 -121920 139700 -121920 A 7620 7620 0 0 1 147320 -114300 L 147320 -63500 A 7620 7620 0 0 1 139700 -55880 L 63500 -55880 A 7620 7620 0 0 1 55880 -63500 L 55880 -114300 A 7620 7620 0 0 1 63500 -121920" fill="none" stroke-width="50"/></clipPath><mask id="vpyqIN2GEDmI_bottom_mech-mask"><g fill="#000" stroke="#000"><rect x="55880" y="-121920" width="91440" height="66040" fill="#fff"/><use xlink:href="#vpyqIN2GEDmI_bottom_drill1"/><use xlink:href="#vpyqIN2GEDmI_bottom_drill2"/></g></mask><mask id="vpyqIN2GEDmI_bottom_cf-mask"><g fill="#fff" stroke="#fff"><use xlink:href="#vpyqIN2GEDmI_bottom_soldermask"/></g></mask><mask id="vpyqIN2GEDmI_bottom_sm-mask"><g fill="#000" stroke="#000"><rect x="55880" y="-121920" width="91440" height="66040" fill="#fff"/><use xlink:href="#vpyqIN2GEDmI_bottom_soldermask"/></g></mask></defs><g transform="translate(0,-177800) scale(1,-1)"><g mask="url(#vpyqIN2GEDmI_bottom_mech-mask)" clip-path="url(#vpyqIN2GEDmI_bottom_outline)" transform="translate(203200,0) scale(-1,1)"><rect x="55880" y="-121920" width="91440" height="66040" fill="currentColor" class="vpyqIN2GEDmI_fr4"/><use xlink:href="#vpyqIN2GEDmI_bottom_copper" fill="currentColor" stroke="currentColor" class="vpyqIN2GEDmI_cu"/><use xlink:href="#vpyqIN2GEDmI_bottom_copper" fill="currentColor" stroke="currentColor" class="vpyqIN2GEDmI_cf" mask="url(#vpyqIN2GEDmI_bottom_cf-mask)"/><g mask="url(#vpyqIN2GEDmI_bottom_sm-mask)"><rect x="55880" y="-121920" width="91440" height="66040" fill="currentColor" class="vpyqIN2GEDmI_sm"/></g></g></g></svg>