%TF.GenerationSoftware,KiCad,Pcbnew,5.1.9+dfsg1-1*%
%TF.CreationDate,2021-03-24T19:05:18-05:00*%
%TF.ProjectId,7seg-prototype,37736567-2d70-4726-9f74-6f747970652e,1.0.0*%
%TF.SameCoordinates,Original*%
%TF.FileFunction,Paste,Top*%
%TF.FilePolarity,Positive*%
%FSLAX46Y46*%
G04 Gerber Fmt 4.6, Leading zero omitted, Abs format (unit mm)*
G04 Created by KiCad (PCBNEW 5.1.9+dfsg1-1) date 2021-03-24 19:05:18*
%MOMM*%
%LPD*%
G01*
G04 APERTURE LIST*
%ADD10R,0.410000X1.600000*%
%ADD11R,0.900000X2.800000*%
G04 APERTURE END LIST*
D10*
%TO.C,U3*%
X128460500Y-86753700D03*
X129095500Y-86753700D03*
X129730500Y-86753700D03*
X130365500Y-86753700D03*
X131000500Y-86753700D03*
X131635500Y-86753700D03*
X132270500Y-86753700D03*
X132905500Y-86753700D03*
X132905500Y-92062300D03*
X132270500Y-92062300D03*
X131635500Y-92062300D03*
X131000500Y-92062300D03*
X130365500Y-92062300D03*
X129730500Y-92062300D03*
X129095500Y-92062300D03*
X128460500Y-92062300D03*
%TD*%
D11*
%TO.C,D2*%
X102530000Y-76915000D03*
X103970000Y-76915000D03*
X105410000Y-76915000D03*
X106850000Y-76915000D03*
X108290000Y-76915000D03*
X108290000Y-86915000D03*
X106850000Y-86915000D03*
X105410000Y-86915000D03*
X103970000Y-86915000D03*
X102530000Y-86915000D03*
%TD*%
%TO.C,D7*%
X110150000Y-90965000D03*
X111590000Y-90965000D03*
X113030000Y-90965000D03*
X114470000Y-90965000D03*
X115910000Y-90965000D03*
X115910000Y-100965000D03*
X114470000Y-100965000D03*
X113030000Y-100965000D03*
X111590000Y-100965000D03*
X110150000Y-100965000D03*
%TD*%
%TO.C,D6*%
X102530000Y-90885000D03*
X103970000Y-90885000D03*
X105410000Y-90885000D03*
X106850000Y-90885000D03*
X108290000Y-90885000D03*
X108290000Y-100885000D03*
X106850000Y-100885000D03*
X105410000Y-100885000D03*
X103970000Y-100885000D03*
X102530000Y-100885000D03*
%TD*%
%TO.C,D5*%
X94910000Y-90885000D03*
X96350000Y-90885000D03*
X97790000Y-90885000D03*
X99230000Y-90885000D03*
X100670000Y-90885000D03*
X100670000Y-100885000D03*
X99230000Y-100885000D03*
X97790000Y-100885000D03*
X96350000Y-100885000D03*
X94910000Y-100885000D03*
%TD*%
%TO.C,D4*%
X87290000Y-90885000D03*
X88730000Y-90885000D03*
X90170000Y-90885000D03*
X91610000Y-90885000D03*
X93050000Y-90885000D03*
X93050000Y-100885000D03*
X91610000Y-100885000D03*
X90170000Y-100885000D03*
X88730000Y-100885000D03*
X87290000Y-100885000D03*
%TD*%
%TO.C,D3*%
X110150000Y-76915000D03*
X111590000Y-76915000D03*
X113030000Y-76915000D03*
X114470000Y-76915000D03*
X115910000Y-76915000D03*
X115910000Y-86915000D03*
X114470000Y-86915000D03*
X113030000Y-86915000D03*
X111590000Y-86915000D03*
X110150000Y-86915000D03*
%TD*%
%TO.C,D1*%
X94910000Y-76915000D03*
X96350000Y-76915000D03*
X97790000Y-76915000D03*
X99230000Y-76915000D03*
X100670000Y-76915000D03*
X100670000Y-86915000D03*
X99230000Y-86915000D03*
X97790000Y-86915000D03*
X96350000Y-86915000D03*
X94910000Y-86915000D03*
%TD*%
%TO.C,D0*%
X87290000Y-76915000D03*
X88730000Y-76915000D03*
X90170000Y-76915000D03*
X91610000Y-76915000D03*
X93050000Y-76915000D03*
X93050000Y-86915000D03*
X91610000Y-86915000D03*
X90170000Y-86915000D03*
X88730000Y-86915000D03*
X87290000Y-86915000D03*
%TD*%
%TO.C,C1*%
G36*
G01*
X91070000Y-64150002D02*
X91070000Y-62849998D01*
G75*
G02*
X91319998Y-62600000I249998J0D01*
G01*
X92145002Y-62600000D01*
G75*
G02*
X92395000Y-62849998I0J-249998D01*
G01*
X92395000Y-64150002D01*
G75*
G02*
X92145002Y-64400000I-249998J0D01*
G01*
X91319998Y-64400000D01*
G75*
G02*
X91070000Y-64150002I0J249998D01*
G01*
G37*
G36*
G01*
X87945000Y-64150002D02*
X87945000Y-62849998D01*
G75*
G02*
X88194998Y-62600000I249998J0D01*
G01*
X89020002Y-62600000D01*
G75*
G02*
X89270000Y-62849998I0J-249998D01*
G01*
X89270000Y-64150002D01*
G75*
G02*
X89020002Y-64400000I-249998J0D01*
G01*
X88194998Y-64400000D01*
G75*
G02*
X87945000Y-64150002I0J249998D01*
G01*
G37*
%TD*%
%TO.C,R2*%
G36*
G01*
X129783000Y-98942999D02*
X129783000Y-100193001D01*
G75*
G02*
X129533001Y-100443000I-249999J0D01*
G01*
X128732999Y-100443000D01*
G75*
G02*
X128483000Y-100193001I0J249999D01*
G01*
X128483000Y-98942999D01*
G75*
G02*
X128732999Y-98693000I249999J0D01*
G01*
X129533001Y-98693000D01*
G75*
G02*
X129783000Y-98942999I0J-249999D01*
G01*
G37*
G36*
G01*
X132883000Y-98942999D02*
X132883000Y-100193001D01*
G75*
G02*
X132633001Y-100443000I-249999J0D01*
G01*
X131832999Y-100443000D01*
G75*
G02*
X131583000Y-100193001I0J249999D01*
G01*
X131583000Y-98942999D01*
G75*
G02*
X131832999Y-98693000I249999J0D01*
G01*
X132633001Y-98693000D01*
G75*
G02*
X132883000Y-98942999I0J-249999D01*
G01*
G37*
%TD*%
%TO.C,C4*%
G36*
G01*
X131583000Y-79898002D02*
X131583000Y-78597998D01*
G75*
G02*
X131832998Y-78348000I249998J0D01*
G01*
X132658002Y-78348000D01*
G75*
G02*
X132908000Y-78597998I0J-249998D01*
G01*
X132908000Y-79898002D01*
G75*
G02*
X132658002Y-80148000I-249998J0D01*
G01*
X131832998Y-80148000D01*
G75*
G02*
X131583000Y-79898002I0J249998D01*
G01*
G37*
G36*
G01*
X128458000Y-79898002D02*
X128458000Y-78597998D01*
G75*
G02*
X128707998Y-78348000I249998J0D01*
G01*
X129533002Y-78348000D01*
G75*
G02*
X129783000Y-78597998I0J-249998D01*
G01*
X129783000Y-79898002D01*
G75*
G02*
X129533002Y-80148000I-249998J0D01*
G01*
X128707998Y-80148000D01*
G75*
G02*
X128458000Y-79898002I0J249998D01*
G01*
G37*
%TD*%
%TO.C,C3*%
G36*
G01*
X136382998Y-90308000D02*
X137683002Y-90308000D01*
G75*
G02*
X137933000Y-90557998I0J-249998D01*
G01*
X137933000Y-91383002D01*
G75*
G02*
X137683002Y-91633000I-249998J0D01*
G01*
X136382998Y-91633000D01*
G75*
G02*
X136133000Y-91383002I0J249998D01*
G01*
X136133000Y-90557998D01*
G75*
G02*
X136382998Y-90308000I249998J0D01*
G01*
G37*
G36*
G01*
X136382998Y-87183000D02*
X137683002Y-87183000D01*
G75*
G02*
X137933000Y-87432998I0J-249998D01*
G01*
X137933000Y-88258002D01*
G75*
G02*
X137683002Y-88508000I-249998J0D01*
G01*
X136382998Y-88508000D01*
G75*
G02*
X136133000Y-88258002I0J249998D01*
G01*
X136133000Y-87432998D01*
G75*
G02*
X136382998Y-87183000I249998J0D01*
G01*
G37*
%TD*%
M02*
