%TF.GenerationSoftware,KiCad,Pcbnew,5.1.8+dfsg1-1+b1*%
%TF.CreationDate,2021-02-03T12:16:06-06:00*%
%TF.ProjectId,7seg-prototype,37736567-2d70-4726-9f74-6f747970652e,1.0.0*%
%TF.SameCoordinates,Original*%
%TF.FileFunction,Copper,L1,Top*%
%TF.FilePolarity,Positive*%
%FSLAX46Y46*%
G04 Gerber Fmt 4.6, Leading zero omitted, Abs format (unit mm)*
G04 Created by KiCad (PCBNEW 5.1.8+dfsg1-1+b1) date 2021-02-03 12:16:06*
%MOMM*%
%LPD*%
G01*
G04 APERTURE LIST*
%TA.AperFunction,SMDPad,CuDef*%
%ADD10R,0.410000X1.600000*%
%TD*%
%TA.AperFunction,SMDPad,CuDef*%
%ADD11R,0.900000X2.800000*%
%TD*%
%TA.AperFunction,ComponentPad*%
%ADD12C,3.000000*%
%TD*%
%TA.AperFunction,ViaPad*%
%ADD13C,0.635000*%
%TD*%
%TA.AperFunction,Conductor*%
%ADD14C,0.381000*%
%TD*%
%TA.AperFunction,Conductor*%
%ADD15C,0.254000*%
%TD*%
%TA.AperFunction,Conductor*%
%ADD16C,0.100000*%
%TD*%
G04 APERTURE END LIST*
D10*
%TO.P,U3,16*%
%TO.N,+VDC*%
X128460500Y-86753700D03*
%TO.P,U3,15*%
%TO.N,Net-(J3-Pad1)*%
X129095500Y-86753700D03*
%TO.P,U3,14*%
%TO.N,/SEG4*%
X129730500Y-86753700D03*
%TO.P,U3,13*%
%TO.N,/SEG5*%
X130365500Y-86753700D03*
%TO.P,U3,12*%
%TO.N,/SEG6*%
X131000500Y-86753700D03*
%TO.P,U3,11*%
%TO.N,/SEG7*%
X131635500Y-86753700D03*
%TO.P,U3,10*%
%TO.N,/SEG8*%
X132270500Y-86753700D03*
%TO.P,U3,9*%
%TO.N,Net-(C3-Pad1)*%
X132905500Y-86753700D03*
%TO.P,U3,8*%
%TO.N,GND*%
X132905500Y-92062300D03*
%TO.P,U3,7*%
%TO.N,Net-(R2-Pad1)*%
X132270500Y-92062300D03*
%TO.P,U3,6*%
%TO.N,/SEG0*%
X131635500Y-92062300D03*
%TO.P,U3,5*%
%TO.N,/SEG1*%
X131000500Y-92062300D03*
%TO.P,U3,4*%
%TO.N,/SEG2*%
X130365500Y-92062300D03*
%TO.P,U3,3*%
%TO.N,/SEG3*%
X129730500Y-92062300D03*
%TO.P,U3,2*%
%TO.N,Net-(J4-Pad1)*%
X129095500Y-92062300D03*
%TO.P,U3,1*%
%TO.N,Net-(J5-Pad1)*%
X128460500Y-92062300D03*
%TD*%
D11*
%TO.P,D2,10*%
%TO.N,/SEG1*%
X102530000Y-76915000D03*
%TO.P,D2,9*%
%TO.N,/SEG3*%
X103970000Y-76915000D03*
%TO.P,D2,8*%
%TO.N,/SEG2*%
X105410000Y-76915000D03*
%TO.P,D2,7*%
%TO.N,/SEG8*%
X106850000Y-76915000D03*
%TO.P,D2,6*%
%TO.N,/SEG7*%
X108290000Y-76915000D03*
%TO.P,D2,5*%
%TO.N,/SEG0*%
X108290000Y-86915000D03*
%TO.P,D2,4*%
%TO.N,/SEG6*%
X106850000Y-86915000D03*
%TO.P,D2,3*%
%TO.N,/SEG2*%
X105410000Y-86915000D03*
%TO.P,D2,2*%
%TO.N,/SEG5*%
X103970000Y-86915000D03*
%TO.P,D2,1*%
%TO.N,/SEG4*%
X102530000Y-86915000D03*
%TD*%
D12*
%TO.P,J5,1*%
%TO.N,Net-(J5-Pad1)*%
X127000000Y-63500000D03*
%TD*%
%TO.P,J4,1*%
%TO.N,Net-(J4-Pad1)*%
X119380000Y-63500000D03*
%TD*%
%TO.P,J3,1*%
%TO.N,Net-(J3-Pad1)*%
X111760000Y-63500000D03*
%TD*%
%TO.P,J2,1*%
%TO.N,+VDC*%
X83820000Y-63500000D03*
%TD*%
%TO.P,J1,1*%
%TO.N,GND*%
X76200000Y-63500000D03*
%TD*%
D11*
%TO.P,D7,10*%
%TO.N,/SEG1*%
X110150000Y-90965000D03*
%TO.P,D7,9*%
%TO.N,/SEG2*%
X111590000Y-90965000D03*
%TO.P,D7,8*%
%TO.N,/SEG7*%
X113030000Y-90965000D03*
%TO.P,D7,7*%
%TO.N,/SEG8*%
X114470000Y-90965000D03*
%TO.P,D7,6*%
%TO.N,/SEG6*%
X115910000Y-90965000D03*
%TO.P,D7,5*%
%TO.N,/SEG0*%
X115910000Y-100965000D03*
%TO.P,D7,4*%
%TO.N,/SEG5*%
X114470000Y-100965000D03*
%TO.P,D7,3*%
%TO.N,/SEG7*%
X113030000Y-100965000D03*
%TO.P,D7,2*%
%TO.N,/SEG4*%
X111590000Y-100965000D03*
%TO.P,D7,1*%
%TO.N,/SEG3*%
X110150000Y-100965000D03*
%TD*%
%TO.P,D6,10*%
%TO.N,/SEG1*%
X102530000Y-90885000D03*
%TO.P,D6,9*%
%TO.N,/SEG2*%
X103970000Y-90885000D03*
%TO.P,D6,8*%
%TO.N,/SEG6*%
X105410000Y-90885000D03*
%TO.P,D6,7*%
%TO.N,/SEG8*%
X106850000Y-90885000D03*
%TO.P,D6,6*%
%TO.N,/SEG7*%
X108290000Y-90885000D03*
%TO.P,D6,5*%
%TO.N,/SEG0*%
X108290000Y-100885000D03*
%TO.P,D6,4*%
%TO.N,/SEG5*%
X106850000Y-100885000D03*
%TO.P,D6,3*%
%TO.N,/SEG6*%
X105410000Y-100885000D03*
%TO.P,D6,2*%
%TO.N,/SEG4*%
X103970000Y-100885000D03*
%TO.P,D6,1*%
%TO.N,/SEG3*%
X102530000Y-100885000D03*
%TD*%
%TO.P,D5,10*%
%TO.N,/SEG1*%
X94910000Y-90885000D03*
%TO.P,D5,9*%
%TO.N,/SEG2*%
X96350000Y-90885000D03*
%TO.P,D5,8*%
%TO.N,/SEG5*%
X97790000Y-90885000D03*
%TO.P,D5,7*%
%TO.N,/SEG8*%
X99230000Y-90885000D03*
%TO.P,D5,6*%
%TO.N,/SEG7*%
X100670000Y-90885000D03*
%TO.P,D5,5*%
%TO.N,/SEG0*%
X100670000Y-100885000D03*
%TO.P,D5,4*%
%TO.N,/SEG6*%
X99230000Y-100885000D03*
%TO.P,D5,3*%
%TO.N,/SEG5*%
X97790000Y-100885000D03*
%TO.P,D5,2*%
%TO.N,/SEG4*%
X96350000Y-100885000D03*
%TO.P,D5,1*%
%TO.N,/SEG3*%
X94910000Y-100885000D03*
%TD*%
%TO.P,D4,10*%
%TO.N,/SEG1*%
X87290000Y-90885000D03*
%TO.P,D4,9*%
%TO.N,/SEG2*%
X88730000Y-90885000D03*
%TO.P,D4,8*%
%TO.N,/SEG4*%
X90170000Y-90885000D03*
%TO.P,D4,7*%
%TO.N,/SEG8*%
X91610000Y-90885000D03*
%TO.P,D4,6*%
%TO.N,/SEG7*%
X93050000Y-90885000D03*
%TO.P,D4,5*%
%TO.N,/SEG0*%
X93050000Y-100885000D03*
%TO.P,D4,4*%
%TO.N,/SEG6*%
X91610000Y-100885000D03*
%TO.P,D4,3*%
%TO.N,/SEG4*%
X90170000Y-100885000D03*
%TO.P,D4,2*%
%TO.N,/SEG5*%
X88730000Y-100885000D03*
%TO.P,D4,1*%
%TO.N,/SEG3*%
X87290000Y-100885000D03*
%TD*%
%TO.P,D3,10*%
%TO.N,/SEG1*%
X110150000Y-76915000D03*
%TO.P,D3,9*%
%TO.N,/SEG2*%
X111590000Y-76915000D03*
%TO.P,D3,8*%
%TO.N,/SEG3*%
X113030000Y-76915000D03*
%TO.P,D3,7*%
%TO.N,/SEG8*%
X114470000Y-76915000D03*
%TO.P,D3,6*%
%TO.N,/SEG7*%
X115910000Y-76915000D03*
%TO.P,D3,5*%
%TO.N,/SEG0*%
X115910000Y-86915000D03*
%TO.P,D3,4*%
%TO.N,/SEG6*%
X114470000Y-86915000D03*
%TO.P,D3,3*%
%TO.N,/SEG3*%
X113030000Y-86915000D03*
%TO.P,D3,2*%
%TO.N,/SEG5*%
X111590000Y-86915000D03*
%TO.P,D3,1*%
%TO.N,/SEG4*%
X110150000Y-86915000D03*
%TD*%
%TO.P,D1,10*%
%TO.N,/SEG2*%
X94910000Y-76915000D03*
%TO.P,D1,9*%
%TO.N,/SEG3*%
X96350000Y-76915000D03*
%TO.P,D1,8*%
%TO.N,/SEG1*%
X97790000Y-76915000D03*
%TO.P,D1,7*%
%TO.N,/SEG8*%
X99230000Y-76915000D03*
%TO.P,D1,6*%
%TO.N,/SEG7*%
X100670000Y-76915000D03*
%TO.P,D1,5*%
%TO.N,/SEG0*%
X100670000Y-86915000D03*
%TO.P,D1,4*%
%TO.N,/SEG6*%
X99230000Y-86915000D03*
%TO.P,D1,3*%
%TO.N,/SEG1*%
X97790000Y-86915000D03*
%TO.P,D1,2*%
%TO.N,/SEG5*%
X96350000Y-86915000D03*
%TO.P,D1,1*%
%TO.N,/SEG4*%
X94910000Y-86915000D03*
%TD*%
%TO.P,D0,10*%
%TO.N,/SEG2*%
X87290000Y-76915000D03*
%TO.P,D0,9*%
%TO.N,/SEG3*%
X88730000Y-76915000D03*
%TO.P,D0,8*%
%TO.N,/SEG0*%
X90170000Y-76915000D03*
%TO.P,D0,7*%
%TO.N,/SEG8*%
X91610000Y-76915000D03*
%TO.P,D0,6*%
%TO.N,/SEG7*%
X93050000Y-76915000D03*
%TO.P,D0,5*%
%TO.N,/SEG1*%
X93050000Y-86915000D03*
%TO.P,D0,4*%
%TO.N,/SEG6*%
X91610000Y-86915000D03*
%TO.P,D0,3*%
%TO.N,/SEG0*%
X90170000Y-86915000D03*
%TO.P,D0,2*%
%TO.N,/SEG5*%
X88730000Y-86915000D03*
%TO.P,D0,1*%
%TO.N,/SEG4*%
X87290000Y-86915000D03*
%TD*%
%TO.P,C1,2*%
%TO.N,GND*%
%TA.AperFunction,SMDPad,CuDef*%
G36*
G01*
X91070000Y-64150001D02*
X91070000Y-62849999D01*
G75*
G02*
X91319999Y-62600000I249999J0D01*
G01*
X92145001Y-62600000D01*
G75*
G02*
X92395000Y-62849999I0J-249999D01*
G01*
X92395000Y-64150001D01*
G75*
G02*
X92145001Y-64400000I-249999J0D01*
G01*
X91319999Y-64400000D01*
G75*
G02*
X91070000Y-64150001I0J249999D01*
G01*
G37*
%TD.AperFunction*%
%TO.P,C1,1*%
%TO.N,+VDC*%
%TA.AperFunction,SMDPad,CuDef*%
G36*
G01*
X87945000Y-64150001D02*
X87945000Y-62849999D01*
G75*
G02*
X88194999Y-62600000I249999J0D01*
G01*
X89020001Y-62600000D01*
G75*
G02*
X89270000Y-62849999I0J-249999D01*
G01*
X89270000Y-64150001D01*
G75*
G02*
X89020001Y-64400000I-249999J0D01*
G01*
X88194999Y-64400000D01*
G75*
G02*
X87945000Y-64150001I0J249999D01*
G01*
G37*
%TD.AperFunction*%
%TD*%
%TO.P,R2,2*%
%TO.N,GND*%
%TA.AperFunction,SMDPad,CuDef*%
G36*
G01*
X129783000Y-98943000D02*
X129783000Y-100193000D01*
G75*
G02*
X129533000Y-100443000I-250000J0D01*
G01*
X128733000Y-100443000D01*
G75*
G02*
X128483000Y-100193000I0J250000D01*
G01*
X128483000Y-98943000D01*
G75*
G02*
X128733000Y-98693000I250000J0D01*
G01*
X129533000Y-98693000D01*
G75*
G02*
X129783000Y-98943000I0J-250000D01*
G01*
G37*
%TD.AperFunction*%
%TO.P,R2,1*%
%TO.N,Net-(R2-Pad1)*%
%TA.AperFunction,SMDPad,CuDef*%
G36*
G01*
X132883000Y-98943000D02*
X132883000Y-100193000D01*
G75*
G02*
X132633000Y-100443000I-250000J0D01*
G01*
X131833000Y-100443000D01*
G75*
G02*
X131583000Y-100193000I0J250000D01*
G01*
X131583000Y-98943000D01*
G75*
G02*
X131833000Y-98693000I250000J0D01*
G01*
X132633000Y-98693000D01*
G75*
G02*
X132883000Y-98943000I0J-250000D01*
G01*
G37*
%TD.AperFunction*%
%TD*%
%TO.P,C4,2*%
%TO.N,GND*%
%TA.AperFunction,SMDPad,CuDef*%
G36*
G01*
X131583000Y-79898001D02*
X131583000Y-78597999D01*
G75*
G02*
X131832999Y-78348000I249999J0D01*
G01*
X132658001Y-78348000D01*
G75*
G02*
X132908000Y-78597999I0J-249999D01*
G01*
X132908000Y-79898001D01*
G75*
G02*
X132658001Y-80148000I-249999J0D01*
G01*
X131832999Y-80148000D01*
G75*
G02*
X131583000Y-79898001I0J249999D01*
G01*
G37*
%TD.AperFunction*%
%TO.P,C4,1*%
%TO.N,+VDC*%
%TA.AperFunction,SMDPad,CuDef*%
G36*
G01*
X128458000Y-79898001D02*
X128458000Y-78597999D01*
G75*
G02*
X128707999Y-78348000I249999J0D01*
G01*
X129533001Y-78348000D01*
G75*
G02*
X129783000Y-78597999I0J-249999D01*
G01*
X129783000Y-79898001D01*
G75*
G02*
X129533001Y-80148000I-249999J0D01*
G01*
X128707999Y-80148000D01*
G75*
G02*
X128458000Y-79898001I0J249999D01*
G01*
G37*
%TD.AperFunction*%
%TD*%
%TO.P,C3,2*%
%TO.N,GND*%
%TA.AperFunction,SMDPad,CuDef*%
G36*
G01*
X136382999Y-90308000D02*
X137683001Y-90308000D01*
G75*
G02*
X137933000Y-90557999I0J-249999D01*
G01*
X137933000Y-91383001D01*
G75*
G02*
X137683001Y-91633000I-249999J0D01*
G01*
X136382999Y-91633000D01*
G75*
G02*
X136133000Y-91383001I0J249999D01*
G01*
X136133000Y-90557999D01*
G75*
G02*
X136382999Y-90308000I249999J0D01*
G01*
G37*
%TD.AperFunction*%
%TO.P,C3,1*%
%TO.N,Net-(C3-Pad1)*%
%TA.AperFunction,SMDPad,CuDef*%
G36*
G01*
X136382999Y-87183000D02*
X137683001Y-87183000D01*
G75*
G02*
X137933000Y-87432999I0J-249999D01*
G01*
X137933000Y-88258001D01*
G75*
G02*
X137683001Y-88508000I-249999J0D01*
G01*
X136382999Y-88508000D01*
G75*
G02*
X136133000Y-88258001I0J249999D01*
G01*
X136133000Y-87432999D01*
G75*
G02*
X136382999Y-87183000I249999J0D01*
G01*
G37*
%TD.AperFunction*%
%TD*%
D13*
%TO.N,/SEG0*%
X116713000Y-92837000D03*
%TO.N,/SEG8*%
X115189000Y-98933000D03*
X107569000Y-98933000D03*
X99949000Y-98933000D03*
%TO.N,/SEG0*%
X109093000Y-92837000D03*
X101473000Y-92837000D03*
%TO.N,/SEG7*%
X116713000Y-84201000D03*
X109093000Y-84201000D03*
%TO.N,/SEG8*%
X115189000Y-84963000D03*
X107569000Y-84963000D03*
X99949000Y-84963000D03*
%TO.N,+VDC*%
X125603000Y-80264000D03*
%TO.N,/SEG4*%
X87249000Y-81915000D03*
X94996000Y-81915000D03*
X110109000Y-81915000D03*
X102616000Y-81915000D03*
X90170000Y-95885000D03*
X104013000Y-95885000D03*
X96393000Y-95885000D03*
X111633000Y-95885000D03*
X121031000Y-95885000D03*
X121031000Y-81915000D03*
X129667000Y-81915000D03*
%TO.N,/SEG5*%
X88773000Y-82677000D03*
X96393000Y-82677000D03*
X111633000Y-82677000D03*
X104013000Y-82677000D03*
X106807000Y-96647000D03*
X114427000Y-96647000D03*
X97790000Y-96647000D03*
X88773000Y-96647000D03*
X121793000Y-96647000D03*
X121793000Y-82677000D03*
X130314700Y-82677000D03*
%TO.N,/SEG6*%
X91567000Y-83439000D03*
X99314000Y-83439000D03*
X106807000Y-83439000D03*
X114427000Y-83439000D03*
X91567000Y-97409000D03*
X99187000Y-97409000D03*
X105537000Y-97409000D03*
X115951000Y-97409000D03*
X122555000Y-97409000D03*
X122555000Y-83439000D03*
X130937000Y-83439000D03*
%TO.N,/SEG7*%
X93853000Y-84201000D03*
X101473000Y-84201000D03*
X93091000Y-98171000D03*
X113030000Y-98171000D03*
X108331000Y-98171000D03*
X123317000Y-98171000D03*
X123317000Y-84201000D03*
X131699000Y-84201000D03*
X100711000Y-98171000D03*
%TO.N,/SEG8*%
X92329000Y-84963000D03*
X92329000Y-98933000D03*
X124079000Y-98933000D03*
X124079000Y-84963000D03*
X132207000Y-84963000D03*
%TO.N,/SEG0*%
X90170000Y-78867000D03*
X100711000Y-78867000D03*
X115824000Y-78867000D03*
X108204000Y-78867000D03*
X93853000Y-92837000D03*
X117983000Y-78867000D03*
X117983000Y-92837000D03*
X131572000Y-90043000D03*
%TO.N,/SEG1*%
X93091000Y-79629000D03*
X97790000Y-79629000D03*
X110109000Y-79629000D03*
X102489000Y-79629000D03*
X87376000Y-93599000D03*
X94869000Y-93599000D03*
X102616000Y-93599000D03*
X110236000Y-93599000D03*
X118745000Y-93599000D03*
X118745000Y-79629000D03*
X131191000Y-93599000D03*
%TO.N,/SEG2*%
X87376000Y-80391000D03*
X94996000Y-80391000D03*
X111633000Y-80391000D03*
X105410000Y-80391000D03*
X88773000Y-94361000D03*
X96393000Y-94361000D03*
X104140000Y-94361000D03*
X111633000Y-94361000D03*
X119507000Y-94361000D03*
X119507000Y-80391000D03*
X130429000Y-94361000D03*
%TO.N,/SEG3*%
X88773000Y-81153000D03*
X96393000Y-81153000D03*
X113030000Y-81153000D03*
X104013000Y-81153000D03*
X102616000Y-95123000D03*
X87376000Y-95123000D03*
X94869000Y-95123000D03*
X110236000Y-95123000D03*
X120269000Y-95123000D03*
X120269000Y-81153000D03*
X129667000Y-95123000D03*
%TO.N,Net-(J4-Pad1)*%
X129032000Y-89535000D03*
%TO.N,Net-(J5-Pad1)*%
X128524000Y-90297000D03*
%TD*%
D14*
%TO.N,GND*%
X137033000Y-90970500D02*
X135343500Y-90970500D01*
X134251700Y-92062300D02*
X132905500Y-92062300D01*
X135343500Y-90970500D02*
X134251700Y-92062300D01*
%TO.N,/SEG0*%
X115910000Y-99863000D02*
X116713000Y-99060000D01*
X116713000Y-99060000D02*
X116713000Y-92837000D01*
X109093000Y-99060000D02*
X109093000Y-92837000D01*
X108290000Y-99863000D02*
X109093000Y-99060000D01*
X101473000Y-99060000D02*
X101473000Y-92837000D01*
X100670000Y-99863000D02*
X101473000Y-99060000D01*
%TO.N,/SEG8*%
X114470000Y-90885000D02*
X114470000Y-95039000D01*
X115189000Y-95758000D02*
X115189000Y-98933000D01*
X114470000Y-95039000D02*
X115189000Y-95758000D01*
X106850000Y-90885000D02*
X106850000Y-95039000D01*
X107569000Y-95758000D02*
X107569000Y-98933000D01*
X106850000Y-95039000D02*
X107569000Y-95758000D01*
X92329000Y-95758000D02*
X92329000Y-98933000D01*
X91610000Y-90885000D02*
X91610000Y-95039000D01*
X91610000Y-95039000D02*
X92329000Y-95758000D01*
%TO.N,/SEG7*%
X116713000Y-78740000D02*
X116713000Y-84201000D01*
X115910000Y-77937000D02*
X116713000Y-78740000D01*
X109093000Y-78740000D02*
X109093000Y-84201000D01*
X108290000Y-77937000D02*
X109093000Y-78740000D01*
%TO.N,/SEG8*%
X115189000Y-81788000D02*
X115189000Y-84963000D01*
X114470000Y-76915000D02*
X114470000Y-81069000D01*
X114470000Y-81069000D02*
X115189000Y-81788000D01*
X107569000Y-81788000D02*
X107569000Y-84963000D01*
X106850000Y-76915000D02*
X106850000Y-81069000D01*
X106850000Y-81069000D02*
X107569000Y-81788000D01*
X99949000Y-81788000D02*
X99949000Y-84963000D01*
X99230000Y-76915000D02*
X99230000Y-81069000D01*
X99230000Y-81069000D02*
X99949000Y-81788000D01*
%TO.N,+VDC*%
X88607500Y-63500000D02*
X83820000Y-63500000D01*
X128460500Y-83121500D02*
X125603000Y-80264000D01*
X128460500Y-86753700D02*
X128460500Y-83121500D01*
X128104500Y-80264000D02*
X129120500Y-79248000D01*
X125603000Y-80264000D02*
X128104500Y-80264000D01*
%TO.N,Net-(C3-Pad1)*%
X135941200Y-86753700D02*
X137033000Y-87845500D01*
X132905500Y-86753700D02*
X135941200Y-86753700D01*
%TO.N,Net-(R2-Pad1)*%
X132270500Y-99530500D02*
X132233000Y-99568000D01*
X132270500Y-92062300D02*
X132270500Y-99530500D01*
%TO.N,Net-(J3-Pad1)*%
X129095500Y-87947500D02*
X129095500Y-86753700D01*
X125603000Y-88138000D02*
X128905000Y-88138000D01*
X124841000Y-87376000D02*
X125603000Y-88138000D01*
X124841000Y-76581000D02*
X124841000Y-87376000D01*
X128905000Y-88138000D02*
X129095500Y-87947500D01*
X111760000Y-63500000D02*
X124841000Y-76581000D01*
%TO.N,/SEG4*%
X87290000Y-86915000D02*
X87290000Y-81956000D01*
X87290000Y-81956000D02*
X87249000Y-81915000D01*
X94910000Y-82001000D02*
X94996000Y-81915000D01*
X94910000Y-86915000D02*
X94910000Y-82001000D01*
X110150000Y-81956000D02*
X110109000Y-81915000D01*
X110150000Y-86915000D02*
X110150000Y-81956000D01*
X102530000Y-82001000D02*
X102616000Y-81915000D01*
X102530000Y-86915000D02*
X102530000Y-82001000D01*
X90170000Y-90885000D02*
X90170000Y-95885000D01*
X103970000Y-95928000D02*
X104013000Y-95885000D01*
X103970000Y-100885000D02*
X103970000Y-95928000D01*
X90170000Y-100885000D02*
X90170000Y-95885000D01*
X96350000Y-95928000D02*
X96393000Y-95885000D01*
X96350000Y-100885000D02*
X96350000Y-95928000D01*
X111590000Y-95928000D02*
X111633000Y-95885000D01*
X111590000Y-100965000D02*
X111590000Y-95928000D01*
X121031000Y-95885000D02*
X121031000Y-81915000D01*
X129730500Y-81978500D02*
X129667000Y-81915000D01*
X129730500Y-86753700D02*
X129730500Y-81978500D01*
%TO.N,/SEG5*%
X88730000Y-82720000D02*
X88773000Y-82677000D01*
X88730000Y-86915000D02*
X88730000Y-82720000D01*
X96350000Y-82720000D02*
X96393000Y-82677000D01*
X96350000Y-86915000D02*
X96350000Y-82720000D01*
X111590000Y-82720000D02*
X111633000Y-82677000D01*
X111590000Y-86915000D02*
X111590000Y-82720000D01*
X103970000Y-82720000D02*
X104013000Y-82677000D01*
X103970000Y-86915000D02*
X103970000Y-82720000D01*
X106850000Y-100885000D02*
X106850000Y-96690000D01*
X106850000Y-96690000D02*
X106807000Y-96647000D01*
X114470000Y-96690000D02*
X114427000Y-96647000D01*
X114470000Y-100965000D02*
X114470000Y-96690000D01*
X97790000Y-100885000D02*
X97790000Y-96647000D01*
X97790000Y-90885000D02*
X97790000Y-96647000D01*
X88730000Y-96690000D02*
X88773000Y-96647000D01*
X88730000Y-100885000D02*
X88730000Y-96690000D01*
X121793000Y-96647000D02*
X121793000Y-82677000D01*
X130365500Y-86753700D02*
X130365500Y-83629500D01*
X130314700Y-83578700D02*
X130314700Y-82677000D01*
X130365500Y-83629500D02*
X130314700Y-83578700D01*
%TO.N,/SEG6*%
X91610000Y-86915000D02*
X91610000Y-83482000D01*
X91610000Y-83482000D02*
X91567000Y-83439000D01*
X99230000Y-83523000D02*
X99314000Y-83439000D01*
X99230000Y-86915000D02*
X99230000Y-83523000D01*
X106850000Y-83482000D02*
X106807000Y-83439000D01*
X106850000Y-86915000D02*
X106850000Y-83482000D01*
X114470000Y-83482000D02*
X114427000Y-83439000D01*
X114470000Y-86915000D02*
X114470000Y-83482000D01*
X91610000Y-97452000D02*
X91567000Y-97409000D01*
X91610000Y-100885000D02*
X91610000Y-97452000D01*
X99230000Y-97452000D02*
X99187000Y-97409000D01*
X99230000Y-100885000D02*
X99230000Y-97452000D01*
X105410000Y-97536000D02*
X105537000Y-97409000D01*
X105410000Y-100885000D02*
X105410000Y-97536000D01*
X105410000Y-97282000D02*
X105537000Y-97409000D01*
X105410000Y-90885000D02*
X105410000Y-97282000D01*
X115910000Y-97368000D02*
X115951000Y-97409000D01*
X115910000Y-90965000D02*
X115910000Y-97368000D01*
X122555000Y-97409000D02*
X122555000Y-83439000D01*
X131000500Y-83502500D02*
X130937000Y-83439000D01*
X131000500Y-86753700D02*
X131000500Y-83502500D01*
%TO.N,/SEG7*%
X93050000Y-76915000D02*
X93050000Y-78064000D01*
X93853000Y-78867000D02*
X93853000Y-84201000D01*
X93050000Y-78064000D02*
X93853000Y-78867000D01*
X100670000Y-76915000D02*
X100670000Y-77937000D01*
X100670000Y-77937000D02*
X101473000Y-78740000D01*
X101473000Y-78740000D02*
X101473000Y-84201000D01*
X93050000Y-98130000D02*
X93091000Y-98171000D01*
X93050000Y-90885000D02*
X93050000Y-98130000D01*
X113030000Y-90965000D02*
X113030000Y-98171000D01*
X113030000Y-100965000D02*
X113030000Y-98171000D01*
X108290000Y-90885000D02*
X108290000Y-98130000D01*
X108290000Y-98130000D02*
X108331000Y-98171000D01*
X123317000Y-98171000D02*
X123317000Y-84201000D01*
X131622799Y-86740999D02*
X131635500Y-86753700D01*
X131622799Y-84277201D02*
X131622799Y-86740999D01*
X131699000Y-84201000D02*
X131622799Y-84277201D01*
X100670000Y-98130000D02*
X100711000Y-98171000D01*
X100670000Y-90885000D02*
X100670000Y-98130000D01*
%TO.N,/SEG8*%
X91610000Y-76915000D02*
X91610000Y-81069000D01*
X92329000Y-81788000D02*
X92329000Y-84963000D01*
X91610000Y-81069000D02*
X92329000Y-81788000D01*
X99949000Y-95758000D02*
X99949000Y-98933000D01*
X99230000Y-90885000D02*
X99230000Y-95039000D01*
X99230000Y-95039000D02*
X99949000Y-95758000D01*
X124079000Y-98933000D02*
X124079000Y-84963000D01*
X132270500Y-85026500D02*
X132207000Y-84963000D01*
X132270500Y-86753700D02*
X132270500Y-85026500D01*
%TO.N,/SEG0*%
X90170000Y-76915000D02*
X90170000Y-78867000D01*
X90170000Y-86915000D02*
X90170000Y-78867000D01*
X100670000Y-78908000D02*
X100711000Y-78867000D01*
X100670000Y-86915000D02*
X100670000Y-78908000D01*
X115910000Y-78953000D02*
X115824000Y-78867000D01*
X115910000Y-86915000D02*
X115910000Y-78953000D01*
X108290000Y-78953000D02*
X108204000Y-78867000D01*
X108290000Y-86915000D02*
X108290000Y-78953000D01*
X93050000Y-100885000D02*
X93171000Y-100885000D01*
X93050000Y-100885000D02*
X93050000Y-99863000D01*
X93853000Y-99060000D02*
X93853000Y-92837000D01*
X93050000Y-99863000D02*
X93853000Y-99060000D01*
X117983000Y-78867000D02*
X117983000Y-92837000D01*
X131572000Y-91998800D02*
X131635500Y-92062300D01*
X131572000Y-90043000D02*
X131572000Y-91998800D01*
X115910000Y-100965000D02*
X115910000Y-99863000D01*
%TO.N,/SEG1*%
X93050000Y-86915000D02*
X93050000Y-79670000D01*
X93050000Y-79670000D02*
X93091000Y-79629000D01*
X97790000Y-86915000D02*
X97790000Y-79629000D01*
X97790000Y-79629000D02*
X97790000Y-76915000D01*
X110150000Y-79588000D02*
X110109000Y-79629000D01*
X110150000Y-76915000D02*
X110150000Y-79588000D01*
X102530000Y-79588000D02*
X102489000Y-79629000D01*
X102530000Y-76915000D02*
X102530000Y-79588000D01*
X87290000Y-93513000D02*
X87376000Y-93599000D01*
X87290000Y-90885000D02*
X87290000Y-93513000D01*
X94910000Y-93558000D02*
X94869000Y-93599000D01*
X94910000Y-90885000D02*
X94910000Y-93558000D01*
X102530000Y-93513000D02*
X102616000Y-93599000D01*
X102530000Y-90885000D02*
X102530000Y-93513000D01*
X110150000Y-93513000D02*
X110236000Y-93599000D01*
X110150000Y-90965000D02*
X110150000Y-93513000D01*
X118745000Y-93599000D02*
X118745000Y-79629000D01*
X131000500Y-93408500D02*
X131191000Y-93599000D01*
X131000500Y-92062300D02*
X131000500Y-93408500D01*
%TO.N,/SEG2*%
X87290000Y-80305000D02*
X87376000Y-80391000D01*
X87290000Y-76915000D02*
X87290000Y-80305000D01*
X94910000Y-80305000D02*
X94996000Y-80391000D01*
X94910000Y-76915000D02*
X94910000Y-80305000D01*
X111590000Y-80348000D02*
X111633000Y-80391000D01*
X111590000Y-76915000D02*
X111590000Y-80348000D01*
X105410000Y-76915000D02*
X105410000Y-80391000D01*
X105410000Y-86915000D02*
X105410000Y-80391000D01*
X88730000Y-94318000D02*
X88773000Y-94361000D01*
X88730000Y-90885000D02*
X88730000Y-94318000D01*
X96350000Y-94318000D02*
X96393000Y-94361000D01*
X96350000Y-90885000D02*
X96350000Y-94318000D01*
X103970000Y-94191000D02*
X104140000Y-94361000D01*
X103970000Y-90885000D02*
X103970000Y-94191000D01*
X111590000Y-94318000D02*
X111633000Y-94361000D01*
X111590000Y-90965000D02*
X111590000Y-94318000D01*
X119507000Y-94361000D02*
X119507000Y-80391000D01*
X130365500Y-94297500D02*
X130429000Y-94361000D01*
X130365500Y-92062300D02*
X130365500Y-94297500D01*
%TO.N,/SEG3*%
X88730000Y-81110000D02*
X88773000Y-81153000D01*
X88730000Y-76915000D02*
X88730000Y-81110000D01*
X96350000Y-81110000D02*
X96393000Y-81153000D01*
X96350000Y-76915000D02*
X96350000Y-81110000D01*
X113030000Y-86915000D02*
X113030000Y-81153000D01*
X113030000Y-81153000D02*
X113030000Y-76915000D01*
X103970000Y-81110000D02*
X104013000Y-81153000D01*
X103970000Y-76915000D02*
X103970000Y-81110000D01*
X102530000Y-100885000D02*
X102530000Y-95209000D01*
X102530000Y-95209000D02*
X102616000Y-95123000D01*
X87290000Y-95209000D02*
X87376000Y-95123000D01*
X87290000Y-100885000D02*
X87290000Y-95209000D01*
X94910000Y-95164000D02*
X94869000Y-95123000D01*
X94910000Y-100885000D02*
X94910000Y-95164000D01*
X110150000Y-95209000D02*
X110236000Y-95123000D01*
X110150000Y-100965000D02*
X110150000Y-95209000D01*
X120269000Y-95123000D02*
X120269000Y-81153000D01*
X129730500Y-95059500D02*
X129667000Y-95123000D01*
X129730500Y-92062300D02*
X129730500Y-95059500D01*
%TO.N,Net-(J4-Pad1)*%
X129108201Y-89611201D02*
X129032000Y-89535000D01*
X129108201Y-92049599D02*
X129108201Y-89611201D01*
X129095500Y-92062300D02*
X129108201Y-92049599D01*
%TO.N,Net-(J5-Pad1)*%
X128460500Y-92062300D02*
X128460500Y-90360500D01*
X128460500Y-90360500D02*
X128524000Y-90297000D01*
%TD*%
D15*
%TO.N,GND*%
X140704470Y-56614617D02*
X141687898Y-56831739D01*
X142629675Y-57188546D01*
X143510095Y-57677575D01*
X144310687Y-58288569D01*
X145014694Y-59008732D01*
X145607370Y-59822987D01*
X146076296Y-60714269D01*
X146411647Y-61663900D01*
X146607127Y-62655692D01*
X146660000Y-63520164D01*
X146660001Y-114276080D01*
X146585382Y-115304470D01*
X146368262Y-116287896D01*
X146011454Y-117229675D01*
X145522424Y-118110095D01*
X144911435Y-118910684D01*
X144191268Y-119614694D01*
X143377013Y-120207370D01*
X142485731Y-120676296D01*
X141536099Y-121011647D01*
X140544309Y-121207127D01*
X139679835Y-121260000D01*
X63523906Y-121260000D01*
X62495530Y-121185382D01*
X61512104Y-120968262D01*
X60570325Y-120611454D01*
X59689905Y-120122424D01*
X58889316Y-119511435D01*
X58185306Y-118791268D01*
X57592630Y-117977013D01*
X57123704Y-117085731D01*
X56788353Y-116136099D01*
X56592873Y-115144309D01*
X56540000Y-114279835D01*
X56540000Y-114079872D01*
X61265000Y-114079872D01*
X61265000Y-114520128D01*
X61350890Y-114951925D01*
X61519369Y-115358669D01*
X61763962Y-115724729D01*
X62075271Y-116036038D01*
X62441331Y-116280631D01*
X62848075Y-116449110D01*
X63279872Y-116535000D01*
X63720128Y-116535000D01*
X64151925Y-116449110D01*
X64558669Y-116280631D01*
X64924729Y-116036038D01*
X65236038Y-115724729D01*
X65480631Y-115358669D01*
X65649110Y-114951925D01*
X65735000Y-114520128D01*
X65735000Y-114079872D01*
X137465000Y-114079872D01*
X137465000Y-114520128D01*
X137550890Y-114951925D01*
X137719369Y-115358669D01*
X137963962Y-115724729D01*
X138275271Y-116036038D01*
X138641331Y-116280631D01*
X139048075Y-116449110D01*
X139479872Y-116535000D01*
X139920128Y-116535000D01*
X140351925Y-116449110D01*
X140758669Y-116280631D01*
X141124729Y-116036038D01*
X141436038Y-115724729D01*
X141680631Y-115358669D01*
X141849110Y-114951925D01*
X141935000Y-114520128D01*
X141935000Y-114079872D01*
X141849110Y-113648075D01*
X141680631Y-113241331D01*
X141436038Y-112875271D01*
X141124729Y-112563962D01*
X140758669Y-112319369D01*
X140351925Y-112150890D01*
X139920128Y-112065000D01*
X139479872Y-112065000D01*
X139048075Y-112150890D01*
X138641331Y-112319369D01*
X138275271Y-112563962D01*
X137963962Y-112875271D01*
X137719369Y-113241331D01*
X137550890Y-113648075D01*
X137465000Y-114079872D01*
X65735000Y-114079872D01*
X65649110Y-113648075D01*
X65480631Y-113241331D01*
X65236038Y-112875271D01*
X64924729Y-112563962D01*
X64558669Y-112319369D01*
X64151925Y-112150890D01*
X63720128Y-112065000D01*
X63279872Y-112065000D01*
X62848075Y-112150890D01*
X62441331Y-112319369D01*
X62075271Y-112563962D01*
X61763962Y-112875271D01*
X61519369Y-113241331D01*
X61350890Y-113648075D01*
X61265000Y-114079872D01*
X56540000Y-114079872D01*
X56540000Y-75515000D01*
X86201928Y-75515000D01*
X86201928Y-78315000D01*
X86214188Y-78439482D01*
X86250498Y-78559180D01*
X86309463Y-78669494D01*
X86388815Y-78766185D01*
X86464501Y-78828298D01*
X86464501Y-80102551D01*
X86460104Y-80113166D01*
X86423500Y-80297187D01*
X86423500Y-80484813D01*
X86460104Y-80668834D01*
X86531905Y-80842178D01*
X86636145Y-80998184D01*
X86744497Y-81106536D01*
X86641816Y-81175145D01*
X86509145Y-81307816D01*
X86404905Y-81463822D01*
X86333104Y-81637166D01*
X86296500Y-81821187D01*
X86296500Y-82008813D01*
X86333104Y-82192834D01*
X86404905Y-82366178D01*
X86464501Y-82455369D01*
X86464500Y-85001702D01*
X86388815Y-85063815D01*
X86309463Y-85160506D01*
X86250498Y-85270820D01*
X86214188Y-85390518D01*
X86201928Y-85515000D01*
X86201928Y-88315000D01*
X86214188Y-88439482D01*
X86250498Y-88559180D01*
X86309463Y-88669494D01*
X86388815Y-88766185D01*
X86485506Y-88845537D01*
X86587397Y-88900000D01*
X86485506Y-88954463D01*
X86388815Y-89033815D01*
X86309463Y-89130506D01*
X86250498Y-89240820D01*
X86214188Y-89360518D01*
X86201928Y-89485000D01*
X86201928Y-92285000D01*
X86214188Y-92409482D01*
X86250498Y-92529180D01*
X86309463Y-92639494D01*
X86388815Y-92736185D01*
X86464501Y-92798298D01*
X86464501Y-93310551D01*
X86460104Y-93321166D01*
X86423500Y-93505187D01*
X86423500Y-93692813D01*
X86460104Y-93876834D01*
X86531905Y-94050178D01*
X86636145Y-94206184D01*
X86768816Y-94338855D01*
X86801958Y-94361000D01*
X86768816Y-94383145D01*
X86636145Y-94515816D01*
X86531905Y-94671822D01*
X86460104Y-94845166D01*
X86423500Y-95029187D01*
X86423500Y-95216813D01*
X86460104Y-95400834D01*
X86464501Y-95411449D01*
X86464500Y-98971702D01*
X86388815Y-99033815D01*
X86309463Y-99130506D01*
X86250498Y-99240820D01*
X86214188Y-99360518D01*
X86201928Y-99485000D01*
X86201928Y-102285000D01*
X86214188Y-102409482D01*
X86250498Y-102529180D01*
X86309463Y-102639494D01*
X86388815Y-102736185D01*
X86485506Y-102815537D01*
X86595820Y-102874502D01*
X86715518Y-102910812D01*
X86840000Y-102923072D01*
X87740000Y-102923072D01*
X87864482Y-102910812D01*
X87984180Y-102874502D01*
X88010000Y-102860701D01*
X88035820Y-102874502D01*
X88155518Y-102910812D01*
X88280000Y-102923072D01*
X89180000Y-102923072D01*
X89304482Y-102910812D01*
X89424180Y-102874502D01*
X89450000Y-102860701D01*
X89475820Y-102874502D01*
X89595518Y-102910812D01*
X89720000Y-102923072D01*
X90620000Y-102923072D01*
X90744482Y-102910812D01*
X90864180Y-102874502D01*
X90890000Y-102860701D01*
X90915820Y-102874502D01*
X91035518Y-102910812D01*
X91160000Y-102923072D01*
X92060000Y-102923072D01*
X92184482Y-102910812D01*
X92304180Y-102874502D01*
X92330000Y-102860701D01*
X92355820Y-102874502D01*
X92475518Y-102910812D01*
X92600000Y-102923072D01*
X93500000Y-102923072D01*
X93624482Y-102910812D01*
X93744180Y-102874502D01*
X93854494Y-102815537D01*
X93951185Y-102736185D01*
X93980000Y-102701074D01*
X94008815Y-102736185D01*
X94105506Y-102815537D01*
X94215820Y-102874502D01*
X94335518Y-102910812D01*
X94460000Y-102923072D01*
X95360000Y-102923072D01*
X95484482Y-102910812D01*
X95604180Y-102874502D01*
X95630000Y-102860701D01*
X95655820Y-102874502D01*
X95775518Y-102910812D01*
X95900000Y-102923072D01*
X96800000Y-102923072D01*
X96924482Y-102910812D01*
X97044180Y-102874502D01*
X97070000Y-102860701D01*
X97095820Y-102874502D01*
X97215518Y-102910812D01*
X97340000Y-102923072D01*
X98240000Y-102923072D01*
X98364482Y-102910812D01*
X98484180Y-102874502D01*
X98510000Y-102860701D01*
X98535820Y-102874502D01*
X98655518Y-102910812D01*
X98780000Y-102923072D01*
X99680000Y-102923072D01*
X99804482Y-102910812D01*
X99924180Y-102874502D01*
X99950000Y-102860701D01*
X99975820Y-102874502D01*
X100095518Y-102910812D01*
X100220000Y-102923072D01*
X101120000Y-102923072D01*
X101244482Y-102910812D01*
X101364180Y-102874502D01*
X101474494Y-102815537D01*
X101571185Y-102736185D01*
X101600000Y-102701074D01*
X101628815Y-102736185D01*
X101725506Y-102815537D01*
X101835820Y-102874502D01*
X101955518Y-102910812D01*
X102080000Y-102923072D01*
X102980000Y-102923072D01*
X103104482Y-102910812D01*
X103224180Y-102874502D01*
X103250000Y-102860701D01*
X103275820Y-102874502D01*
X103395518Y-102910812D01*
X103520000Y-102923072D01*
X104420000Y-102923072D01*
X104544482Y-102910812D01*
X104664180Y-102874502D01*
X104690000Y-102860701D01*
X104715820Y-102874502D01*
X104835518Y-102910812D01*
X104960000Y-102923072D01*
X105860000Y-102923072D01*
X105984482Y-102910812D01*
X106104180Y-102874502D01*
X106130000Y-102860701D01*
X106155820Y-102874502D01*
X106275518Y-102910812D01*
X106400000Y-102923072D01*
X107300000Y-102923072D01*
X107424482Y-102910812D01*
X107544180Y-102874502D01*
X107570000Y-102860701D01*
X107595820Y-102874502D01*
X107715518Y-102910812D01*
X107840000Y-102923072D01*
X108740000Y-102923072D01*
X108864482Y-102910812D01*
X108984180Y-102874502D01*
X109094494Y-102815537D01*
X109186390Y-102740120D01*
X109248815Y-102816185D01*
X109345506Y-102895537D01*
X109455820Y-102954502D01*
X109575518Y-102990812D01*
X109700000Y-103003072D01*
X110600000Y-103003072D01*
X110724482Y-102990812D01*
X110844180Y-102954502D01*
X110870000Y-102940701D01*
X110895820Y-102954502D01*
X111015518Y-102990812D01*
X111140000Y-103003072D01*
X112040000Y-103003072D01*
X112164482Y-102990812D01*
X112284180Y-102954502D01*
X112310000Y-102940701D01*
X112335820Y-102954502D01*
X112455518Y-102990812D01*
X112580000Y-103003072D01*
X113480000Y-103003072D01*
X113604482Y-102990812D01*
X113724180Y-102954502D01*
X113750000Y-102940701D01*
X113775820Y-102954502D01*
X113895518Y-102990812D01*
X114020000Y-103003072D01*
X114920000Y-103003072D01*
X115044482Y-102990812D01*
X115164180Y-102954502D01*
X115190000Y-102940701D01*
X115215820Y-102954502D01*
X115335518Y-102990812D01*
X115460000Y-103003072D01*
X116360000Y-103003072D01*
X116484482Y-102990812D01*
X116604180Y-102954502D01*
X116714494Y-102895537D01*
X116811185Y-102816185D01*
X116890537Y-102719494D01*
X116949502Y-102609180D01*
X116985812Y-102489482D01*
X116998072Y-102365000D01*
X116998072Y-100443000D01*
X127844928Y-100443000D01*
X127857188Y-100567482D01*
X127893498Y-100687180D01*
X127952463Y-100797494D01*
X128031815Y-100894185D01*
X128128506Y-100973537D01*
X128238820Y-101032502D01*
X128358518Y-101068812D01*
X128483000Y-101081072D01*
X128847250Y-101078000D01*
X129006000Y-100919250D01*
X129006000Y-99695000D01*
X129260000Y-99695000D01*
X129260000Y-100919250D01*
X129418750Y-101078000D01*
X129783000Y-101081072D01*
X129907482Y-101068812D01*
X130027180Y-101032502D01*
X130137494Y-100973537D01*
X130234185Y-100894185D01*
X130313537Y-100797494D01*
X130372502Y-100687180D01*
X130408812Y-100567482D01*
X130421072Y-100443000D01*
X130418000Y-99853750D01*
X130259250Y-99695000D01*
X129260000Y-99695000D01*
X129006000Y-99695000D01*
X128006750Y-99695000D01*
X127848000Y-99853750D01*
X127844928Y-100443000D01*
X116998072Y-100443000D01*
X116998072Y-99942361D01*
X117268040Y-99672393D01*
X117299541Y-99646541D01*
X117386826Y-99540184D01*
X117402698Y-99520844D01*
X117445376Y-99441000D01*
X117479353Y-99377434D01*
X117526556Y-99221826D01*
X117538500Y-99100553D01*
X117538500Y-99100541D01*
X117542493Y-99060001D01*
X117538500Y-99019461D01*
X117538500Y-93683861D01*
X117705166Y-93752896D01*
X117808541Y-93773459D01*
X117829104Y-93876834D01*
X117900905Y-94050178D01*
X118005145Y-94206184D01*
X118137816Y-94338855D01*
X118293822Y-94443095D01*
X118467166Y-94514896D01*
X118570541Y-94535459D01*
X118591104Y-94638834D01*
X118662905Y-94812178D01*
X118767145Y-94968184D01*
X118899816Y-95100855D01*
X119055822Y-95205095D01*
X119229166Y-95276896D01*
X119332541Y-95297459D01*
X119353104Y-95400834D01*
X119424905Y-95574178D01*
X119529145Y-95730184D01*
X119661816Y-95862855D01*
X119817822Y-95967095D01*
X119991166Y-96038896D01*
X120094541Y-96059459D01*
X120115104Y-96162834D01*
X120186905Y-96336178D01*
X120291145Y-96492184D01*
X120423816Y-96624855D01*
X120579822Y-96729095D01*
X120753166Y-96800896D01*
X120856541Y-96821459D01*
X120877104Y-96924834D01*
X120948905Y-97098178D01*
X121053145Y-97254184D01*
X121185816Y-97386855D01*
X121341822Y-97491095D01*
X121515166Y-97562896D01*
X121618541Y-97583459D01*
X121639104Y-97686834D01*
X121710905Y-97860178D01*
X121815145Y-98016184D01*
X121947816Y-98148855D01*
X122103822Y-98253095D01*
X122277166Y-98324896D01*
X122380541Y-98345459D01*
X122401104Y-98448834D01*
X122472905Y-98622178D01*
X122577145Y-98778184D01*
X122709816Y-98910855D01*
X122865822Y-99015095D01*
X123039166Y-99086896D01*
X123142541Y-99107459D01*
X123163104Y-99210834D01*
X123234905Y-99384178D01*
X123339145Y-99540184D01*
X123471816Y-99672855D01*
X123627822Y-99777095D01*
X123801166Y-99848896D01*
X123985187Y-99885500D01*
X124172813Y-99885500D01*
X124356834Y-99848896D01*
X124530178Y-99777095D01*
X124686184Y-99672855D01*
X124818855Y-99540184D01*
X124923095Y-99384178D01*
X124994896Y-99210834D01*
X125031500Y-99026813D01*
X125031500Y-98839187D01*
X125002422Y-98693000D01*
X127844928Y-98693000D01*
X127848000Y-99282250D01*
X128006750Y-99441000D01*
X129006000Y-99441000D01*
X129006000Y-98216750D01*
X129260000Y-98216750D01*
X129260000Y-99441000D01*
X130259250Y-99441000D01*
X130418000Y-99282250D01*
X130421072Y-98693000D01*
X130408812Y-98568518D01*
X130372502Y-98448820D01*
X130313537Y-98338506D01*
X130234185Y-98241815D01*
X130137494Y-98162463D01*
X130027180Y-98103498D01*
X129907482Y-98067188D01*
X129783000Y-98054928D01*
X129418750Y-98058000D01*
X129260000Y-98216750D01*
X129006000Y-98216750D01*
X128847250Y-98058000D01*
X128483000Y-98054928D01*
X128358518Y-98067188D01*
X128238820Y-98103498D01*
X128128506Y-98162463D01*
X128031815Y-98241815D01*
X127952463Y-98338506D01*
X127893498Y-98448820D01*
X127857188Y-98568518D01*
X127844928Y-98693000D01*
X125002422Y-98693000D01*
X124994896Y-98655166D01*
X124923095Y-98481822D01*
X124904500Y-98453993D01*
X124904500Y-88606934D01*
X124990611Y-88693044D01*
X125016459Y-88724541D01*
X125047955Y-88750389D01*
X125047958Y-88750392D01*
X125142157Y-88827699D01*
X125201069Y-88859188D01*
X125285566Y-88904353D01*
X125441174Y-88951556D01*
X125562447Y-88963500D01*
X125562449Y-88963500D01*
X125603000Y-88967494D01*
X125643550Y-88963500D01*
X128268302Y-88963500D01*
X128187905Y-89083822D01*
X128116104Y-89257166D01*
X128079500Y-89441187D01*
X128079500Y-89450139D01*
X128072822Y-89452905D01*
X127916816Y-89557145D01*
X127784145Y-89689816D01*
X127679905Y-89845822D01*
X127608104Y-90019166D01*
X127571500Y-90203187D01*
X127571500Y-90390813D01*
X127608104Y-90574834D01*
X127635001Y-90639769D01*
X127635001Y-91120305D01*
X127629688Y-91137818D01*
X127617428Y-91262300D01*
X127617428Y-92862300D01*
X127629688Y-92986782D01*
X127665998Y-93106480D01*
X127724963Y-93216794D01*
X127804315Y-93313485D01*
X127901006Y-93392837D01*
X128011320Y-93451802D01*
X128131018Y-93488112D01*
X128255500Y-93500372D01*
X128665500Y-93500372D01*
X128778000Y-93489292D01*
X128890500Y-93500372D01*
X128905000Y-93500372D01*
X128905001Y-94548957D01*
X128822905Y-94671822D01*
X128751104Y-94845166D01*
X128714500Y-95029187D01*
X128714500Y-95216813D01*
X128751104Y-95400834D01*
X128822905Y-95574178D01*
X128927145Y-95730184D01*
X129059816Y-95862855D01*
X129215822Y-95967095D01*
X129389166Y-96038896D01*
X129573187Y-96075500D01*
X129760813Y-96075500D01*
X129944834Y-96038896D01*
X130118178Y-95967095D01*
X130274184Y-95862855D01*
X130406855Y-95730184D01*
X130511095Y-95574178D01*
X130582896Y-95400834D01*
X130603459Y-95297459D01*
X130706834Y-95276896D01*
X130880178Y-95205095D01*
X131036184Y-95100855D01*
X131168855Y-94968184D01*
X131273095Y-94812178D01*
X131344896Y-94638834D01*
X131365459Y-94535459D01*
X131445000Y-94519637D01*
X131445001Y-98148264D01*
X131339614Y-98204595D01*
X131205038Y-98315038D01*
X131094595Y-98449614D01*
X131012528Y-98603150D01*
X130961992Y-98769746D01*
X130944928Y-98943000D01*
X130944928Y-100193000D01*
X130961992Y-100366254D01*
X131012528Y-100532850D01*
X131094595Y-100686386D01*
X131205038Y-100820962D01*
X131339614Y-100931405D01*
X131493150Y-101013472D01*
X131659746Y-101064008D01*
X131833000Y-101081072D01*
X132633000Y-101081072D01*
X132806254Y-101064008D01*
X132972850Y-101013472D01*
X133126386Y-100931405D01*
X133260962Y-100820962D01*
X133371405Y-100686386D01*
X133453472Y-100532850D01*
X133504008Y-100366254D01*
X133521072Y-100193000D01*
X133521072Y-98943000D01*
X133504008Y-98769746D01*
X133453472Y-98603150D01*
X133371405Y-98449614D01*
X133260962Y-98315038D01*
X133126386Y-98204595D01*
X133096000Y-98188353D01*
X133096000Y-93451050D01*
X133142250Y-93497300D01*
X133243858Y-93486280D01*
X133363028Y-93448274D01*
X133472494Y-93387749D01*
X133568048Y-93307031D01*
X133646019Y-93209222D01*
X133703411Y-93098081D01*
X133738017Y-92977880D01*
X133748508Y-92853237D01*
X133745500Y-92348050D01*
X133586750Y-92189300D01*
X133113572Y-92189300D01*
X133113572Y-91935300D01*
X133586750Y-91935300D01*
X133745500Y-91776550D01*
X133746354Y-91633000D01*
X135494928Y-91633000D01*
X135507188Y-91757482D01*
X135543498Y-91877180D01*
X135602463Y-91987494D01*
X135681815Y-92084185D01*
X135778506Y-92163537D01*
X135888820Y-92222502D01*
X136008518Y-92258812D01*
X136133000Y-92271072D01*
X136747250Y-92268000D01*
X136906000Y-92109250D01*
X136906000Y-91097500D01*
X137160000Y-91097500D01*
X137160000Y-92109250D01*
X137318750Y-92268000D01*
X137933000Y-92271072D01*
X138057482Y-92258812D01*
X138177180Y-92222502D01*
X138287494Y-92163537D01*
X138384185Y-92084185D01*
X138463537Y-91987494D01*
X138522502Y-91877180D01*
X138558812Y-91757482D01*
X138571072Y-91633000D01*
X138568000Y-91256250D01*
X138409250Y-91097500D01*
X137160000Y-91097500D01*
X136906000Y-91097500D01*
X135656750Y-91097500D01*
X135498000Y-91256250D01*
X135494928Y-91633000D01*
X133746354Y-91633000D01*
X133748508Y-91271363D01*
X133738017Y-91146720D01*
X133703411Y-91026519D01*
X133646019Y-90915378D01*
X133568048Y-90817569D01*
X133472494Y-90736851D01*
X133363028Y-90676326D01*
X133243858Y-90638320D01*
X133142250Y-90627300D01*
X132983500Y-90786050D01*
X132983500Y-90880344D01*
X132926685Y-90811115D01*
X132829994Y-90731763D01*
X132719680Y-90672798D01*
X132711883Y-90670433D01*
X132668750Y-90627300D01*
X132591624Y-90635665D01*
X132475500Y-90624228D01*
X132397500Y-90624228D01*
X132397500Y-90522007D01*
X132416095Y-90494178D01*
X132487896Y-90320834D01*
X132490448Y-90308000D01*
X135494928Y-90308000D01*
X135498000Y-90684750D01*
X135656750Y-90843500D01*
X136906000Y-90843500D01*
X136906000Y-89831750D01*
X137160000Y-89831750D01*
X137160000Y-90843500D01*
X138409250Y-90843500D01*
X138568000Y-90684750D01*
X138571072Y-90308000D01*
X138558812Y-90183518D01*
X138522502Y-90063820D01*
X138463537Y-89953506D01*
X138384185Y-89856815D01*
X138287494Y-89777463D01*
X138177180Y-89718498D01*
X138057482Y-89682188D01*
X137933000Y-89669928D01*
X137318750Y-89673000D01*
X137160000Y-89831750D01*
X136906000Y-89831750D01*
X136747250Y-89673000D01*
X136133000Y-89669928D01*
X136008518Y-89682188D01*
X135888820Y-89718498D01*
X135778506Y-89777463D01*
X135681815Y-89856815D01*
X135602463Y-89953506D01*
X135543498Y-90063820D01*
X135507188Y-90183518D01*
X135494928Y-90308000D01*
X132490448Y-90308000D01*
X132524500Y-90136813D01*
X132524500Y-89949187D01*
X132487896Y-89765166D01*
X132416095Y-89591822D01*
X132311855Y-89435816D01*
X132179184Y-89303145D01*
X132023178Y-89198905D01*
X131849834Y-89127104D01*
X131665813Y-89090500D01*
X131478187Y-89090500D01*
X131294166Y-89127104D01*
X131120822Y-89198905D01*
X130964816Y-89303145D01*
X130832145Y-89435816D01*
X130727905Y-89591822D01*
X130656104Y-89765166D01*
X130619500Y-89949187D01*
X130619500Y-90136813D01*
X130656104Y-90320834D01*
X130727905Y-90494178D01*
X130746500Y-90522008D01*
X130746500Y-90629054D01*
X130683000Y-90635308D01*
X130570500Y-90624228D01*
X130160500Y-90624228D01*
X130048000Y-90635308D01*
X129935500Y-90624228D01*
X129933701Y-90624228D01*
X129933701Y-89847104D01*
X129947896Y-89812834D01*
X129984500Y-89628813D01*
X129984500Y-89441187D01*
X129947896Y-89257166D01*
X129876095Y-89083822D01*
X129771855Y-88927816D01*
X129639184Y-88795145D01*
X129506407Y-88706426D01*
X129517397Y-88693035D01*
X129650539Y-88559893D01*
X129682041Y-88534041D01*
X129785199Y-88408342D01*
X129861853Y-88264934D01*
X129884046Y-88191772D01*
X129935500Y-88191772D01*
X130048000Y-88180692D01*
X130160500Y-88191772D01*
X130570500Y-88191772D01*
X130683000Y-88180692D01*
X130795500Y-88191772D01*
X131205500Y-88191772D01*
X131318000Y-88180692D01*
X131430500Y-88191772D01*
X131840500Y-88191772D01*
X131953000Y-88180692D01*
X132065500Y-88191772D01*
X132475500Y-88191772D01*
X132588000Y-88180692D01*
X132700500Y-88191772D01*
X133110500Y-88191772D01*
X133234982Y-88179512D01*
X133354680Y-88143202D01*
X133464994Y-88084237D01*
X133561685Y-88004885D01*
X133641037Y-87908194D01*
X133700002Y-87797880D01*
X133736312Y-87678182D01*
X133746061Y-87579200D01*
X135494928Y-87579200D01*
X135494928Y-88258001D01*
X135511992Y-88431255D01*
X135562528Y-88597851D01*
X135644595Y-88751387D01*
X135755038Y-88885962D01*
X135889613Y-88996405D01*
X136043149Y-89078472D01*
X136209745Y-89129008D01*
X136382999Y-89146072D01*
X137683001Y-89146072D01*
X137856255Y-89129008D01*
X138022851Y-89078472D01*
X138176387Y-88996405D01*
X138310962Y-88885962D01*
X138421405Y-88751387D01*
X138503472Y-88597851D01*
X138554008Y-88431255D01*
X138571072Y-88258001D01*
X138571072Y-87432999D01*
X138554008Y-87259745D01*
X138503472Y-87093149D01*
X138421405Y-86939613D01*
X138310962Y-86805038D01*
X138176387Y-86694595D01*
X138022851Y-86612528D01*
X137856255Y-86561992D01*
X137683001Y-86544928D01*
X136899860Y-86544928D01*
X136553598Y-86198666D01*
X136527741Y-86167159D01*
X136402042Y-86064001D01*
X136258634Y-85987347D01*
X136103026Y-85940144D01*
X135981753Y-85928200D01*
X135981750Y-85928200D01*
X135941200Y-85924206D01*
X135900650Y-85928200D01*
X133746061Y-85928200D01*
X133736312Y-85829218D01*
X133700002Y-85709520D01*
X133641037Y-85599206D01*
X133561685Y-85502515D01*
X133464994Y-85423163D01*
X133354680Y-85364198D01*
X133234982Y-85327888D01*
X133110500Y-85315628D01*
X133096000Y-85315628D01*
X133096000Y-85305767D01*
X133122896Y-85240834D01*
X133159500Y-85056813D01*
X133159500Y-84869187D01*
X133122896Y-84685166D01*
X133051095Y-84511822D01*
X132946855Y-84355816D01*
X132814184Y-84223145D01*
X132658178Y-84118905D01*
X132651500Y-84116139D01*
X132651500Y-84107187D01*
X132614896Y-83923166D01*
X132543095Y-83749822D01*
X132438855Y-83593816D01*
X132306184Y-83461145D01*
X132150178Y-83356905D01*
X131976834Y-83285104D01*
X131873459Y-83264541D01*
X131852896Y-83161166D01*
X131781095Y-82987822D01*
X131676855Y-82831816D01*
X131544184Y-82699145D01*
X131388178Y-82594905D01*
X131258878Y-82541347D01*
X131230596Y-82399166D01*
X131158795Y-82225822D01*
X131054555Y-82069816D01*
X130921884Y-81937145D01*
X130765878Y-81832905D01*
X130608897Y-81767882D01*
X130582896Y-81637166D01*
X130511095Y-81463822D01*
X130406855Y-81307816D01*
X130274184Y-81175145D01*
X130118178Y-81070905D01*
X129944834Y-80999104D01*
X129760813Y-80962500D01*
X129573187Y-80962500D01*
X129389166Y-80999104D01*
X129215822Y-81070905D01*
X129059816Y-81175145D01*
X128927145Y-81307816D01*
X128822905Y-81463822D01*
X128751104Y-81637166D01*
X128714500Y-81821187D01*
X128714500Y-82008813D01*
X128751104Y-82192834D01*
X128787758Y-82281325D01*
X127595932Y-81089500D01*
X128063950Y-81089500D01*
X128104500Y-81093494D01*
X128145050Y-81089500D01*
X128145053Y-81089500D01*
X128266326Y-81077556D01*
X128421934Y-81030353D01*
X128565342Y-80953699D01*
X128691041Y-80850541D01*
X128716898Y-80819034D01*
X128749860Y-80786072D01*
X129533001Y-80786072D01*
X129706255Y-80769008D01*
X129872851Y-80718472D01*
X130026387Y-80636405D01*
X130160962Y-80525962D01*
X130271405Y-80391387D01*
X130353472Y-80237851D01*
X130380727Y-80148000D01*
X130944928Y-80148000D01*
X130957188Y-80272482D01*
X130993498Y-80392180D01*
X131052463Y-80502494D01*
X131131815Y-80599185D01*
X131228506Y-80678537D01*
X131338820Y-80737502D01*
X131458518Y-80773812D01*
X131583000Y-80786072D01*
X131959750Y-80783000D01*
X132118500Y-80624250D01*
X132118500Y-79375000D01*
X132372500Y-79375000D01*
X132372500Y-80624250D01*
X132531250Y-80783000D01*
X132908000Y-80786072D01*
X133032482Y-80773812D01*
X133152180Y-80737502D01*
X133262494Y-80678537D01*
X133359185Y-80599185D01*
X133438537Y-80502494D01*
X133497502Y-80392180D01*
X133533812Y-80272482D01*
X133546072Y-80148000D01*
X133543000Y-79533750D01*
X133384250Y-79375000D01*
X132372500Y-79375000D01*
X132118500Y-79375000D01*
X131106750Y-79375000D01*
X130948000Y-79533750D01*
X130944928Y-80148000D01*
X130380727Y-80148000D01*
X130404008Y-80071255D01*
X130421072Y-79898001D01*
X130421072Y-78597999D01*
X130404008Y-78424745D01*
X130380728Y-78348000D01*
X130944928Y-78348000D01*
X130948000Y-78962250D01*
X131106750Y-79121000D01*
X132118500Y-79121000D01*
X132118500Y-77871750D01*
X132372500Y-77871750D01*
X132372500Y-79121000D01*
X133384250Y-79121000D01*
X133543000Y-78962250D01*
X133546072Y-78348000D01*
X133533812Y-78223518D01*
X133497502Y-78103820D01*
X133438537Y-77993506D01*
X133359185Y-77896815D01*
X133262494Y-77817463D01*
X133152180Y-77758498D01*
X133032482Y-77722188D01*
X132908000Y-77709928D01*
X132531250Y-77713000D01*
X132372500Y-77871750D01*
X132118500Y-77871750D01*
X131959750Y-77713000D01*
X131583000Y-77709928D01*
X131458518Y-77722188D01*
X131338820Y-77758498D01*
X131228506Y-77817463D01*
X131131815Y-77896815D01*
X131052463Y-77993506D01*
X130993498Y-78103820D01*
X130957188Y-78223518D01*
X130944928Y-78348000D01*
X130380728Y-78348000D01*
X130353472Y-78258149D01*
X130271405Y-78104613D01*
X130160962Y-77970038D01*
X130026387Y-77859595D01*
X129872851Y-77777528D01*
X129706255Y-77726992D01*
X129533001Y-77709928D01*
X128707999Y-77709928D01*
X128534745Y-77726992D01*
X128368149Y-77777528D01*
X128214613Y-77859595D01*
X128080038Y-77970038D01*
X127969595Y-78104613D01*
X127887528Y-78258149D01*
X127836992Y-78424745D01*
X127819928Y-78597999D01*
X127819928Y-79381140D01*
X127762568Y-79438500D01*
X126082007Y-79438500D01*
X126054178Y-79419905D01*
X125880834Y-79348104D01*
X125696813Y-79311500D01*
X125666500Y-79311500D01*
X125666500Y-76621550D01*
X125670494Y-76581000D01*
X125666500Y-76540447D01*
X125654556Y-76419174D01*
X125607353Y-76263566D01*
X125530700Y-76120159D01*
X125530699Y-76120157D01*
X125453392Y-76025958D01*
X125453389Y-76025955D01*
X125427541Y-75994459D01*
X125396046Y-75968612D01*
X113735991Y-64308559D01*
X113812953Y-64122756D01*
X113895000Y-63710279D01*
X113895000Y-63289721D01*
X117245000Y-63289721D01*
X117245000Y-63710279D01*
X117327047Y-64122756D01*
X117487988Y-64511302D01*
X117721637Y-64860983D01*
X118019017Y-65158363D01*
X118368698Y-65392012D01*
X118757244Y-65552953D01*
X119169721Y-65635000D01*
X119590279Y-65635000D01*
X120002756Y-65552953D01*
X120391302Y-65392012D01*
X120740983Y-65158363D01*
X121038363Y-64860983D01*
X121272012Y-64511302D01*
X121432953Y-64122756D01*
X121515000Y-63710279D01*
X121515000Y-63289721D01*
X124865000Y-63289721D01*
X124865000Y-63710279D01*
X124947047Y-64122756D01*
X125107988Y-64511302D01*
X125341637Y-64860983D01*
X125639017Y-65158363D01*
X125988698Y-65392012D01*
X126377244Y-65552953D01*
X126789721Y-65635000D01*
X127210279Y-65635000D01*
X127622756Y-65552953D01*
X128011302Y-65392012D01*
X128360983Y-65158363D01*
X128658363Y-64860983D01*
X128892012Y-64511302D01*
X129052953Y-64122756D01*
X129135000Y-63710279D01*
X129135000Y-63289721D01*
X129133041Y-63279872D01*
X137465000Y-63279872D01*
X137465000Y-63720128D01*
X137550890Y-64151925D01*
X137719369Y-64558669D01*
X137963962Y-64924729D01*
X138275271Y-65236038D01*
X138641331Y-65480631D01*
X139048075Y-65649110D01*
X139479872Y-65735000D01*
X139920128Y-65735000D01*
X140351925Y-65649110D01*
X140758669Y-65480631D01*
X141124729Y-65236038D01*
X141436038Y-64924729D01*
X141680631Y-64558669D01*
X141849110Y-64151925D01*
X141935000Y-63720128D01*
X141935000Y-63279872D01*
X141849110Y-62848075D01*
X141680631Y-62441331D01*
X141436038Y-62075271D01*
X141124729Y-61763962D01*
X140758669Y-61519369D01*
X140351925Y-61350890D01*
X139920128Y-61265000D01*
X139479872Y-61265000D01*
X139048075Y-61350890D01*
X138641331Y-61519369D01*
X138275271Y-61763962D01*
X137963962Y-62075271D01*
X137719369Y-62441331D01*
X137550890Y-62848075D01*
X137465000Y-63279872D01*
X129133041Y-63279872D01*
X129052953Y-62877244D01*
X128892012Y-62488698D01*
X128658363Y-62139017D01*
X128360983Y-61841637D01*
X128011302Y-61607988D01*
X127622756Y-61447047D01*
X127210279Y-61365000D01*
X126789721Y-61365000D01*
X126377244Y-61447047D01*
X125988698Y-61607988D01*
X125639017Y-61841637D01*
X125341637Y-62139017D01*
X125107988Y-62488698D01*
X124947047Y-62877244D01*
X124865000Y-63289721D01*
X121515000Y-63289721D01*
X121432953Y-62877244D01*
X121272012Y-62488698D01*
X121038363Y-62139017D01*
X120740983Y-61841637D01*
X120391302Y-61607988D01*
X120002756Y-61447047D01*
X119590279Y-61365000D01*
X119169721Y-61365000D01*
X118757244Y-61447047D01*
X118368698Y-61607988D01*
X118019017Y-61841637D01*
X117721637Y-62139017D01*
X117487988Y-62488698D01*
X117327047Y-62877244D01*
X117245000Y-63289721D01*
X113895000Y-63289721D01*
X113812953Y-62877244D01*
X113652012Y-62488698D01*
X113418363Y-62139017D01*
X113120983Y-61841637D01*
X112771302Y-61607988D01*
X112382756Y-61447047D01*
X111970279Y-61365000D01*
X111549721Y-61365000D01*
X111137244Y-61447047D01*
X110748698Y-61607988D01*
X110399017Y-61841637D01*
X110101637Y-62139017D01*
X109867988Y-62488698D01*
X109707047Y-62877244D01*
X109625000Y-63289721D01*
X109625000Y-63710279D01*
X109707047Y-64122756D01*
X109867988Y-64511302D01*
X110101637Y-64860983D01*
X110399017Y-65158363D01*
X110748698Y-65392012D01*
X111137244Y-65552953D01*
X111549721Y-65635000D01*
X111970279Y-65635000D01*
X112382756Y-65552953D01*
X112568559Y-65475991D01*
X124015500Y-76922934D01*
X124015501Y-83552462D01*
X123924184Y-83461145D01*
X123768178Y-83356905D01*
X123594834Y-83285104D01*
X123491459Y-83264541D01*
X123470896Y-83161166D01*
X123399095Y-82987822D01*
X123294855Y-82831816D01*
X123162184Y-82699145D01*
X123006178Y-82594905D01*
X122832834Y-82523104D01*
X122729459Y-82502541D01*
X122708896Y-82399166D01*
X122637095Y-82225822D01*
X122532855Y-82069816D01*
X122400184Y-81937145D01*
X122244178Y-81832905D01*
X122070834Y-81761104D01*
X121967459Y-81740541D01*
X121946896Y-81637166D01*
X121875095Y-81463822D01*
X121770855Y-81307816D01*
X121638184Y-81175145D01*
X121482178Y-81070905D01*
X121308834Y-80999104D01*
X121205459Y-80978541D01*
X121184896Y-80875166D01*
X121113095Y-80701822D01*
X121008855Y-80545816D01*
X120876184Y-80413145D01*
X120720178Y-80308905D01*
X120546834Y-80237104D01*
X120443459Y-80216541D01*
X120422896Y-80113166D01*
X120351095Y-79939822D01*
X120246855Y-79783816D01*
X120114184Y-79651145D01*
X119958178Y-79546905D01*
X119784834Y-79475104D01*
X119681459Y-79454541D01*
X119660896Y-79351166D01*
X119589095Y-79177822D01*
X119484855Y-79021816D01*
X119352184Y-78889145D01*
X119196178Y-78784905D01*
X119022834Y-78713104D01*
X118919459Y-78692541D01*
X118898896Y-78589166D01*
X118827095Y-78415822D01*
X118722855Y-78259816D01*
X118590184Y-78127145D01*
X118434178Y-78022905D01*
X118260834Y-77951104D01*
X118076813Y-77914500D01*
X117889187Y-77914500D01*
X117705166Y-77951104D01*
X117531822Y-78022905D01*
X117375816Y-78127145D01*
X117322061Y-78180900D01*
X117299541Y-78153459D01*
X117268040Y-78127607D01*
X116998072Y-77857639D01*
X116998072Y-75515000D01*
X116985812Y-75390518D01*
X116949502Y-75270820D01*
X116890537Y-75160506D01*
X116811185Y-75063815D01*
X116714494Y-74984463D01*
X116604180Y-74925498D01*
X116484482Y-74889188D01*
X116360000Y-74876928D01*
X115460000Y-74876928D01*
X115335518Y-74889188D01*
X115215820Y-74925498D01*
X115190000Y-74939299D01*
X115164180Y-74925498D01*
X115044482Y-74889188D01*
X114920000Y-74876928D01*
X114020000Y-74876928D01*
X113895518Y-74889188D01*
X113775820Y-74925498D01*
X113750000Y-74939299D01*
X113724180Y-74925498D01*
X113604482Y-74889188D01*
X113480000Y-74876928D01*
X112580000Y-74876928D01*
X112455518Y-74889188D01*
X112335820Y-74925498D01*
X112310000Y-74939299D01*
X112284180Y-74925498D01*
X112164482Y-74889188D01*
X112040000Y-74876928D01*
X111140000Y-74876928D01*
X111015518Y-74889188D01*
X110895820Y-74925498D01*
X110870000Y-74939299D01*
X110844180Y-74925498D01*
X110724482Y-74889188D01*
X110600000Y-74876928D01*
X109700000Y-74876928D01*
X109575518Y-74889188D01*
X109455820Y-74925498D01*
X109345506Y-74984463D01*
X109248815Y-75063815D01*
X109220000Y-75098926D01*
X109191185Y-75063815D01*
X109094494Y-74984463D01*
X108984180Y-74925498D01*
X108864482Y-74889188D01*
X108740000Y-74876928D01*
X107840000Y-74876928D01*
X107715518Y-74889188D01*
X107595820Y-74925498D01*
X107570000Y-74939299D01*
X107544180Y-74925498D01*
X107424482Y-74889188D01*
X107300000Y-74876928D01*
X106400000Y-74876928D01*
X106275518Y-74889188D01*
X106155820Y-74925498D01*
X106130000Y-74939299D01*
X106104180Y-74925498D01*
X105984482Y-74889188D01*
X105860000Y-74876928D01*
X104960000Y-74876928D01*
X104835518Y-74889188D01*
X104715820Y-74925498D01*
X104690000Y-74939299D01*
X104664180Y-74925498D01*
X104544482Y-74889188D01*
X104420000Y-74876928D01*
X103520000Y-74876928D01*
X103395518Y-74889188D01*
X103275820Y-74925498D01*
X103250000Y-74939299D01*
X103224180Y-74925498D01*
X103104482Y-74889188D01*
X102980000Y-74876928D01*
X102080000Y-74876928D01*
X101955518Y-74889188D01*
X101835820Y-74925498D01*
X101725506Y-74984463D01*
X101628815Y-75063815D01*
X101600000Y-75098926D01*
X101571185Y-75063815D01*
X101474494Y-74984463D01*
X101364180Y-74925498D01*
X101244482Y-74889188D01*
X101120000Y-74876928D01*
X100220000Y-74876928D01*
X100095518Y-74889188D01*
X99975820Y-74925498D01*
X99950000Y-74939299D01*
X99924180Y-74925498D01*
X99804482Y-74889188D01*
X99680000Y-74876928D01*
X98780000Y-74876928D01*
X98655518Y-74889188D01*
X98535820Y-74925498D01*
X98510000Y-74939299D01*
X98484180Y-74925498D01*
X98364482Y-74889188D01*
X98240000Y-74876928D01*
X97340000Y-74876928D01*
X97215518Y-74889188D01*
X97095820Y-74925498D01*
X97070000Y-74939299D01*
X97044180Y-74925498D01*
X96924482Y-74889188D01*
X96800000Y-74876928D01*
X95900000Y-74876928D01*
X95775518Y-74889188D01*
X95655820Y-74925498D01*
X95630000Y-74939299D01*
X95604180Y-74925498D01*
X95484482Y-74889188D01*
X95360000Y-74876928D01*
X94460000Y-74876928D01*
X94335518Y-74889188D01*
X94215820Y-74925498D01*
X94105506Y-74984463D01*
X94008815Y-75063815D01*
X93980000Y-75098926D01*
X93951185Y-75063815D01*
X93854494Y-74984463D01*
X93744180Y-74925498D01*
X93624482Y-74889188D01*
X93500000Y-74876928D01*
X92600000Y-74876928D01*
X92475518Y-74889188D01*
X92355820Y-74925498D01*
X92330000Y-74939299D01*
X92304180Y-74925498D01*
X92184482Y-74889188D01*
X92060000Y-74876928D01*
X91160000Y-74876928D01*
X91035518Y-74889188D01*
X90915820Y-74925498D01*
X90890000Y-74939299D01*
X90864180Y-74925498D01*
X90744482Y-74889188D01*
X90620000Y-74876928D01*
X89720000Y-74876928D01*
X89595518Y-74889188D01*
X89475820Y-74925498D01*
X89450000Y-74939299D01*
X89424180Y-74925498D01*
X89304482Y-74889188D01*
X89180000Y-74876928D01*
X88280000Y-74876928D01*
X88155518Y-74889188D01*
X88035820Y-74925498D01*
X88010000Y-74939299D01*
X87984180Y-74925498D01*
X87864482Y-74889188D01*
X87740000Y-74876928D01*
X86840000Y-74876928D01*
X86715518Y-74889188D01*
X86595820Y-74925498D01*
X86485506Y-74984463D01*
X86388815Y-75063815D01*
X86309463Y-75160506D01*
X86250498Y-75270820D01*
X86214188Y-75390518D01*
X86201928Y-75515000D01*
X56540000Y-75515000D01*
X56540000Y-63523920D01*
X56557707Y-63279872D01*
X61265000Y-63279872D01*
X61265000Y-63720128D01*
X61350890Y-64151925D01*
X61519369Y-64558669D01*
X61763962Y-64924729D01*
X62075271Y-65236038D01*
X62441331Y-65480631D01*
X62848075Y-65649110D01*
X63279872Y-65735000D01*
X63720128Y-65735000D01*
X64151925Y-65649110D01*
X64558669Y-65480631D01*
X64924729Y-65236038D01*
X65169114Y-64991653D01*
X74887952Y-64991653D01*
X75043962Y-65307214D01*
X75418745Y-65498020D01*
X75823551Y-65612044D01*
X76242824Y-65644902D01*
X76660451Y-65595334D01*
X77060383Y-65465243D01*
X77356038Y-65307214D01*
X77512048Y-64991653D01*
X76200000Y-63679605D01*
X74887952Y-64991653D01*
X65169114Y-64991653D01*
X65236038Y-64924729D01*
X65480631Y-64558669D01*
X65649110Y-64151925D01*
X65735000Y-63720128D01*
X65735000Y-63542824D01*
X74055098Y-63542824D01*
X74104666Y-63960451D01*
X74234757Y-64360383D01*
X74392786Y-64656038D01*
X74708347Y-64812048D01*
X76020395Y-63500000D01*
X76379605Y-63500000D01*
X77691653Y-64812048D01*
X78007214Y-64656038D01*
X78198020Y-64281255D01*
X78312044Y-63876449D01*
X78344902Y-63457176D01*
X78325027Y-63289721D01*
X81685000Y-63289721D01*
X81685000Y-63710279D01*
X81767047Y-64122756D01*
X81927988Y-64511302D01*
X82161637Y-64860983D01*
X82459017Y-65158363D01*
X82808698Y-65392012D01*
X83197244Y-65552953D01*
X83609721Y-65635000D01*
X84030279Y-65635000D01*
X84442756Y-65552953D01*
X84831302Y-65392012D01*
X85180983Y-65158363D01*
X85478363Y-64860983D01*
X85712012Y-64511302D01*
X85788974Y-64325500D01*
X87324673Y-64325500D01*
X87374528Y-64489851D01*
X87456595Y-64643387D01*
X87567038Y-64777962D01*
X87701613Y-64888405D01*
X87855149Y-64970472D01*
X88021745Y-65021008D01*
X88194999Y-65038072D01*
X89020001Y-65038072D01*
X89193255Y-65021008D01*
X89359851Y-64970472D01*
X89513387Y-64888405D01*
X89647962Y-64777962D01*
X89758405Y-64643387D01*
X89840472Y-64489851D01*
X89867727Y-64400000D01*
X90431928Y-64400000D01*
X90444188Y-64524482D01*
X90480498Y-64644180D01*
X90539463Y-64754494D01*
X90618815Y-64851185D01*
X90715506Y-64930537D01*
X90825820Y-64989502D01*
X90945518Y-65025812D01*
X91070000Y-65038072D01*
X91446750Y-65035000D01*
X91605500Y-64876250D01*
X91605500Y-63627000D01*
X91859500Y-63627000D01*
X91859500Y-64876250D01*
X92018250Y-65035000D01*
X92395000Y-65038072D01*
X92519482Y-65025812D01*
X92639180Y-64989502D01*
X92749494Y-64930537D01*
X92846185Y-64851185D01*
X92925537Y-64754494D01*
X92984502Y-64644180D01*
X93020812Y-64524482D01*
X93033072Y-64400000D01*
X93030000Y-63785750D01*
X92871250Y-63627000D01*
X91859500Y-63627000D01*
X91605500Y-63627000D01*
X90593750Y-63627000D01*
X90435000Y-63785750D01*
X90431928Y-64400000D01*
X89867727Y-64400000D01*
X89891008Y-64323255D01*
X89908072Y-64150001D01*
X89908072Y-62849999D01*
X89891008Y-62676745D01*
X89867728Y-62600000D01*
X90431928Y-62600000D01*
X90435000Y-63214250D01*
X90593750Y-63373000D01*
X91605500Y-63373000D01*
X91605500Y-62123750D01*
X91859500Y-62123750D01*
X91859500Y-63373000D01*
X92871250Y-63373000D01*
X93030000Y-63214250D01*
X93033072Y-62600000D01*
X93020812Y-62475518D01*
X92984502Y-62355820D01*
X92925537Y-62245506D01*
X92846185Y-62148815D01*
X92749494Y-62069463D01*
X92639180Y-62010498D01*
X92519482Y-61974188D01*
X92395000Y-61961928D01*
X92018250Y-61965000D01*
X91859500Y-62123750D01*
X91605500Y-62123750D01*
X91446750Y-61965000D01*
X91070000Y-61961928D01*
X90945518Y-61974188D01*
X90825820Y-62010498D01*
X90715506Y-62069463D01*
X90618815Y-62148815D01*
X90539463Y-62245506D01*
X90480498Y-62355820D01*
X90444188Y-62475518D01*
X90431928Y-62600000D01*
X89867728Y-62600000D01*
X89840472Y-62510149D01*
X89758405Y-62356613D01*
X89647962Y-62222038D01*
X89513387Y-62111595D01*
X89359851Y-62029528D01*
X89193255Y-61978992D01*
X89020001Y-61961928D01*
X88194999Y-61961928D01*
X88021745Y-61978992D01*
X87855149Y-62029528D01*
X87701613Y-62111595D01*
X87567038Y-62222038D01*
X87456595Y-62356613D01*
X87374528Y-62510149D01*
X87324673Y-62674500D01*
X85788974Y-62674500D01*
X85712012Y-62488698D01*
X85478363Y-62139017D01*
X85180983Y-61841637D01*
X84831302Y-61607988D01*
X84442756Y-61447047D01*
X84030279Y-61365000D01*
X83609721Y-61365000D01*
X83197244Y-61447047D01*
X82808698Y-61607988D01*
X82459017Y-61841637D01*
X82161637Y-62139017D01*
X81927988Y-62488698D01*
X81767047Y-62877244D01*
X81685000Y-63289721D01*
X78325027Y-63289721D01*
X78295334Y-63039549D01*
X78165243Y-62639617D01*
X78007214Y-62343962D01*
X77691653Y-62187952D01*
X76379605Y-63500000D01*
X76020395Y-63500000D01*
X74708347Y-62187952D01*
X74392786Y-62343962D01*
X74201980Y-62718745D01*
X74087956Y-63123551D01*
X74055098Y-63542824D01*
X65735000Y-63542824D01*
X65735000Y-63279872D01*
X65649110Y-62848075D01*
X65480631Y-62441331D01*
X65236038Y-62075271D01*
X65169114Y-62008347D01*
X74887952Y-62008347D01*
X76200000Y-63320395D01*
X77512048Y-62008347D01*
X77356038Y-61692786D01*
X76981255Y-61501980D01*
X76576449Y-61387956D01*
X76157176Y-61355098D01*
X75739549Y-61404666D01*
X75339617Y-61534757D01*
X75043962Y-61692786D01*
X74887952Y-62008347D01*
X65169114Y-62008347D01*
X64924729Y-61763962D01*
X64558669Y-61519369D01*
X64151925Y-61350890D01*
X63720128Y-61265000D01*
X63279872Y-61265000D01*
X62848075Y-61350890D01*
X62441331Y-61519369D01*
X62075271Y-61763962D01*
X61763962Y-62075271D01*
X61519369Y-62441331D01*
X61350890Y-62848075D01*
X61265000Y-63279872D01*
X56557707Y-63279872D01*
X56614617Y-62495530D01*
X56831739Y-61512102D01*
X57188546Y-60570325D01*
X57677575Y-59689905D01*
X58288569Y-58889313D01*
X59008732Y-58185306D01*
X59822987Y-57592630D01*
X60714269Y-57123704D01*
X61663900Y-56788353D01*
X62655692Y-56592873D01*
X63520164Y-56540000D01*
X139676080Y-56540000D01*
X140704470Y-56614617D01*
%TA.AperFunction,Conductor*%
D16*
G36*
X140704470Y-56614617D02*
G01*
X141687898Y-56831739D01*
X142629675Y-57188546D01*
X143510095Y-57677575D01*
X144310687Y-58288569D01*
X145014694Y-59008732D01*
X145607370Y-59822987D01*
X146076296Y-60714269D01*
X146411647Y-61663900D01*
X146607127Y-62655692D01*
X146660000Y-63520164D01*
X146660001Y-114276080D01*
X146585382Y-115304470D01*
X146368262Y-116287896D01*
X146011454Y-117229675D01*
X145522424Y-118110095D01*
X144911435Y-118910684D01*
X144191268Y-119614694D01*
X143377013Y-120207370D01*
X142485731Y-120676296D01*
X141536099Y-121011647D01*
X140544309Y-121207127D01*
X139679835Y-121260000D01*
X63523906Y-121260000D01*
X62495530Y-121185382D01*
X61512104Y-120968262D01*
X60570325Y-120611454D01*
X59689905Y-120122424D01*
X58889316Y-119511435D01*
X58185306Y-118791268D01*
X57592630Y-117977013D01*
X57123704Y-117085731D01*
X56788353Y-116136099D01*
X56592873Y-115144309D01*
X56540000Y-114279835D01*
X56540000Y-114079872D01*
X61265000Y-114079872D01*
X61265000Y-114520128D01*
X61350890Y-114951925D01*
X61519369Y-115358669D01*
X61763962Y-115724729D01*
X62075271Y-116036038D01*
X62441331Y-116280631D01*
X62848075Y-116449110D01*
X63279872Y-116535000D01*
X63720128Y-116535000D01*
X64151925Y-116449110D01*
X64558669Y-116280631D01*
X64924729Y-116036038D01*
X65236038Y-115724729D01*
X65480631Y-115358669D01*
X65649110Y-114951925D01*
X65735000Y-114520128D01*
X65735000Y-114079872D01*
X137465000Y-114079872D01*
X137465000Y-114520128D01*
X137550890Y-114951925D01*
X137719369Y-115358669D01*
X137963962Y-115724729D01*
X138275271Y-116036038D01*
X138641331Y-116280631D01*
X139048075Y-116449110D01*
X139479872Y-116535000D01*
X139920128Y-116535000D01*
X140351925Y-116449110D01*
X140758669Y-116280631D01*
X141124729Y-116036038D01*
X141436038Y-115724729D01*
X141680631Y-115358669D01*
X141849110Y-114951925D01*
X141935000Y-114520128D01*
X141935000Y-114079872D01*
X141849110Y-113648075D01*
X141680631Y-113241331D01*
X141436038Y-112875271D01*
X141124729Y-112563962D01*
X140758669Y-112319369D01*
X140351925Y-112150890D01*
X139920128Y-112065000D01*
X139479872Y-112065000D01*
X139048075Y-112150890D01*
X138641331Y-112319369D01*
X138275271Y-112563962D01*
X137963962Y-112875271D01*
X137719369Y-113241331D01*
X137550890Y-113648075D01*
X137465000Y-114079872D01*
X65735000Y-114079872D01*
X65649110Y-113648075D01*
X65480631Y-113241331D01*
X65236038Y-112875271D01*
X64924729Y-112563962D01*
X64558669Y-112319369D01*
X64151925Y-112150890D01*
X63720128Y-112065000D01*
X63279872Y-112065000D01*
X62848075Y-112150890D01*
X62441331Y-112319369D01*
X62075271Y-112563962D01*
X61763962Y-112875271D01*
X61519369Y-113241331D01*
X61350890Y-113648075D01*
X61265000Y-114079872D01*
X56540000Y-114079872D01*
X56540000Y-75515000D01*
X86201928Y-75515000D01*
X86201928Y-78315000D01*
X86214188Y-78439482D01*
X86250498Y-78559180D01*
X86309463Y-78669494D01*
X86388815Y-78766185D01*
X86464501Y-78828298D01*
X86464501Y-80102551D01*
X86460104Y-80113166D01*
X86423500Y-80297187D01*
X86423500Y-80484813D01*
X86460104Y-80668834D01*
X86531905Y-80842178D01*
X86636145Y-80998184D01*
X86744497Y-81106536D01*
X86641816Y-81175145D01*
X86509145Y-81307816D01*
X86404905Y-81463822D01*
X86333104Y-81637166D01*
X86296500Y-81821187D01*
X86296500Y-82008813D01*
X86333104Y-82192834D01*
X86404905Y-82366178D01*
X86464501Y-82455369D01*
X86464500Y-85001702D01*
X86388815Y-85063815D01*
X86309463Y-85160506D01*
X86250498Y-85270820D01*
X86214188Y-85390518D01*
X86201928Y-85515000D01*
X86201928Y-88315000D01*
X86214188Y-88439482D01*
X86250498Y-88559180D01*
X86309463Y-88669494D01*
X86388815Y-88766185D01*
X86485506Y-88845537D01*
X86587397Y-88900000D01*
X86485506Y-88954463D01*
X86388815Y-89033815D01*
X86309463Y-89130506D01*
X86250498Y-89240820D01*
X86214188Y-89360518D01*
X86201928Y-89485000D01*
X86201928Y-92285000D01*
X86214188Y-92409482D01*
X86250498Y-92529180D01*
X86309463Y-92639494D01*
X86388815Y-92736185D01*
X86464501Y-92798298D01*
X86464501Y-93310551D01*
X86460104Y-93321166D01*
X86423500Y-93505187D01*
X86423500Y-93692813D01*
X86460104Y-93876834D01*
X86531905Y-94050178D01*
X86636145Y-94206184D01*
X86768816Y-94338855D01*
X86801958Y-94361000D01*
X86768816Y-94383145D01*
X86636145Y-94515816D01*
X86531905Y-94671822D01*
X86460104Y-94845166D01*
X86423500Y-95029187D01*
X86423500Y-95216813D01*
X86460104Y-95400834D01*
X86464501Y-95411449D01*
X86464500Y-98971702D01*
X86388815Y-99033815D01*
X86309463Y-99130506D01*
X86250498Y-99240820D01*
X86214188Y-99360518D01*
X86201928Y-99485000D01*
X86201928Y-102285000D01*
X86214188Y-102409482D01*
X86250498Y-102529180D01*
X86309463Y-102639494D01*
X86388815Y-102736185D01*
X86485506Y-102815537D01*
X86595820Y-102874502D01*
X86715518Y-102910812D01*
X86840000Y-102923072D01*
X87740000Y-102923072D01*
X87864482Y-102910812D01*
X87984180Y-102874502D01*
X88010000Y-102860701D01*
X88035820Y-102874502D01*
X88155518Y-102910812D01*
X88280000Y-102923072D01*
X89180000Y-102923072D01*
X89304482Y-102910812D01*
X89424180Y-102874502D01*
X89450000Y-102860701D01*
X89475820Y-102874502D01*
X89595518Y-102910812D01*
X89720000Y-102923072D01*
X90620000Y-102923072D01*
X90744482Y-102910812D01*
X90864180Y-102874502D01*
X90890000Y-102860701D01*
X90915820Y-102874502D01*
X91035518Y-102910812D01*
X91160000Y-102923072D01*
X92060000Y-102923072D01*
X92184482Y-102910812D01*
X92304180Y-102874502D01*
X92330000Y-102860701D01*
X92355820Y-102874502D01*
X92475518Y-102910812D01*
X92600000Y-102923072D01*
X93500000Y-102923072D01*
X93624482Y-102910812D01*
X93744180Y-102874502D01*
X93854494Y-102815537D01*
X93951185Y-102736185D01*
X93980000Y-102701074D01*
X94008815Y-102736185D01*
X94105506Y-102815537D01*
X94215820Y-102874502D01*
X94335518Y-102910812D01*
X94460000Y-102923072D01*
X95360000Y-102923072D01*
X95484482Y-102910812D01*
X95604180Y-102874502D01*
X95630000Y-102860701D01*
X95655820Y-102874502D01*
X95775518Y-102910812D01*
X95900000Y-102923072D01*
X96800000Y-102923072D01*
X96924482Y-102910812D01*
X97044180Y-102874502D01*
X97070000Y-102860701D01*
X97095820Y-102874502D01*
X97215518Y-102910812D01*
X97340000Y-102923072D01*
X98240000Y-102923072D01*
X98364482Y-102910812D01*
X98484180Y-102874502D01*
X98510000Y-102860701D01*
X98535820Y-102874502D01*
X98655518Y-102910812D01*
X98780000Y-102923072D01*
X99680000Y-102923072D01*
X99804482Y-102910812D01*
X99924180Y-102874502D01*
X99950000Y-102860701D01*
X99975820Y-102874502D01*
X100095518Y-102910812D01*
X100220000Y-102923072D01*
X101120000Y-102923072D01*
X101244482Y-102910812D01*
X101364180Y-102874502D01*
X101474494Y-102815537D01*
X101571185Y-102736185D01*
X101600000Y-102701074D01*
X101628815Y-102736185D01*
X101725506Y-102815537D01*
X101835820Y-102874502D01*
X101955518Y-102910812D01*
X102080000Y-102923072D01*
X102980000Y-102923072D01*
X103104482Y-102910812D01*
X103224180Y-102874502D01*
X103250000Y-102860701D01*
X103275820Y-102874502D01*
X103395518Y-102910812D01*
X103520000Y-102923072D01*
X104420000Y-102923072D01*
X104544482Y-102910812D01*
X104664180Y-102874502D01*
X104690000Y-102860701D01*
X104715820Y-102874502D01*
X104835518Y-102910812D01*
X104960000Y-102923072D01*
X105860000Y-102923072D01*
X105984482Y-102910812D01*
X106104180Y-102874502D01*
X106130000Y-102860701D01*
X106155820Y-102874502D01*
X106275518Y-102910812D01*
X106400000Y-102923072D01*
X107300000Y-102923072D01*
X107424482Y-102910812D01*
X107544180Y-102874502D01*
X107570000Y-102860701D01*
X107595820Y-102874502D01*
X107715518Y-102910812D01*
X107840000Y-102923072D01*
X108740000Y-102923072D01*
X108864482Y-102910812D01*
X108984180Y-102874502D01*
X109094494Y-102815537D01*
X109186390Y-102740120D01*
X109248815Y-102816185D01*
X109345506Y-102895537D01*
X109455820Y-102954502D01*
X109575518Y-102990812D01*
X109700000Y-103003072D01*
X110600000Y-103003072D01*
X110724482Y-102990812D01*
X110844180Y-102954502D01*
X110870000Y-102940701D01*
X110895820Y-102954502D01*
X111015518Y-102990812D01*
X111140000Y-103003072D01*
X112040000Y-103003072D01*
X112164482Y-102990812D01*
X112284180Y-102954502D01*
X112310000Y-102940701D01*
X112335820Y-102954502D01*
X112455518Y-102990812D01*
X112580000Y-103003072D01*
X113480000Y-103003072D01*
X113604482Y-102990812D01*
X113724180Y-102954502D01*
X113750000Y-102940701D01*
X113775820Y-102954502D01*
X113895518Y-102990812D01*
X114020000Y-103003072D01*
X114920000Y-103003072D01*
X115044482Y-102990812D01*
X115164180Y-102954502D01*
X115190000Y-102940701D01*
X115215820Y-102954502D01*
X115335518Y-102990812D01*
X115460000Y-103003072D01*
X116360000Y-103003072D01*
X116484482Y-102990812D01*
X116604180Y-102954502D01*
X116714494Y-102895537D01*
X116811185Y-102816185D01*
X116890537Y-102719494D01*
X116949502Y-102609180D01*
X116985812Y-102489482D01*
X116998072Y-102365000D01*
X116998072Y-100443000D01*
X127844928Y-100443000D01*
X127857188Y-100567482D01*
X127893498Y-100687180D01*
X127952463Y-100797494D01*
X128031815Y-100894185D01*
X128128506Y-100973537D01*
X128238820Y-101032502D01*
X128358518Y-101068812D01*
X128483000Y-101081072D01*
X128847250Y-101078000D01*
X129006000Y-100919250D01*
X129006000Y-99695000D01*
X129260000Y-99695000D01*
X129260000Y-100919250D01*
X129418750Y-101078000D01*
X129783000Y-101081072D01*
X129907482Y-101068812D01*
X130027180Y-101032502D01*
X130137494Y-100973537D01*
X130234185Y-100894185D01*
X130313537Y-100797494D01*
X130372502Y-100687180D01*
X130408812Y-100567482D01*
X130421072Y-100443000D01*
X130418000Y-99853750D01*
X130259250Y-99695000D01*
X129260000Y-99695000D01*
X129006000Y-99695000D01*
X128006750Y-99695000D01*
X127848000Y-99853750D01*
X127844928Y-100443000D01*
X116998072Y-100443000D01*
X116998072Y-99942361D01*
X117268040Y-99672393D01*
X117299541Y-99646541D01*
X117386826Y-99540184D01*
X117402698Y-99520844D01*
X117445376Y-99441000D01*
X117479353Y-99377434D01*
X117526556Y-99221826D01*
X117538500Y-99100553D01*
X117538500Y-99100541D01*
X117542493Y-99060001D01*
X117538500Y-99019461D01*
X117538500Y-93683861D01*
X117705166Y-93752896D01*
X117808541Y-93773459D01*
X117829104Y-93876834D01*
X117900905Y-94050178D01*
X118005145Y-94206184D01*
X118137816Y-94338855D01*
X118293822Y-94443095D01*
X118467166Y-94514896D01*
X118570541Y-94535459D01*
X118591104Y-94638834D01*
X118662905Y-94812178D01*
X118767145Y-94968184D01*
X118899816Y-95100855D01*
X119055822Y-95205095D01*
X119229166Y-95276896D01*
X119332541Y-95297459D01*
X119353104Y-95400834D01*
X119424905Y-95574178D01*
X119529145Y-95730184D01*
X119661816Y-95862855D01*
X119817822Y-95967095D01*
X119991166Y-96038896D01*
X120094541Y-96059459D01*
X120115104Y-96162834D01*
X120186905Y-96336178D01*
X120291145Y-96492184D01*
X120423816Y-96624855D01*
X120579822Y-96729095D01*
X120753166Y-96800896D01*
X120856541Y-96821459D01*
X120877104Y-96924834D01*
X120948905Y-97098178D01*
X121053145Y-97254184D01*
X121185816Y-97386855D01*
X121341822Y-97491095D01*
X121515166Y-97562896D01*
X121618541Y-97583459D01*
X121639104Y-97686834D01*
X121710905Y-97860178D01*
X121815145Y-98016184D01*
X121947816Y-98148855D01*
X122103822Y-98253095D01*
X122277166Y-98324896D01*
X122380541Y-98345459D01*
X122401104Y-98448834D01*
X122472905Y-98622178D01*
X122577145Y-98778184D01*
X122709816Y-98910855D01*
X122865822Y-99015095D01*
X123039166Y-99086896D01*
X123142541Y-99107459D01*
X123163104Y-99210834D01*
X123234905Y-99384178D01*
X123339145Y-99540184D01*
X123471816Y-99672855D01*
X123627822Y-99777095D01*
X123801166Y-99848896D01*
X123985187Y-99885500D01*
X124172813Y-99885500D01*
X124356834Y-99848896D01*
X124530178Y-99777095D01*
X124686184Y-99672855D01*
X124818855Y-99540184D01*
X124923095Y-99384178D01*
X124994896Y-99210834D01*
X125031500Y-99026813D01*
X125031500Y-98839187D01*
X125002422Y-98693000D01*
X127844928Y-98693000D01*
X127848000Y-99282250D01*
X128006750Y-99441000D01*
X129006000Y-99441000D01*
X129006000Y-98216750D01*
X129260000Y-98216750D01*
X129260000Y-99441000D01*
X130259250Y-99441000D01*
X130418000Y-99282250D01*
X130421072Y-98693000D01*
X130408812Y-98568518D01*
X130372502Y-98448820D01*
X130313537Y-98338506D01*
X130234185Y-98241815D01*
X130137494Y-98162463D01*
X130027180Y-98103498D01*
X129907482Y-98067188D01*
X129783000Y-98054928D01*
X129418750Y-98058000D01*
X129260000Y-98216750D01*
X129006000Y-98216750D01*
X128847250Y-98058000D01*
X128483000Y-98054928D01*
X128358518Y-98067188D01*
X128238820Y-98103498D01*
X128128506Y-98162463D01*
X128031815Y-98241815D01*
X127952463Y-98338506D01*
X127893498Y-98448820D01*
X127857188Y-98568518D01*
X127844928Y-98693000D01*
X125002422Y-98693000D01*
X124994896Y-98655166D01*
X124923095Y-98481822D01*
X124904500Y-98453993D01*
X124904500Y-88606934D01*
X124990611Y-88693044D01*
X125016459Y-88724541D01*
X125047955Y-88750389D01*
X125047958Y-88750392D01*
X125142157Y-88827699D01*
X125201069Y-88859188D01*
X125285566Y-88904353D01*
X125441174Y-88951556D01*
X125562447Y-88963500D01*
X125562449Y-88963500D01*
X125603000Y-88967494D01*
X125643550Y-88963500D01*
X128268302Y-88963500D01*
X128187905Y-89083822D01*
X128116104Y-89257166D01*
X128079500Y-89441187D01*
X128079500Y-89450139D01*
X128072822Y-89452905D01*
X127916816Y-89557145D01*
X127784145Y-89689816D01*
X127679905Y-89845822D01*
X127608104Y-90019166D01*
X127571500Y-90203187D01*
X127571500Y-90390813D01*
X127608104Y-90574834D01*
X127635001Y-90639769D01*
X127635001Y-91120305D01*
X127629688Y-91137818D01*
X127617428Y-91262300D01*
X127617428Y-92862300D01*
X127629688Y-92986782D01*
X127665998Y-93106480D01*
X127724963Y-93216794D01*
X127804315Y-93313485D01*
X127901006Y-93392837D01*
X128011320Y-93451802D01*
X128131018Y-93488112D01*
X128255500Y-93500372D01*
X128665500Y-93500372D01*
X128778000Y-93489292D01*
X128890500Y-93500372D01*
X128905000Y-93500372D01*
X128905001Y-94548957D01*
X128822905Y-94671822D01*
X128751104Y-94845166D01*
X128714500Y-95029187D01*
X128714500Y-95216813D01*
X128751104Y-95400834D01*
X128822905Y-95574178D01*
X128927145Y-95730184D01*
X129059816Y-95862855D01*
X129215822Y-95967095D01*
X129389166Y-96038896D01*
X129573187Y-96075500D01*
X129760813Y-96075500D01*
X129944834Y-96038896D01*
X130118178Y-95967095D01*
X130274184Y-95862855D01*
X130406855Y-95730184D01*
X130511095Y-95574178D01*
X130582896Y-95400834D01*
X130603459Y-95297459D01*
X130706834Y-95276896D01*
X130880178Y-95205095D01*
X131036184Y-95100855D01*
X131168855Y-94968184D01*
X131273095Y-94812178D01*
X131344896Y-94638834D01*
X131365459Y-94535459D01*
X131445000Y-94519637D01*
X131445001Y-98148264D01*
X131339614Y-98204595D01*
X131205038Y-98315038D01*
X131094595Y-98449614D01*
X131012528Y-98603150D01*
X130961992Y-98769746D01*
X130944928Y-98943000D01*
X130944928Y-100193000D01*
X130961992Y-100366254D01*
X131012528Y-100532850D01*
X131094595Y-100686386D01*
X131205038Y-100820962D01*
X131339614Y-100931405D01*
X131493150Y-101013472D01*
X131659746Y-101064008D01*
X131833000Y-101081072D01*
X132633000Y-101081072D01*
X132806254Y-101064008D01*
X132972850Y-101013472D01*
X133126386Y-100931405D01*
X133260962Y-100820962D01*
X133371405Y-100686386D01*
X133453472Y-100532850D01*
X133504008Y-100366254D01*
X133521072Y-100193000D01*
X133521072Y-98943000D01*
X133504008Y-98769746D01*
X133453472Y-98603150D01*
X133371405Y-98449614D01*
X133260962Y-98315038D01*
X133126386Y-98204595D01*
X133096000Y-98188353D01*
X133096000Y-93451050D01*
X133142250Y-93497300D01*
X133243858Y-93486280D01*
X133363028Y-93448274D01*
X133472494Y-93387749D01*
X133568048Y-93307031D01*
X133646019Y-93209222D01*
X133703411Y-93098081D01*
X133738017Y-92977880D01*
X133748508Y-92853237D01*
X133745500Y-92348050D01*
X133586750Y-92189300D01*
X133113572Y-92189300D01*
X133113572Y-91935300D01*
X133586750Y-91935300D01*
X133745500Y-91776550D01*
X133746354Y-91633000D01*
X135494928Y-91633000D01*
X135507188Y-91757482D01*
X135543498Y-91877180D01*
X135602463Y-91987494D01*
X135681815Y-92084185D01*
X135778506Y-92163537D01*
X135888820Y-92222502D01*
X136008518Y-92258812D01*
X136133000Y-92271072D01*
X136747250Y-92268000D01*
X136906000Y-92109250D01*
X136906000Y-91097500D01*
X137160000Y-91097500D01*
X137160000Y-92109250D01*
X137318750Y-92268000D01*
X137933000Y-92271072D01*
X138057482Y-92258812D01*
X138177180Y-92222502D01*
X138287494Y-92163537D01*
X138384185Y-92084185D01*
X138463537Y-91987494D01*
X138522502Y-91877180D01*
X138558812Y-91757482D01*
X138571072Y-91633000D01*
X138568000Y-91256250D01*
X138409250Y-91097500D01*
X137160000Y-91097500D01*
X136906000Y-91097500D01*
X135656750Y-91097500D01*
X135498000Y-91256250D01*
X135494928Y-91633000D01*
X133746354Y-91633000D01*
X133748508Y-91271363D01*
X133738017Y-91146720D01*
X133703411Y-91026519D01*
X133646019Y-90915378D01*
X133568048Y-90817569D01*
X133472494Y-90736851D01*
X133363028Y-90676326D01*
X133243858Y-90638320D01*
X133142250Y-90627300D01*
X132983500Y-90786050D01*
X132983500Y-90880344D01*
X132926685Y-90811115D01*
X132829994Y-90731763D01*
X132719680Y-90672798D01*
X132711883Y-90670433D01*
X132668750Y-90627300D01*
X132591624Y-90635665D01*
X132475500Y-90624228D01*
X132397500Y-90624228D01*
X132397500Y-90522007D01*
X132416095Y-90494178D01*
X132487896Y-90320834D01*
X132490448Y-90308000D01*
X135494928Y-90308000D01*
X135498000Y-90684750D01*
X135656750Y-90843500D01*
X136906000Y-90843500D01*
X136906000Y-89831750D01*
X137160000Y-89831750D01*
X137160000Y-90843500D01*
X138409250Y-90843500D01*
X138568000Y-90684750D01*
X138571072Y-90308000D01*
X138558812Y-90183518D01*
X138522502Y-90063820D01*
X138463537Y-89953506D01*
X138384185Y-89856815D01*
X138287494Y-89777463D01*
X138177180Y-89718498D01*
X138057482Y-89682188D01*
X137933000Y-89669928D01*
X137318750Y-89673000D01*
X137160000Y-89831750D01*
X136906000Y-89831750D01*
X136747250Y-89673000D01*
X136133000Y-89669928D01*
X136008518Y-89682188D01*
X135888820Y-89718498D01*
X135778506Y-89777463D01*
X135681815Y-89856815D01*
X135602463Y-89953506D01*
X135543498Y-90063820D01*
X135507188Y-90183518D01*
X135494928Y-90308000D01*
X132490448Y-90308000D01*
X132524500Y-90136813D01*
X132524500Y-89949187D01*
X132487896Y-89765166D01*
X132416095Y-89591822D01*
X132311855Y-89435816D01*
X132179184Y-89303145D01*
X132023178Y-89198905D01*
X131849834Y-89127104D01*
X131665813Y-89090500D01*
X131478187Y-89090500D01*
X131294166Y-89127104D01*
X131120822Y-89198905D01*
X130964816Y-89303145D01*
X130832145Y-89435816D01*
X130727905Y-89591822D01*
X130656104Y-89765166D01*
X130619500Y-89949187D01*
X130619500Y-90136813D01*
X130656104Y-90320834D01*
X130727905Y-90494178D01*
X130746500Y-90522008D01*
X130746500Y-90629054D01*
X130683000Y-90635308D01*
X130570500Y-90624228D01*
X130160500Y-90624228D01*
X130048000Y-90635308D01*
X129935500Y-90624228D01*
X129933701Y-90624228D01*
X129933701Y-89847104D01*
X129947896Y-89812834D01*
X129984500Y-89628813D01*
X129984500Y-89441187D01*
X129947896Y-89257166D01*
X129876095Y-89083822D01*
X129771855Y-88927816D01*
X129639184Y-88795145D01*
X129506407Y-88706426D01*
X129517397Y-88693035D01*
X129650539Y-88559893D01*
X129682041Y-88534041D01*
X129785199Y-88408342D01*
X129861853Y-88264934D01*
X129884046Y-88191772D01*
X129935500Y-88191772D01*
X130048000Y-88180692D01*
X130160500Y-88191772D01*
X130570500Y-88191772D01*
X130683000Y-88180692D01*
X130795500Y-88191772D01*
X131205500Y-88191772D01*
X131318000Y-88180692D01*
X131430500Y-88191772D01*
X131840500Y-88191772D01*
X131953000Y-88180692D01*
X132065500Y-88191772D01*
X132475500Y-88191772D01*
X132588000Y-88180692D01*
X132700500Y-88191772D01*
X133110500Y-88191772D01*
X133234982Y-88179512D01*
X133354680Y-88143202D01*
X133464994Y-88084237D01*
X133561685Y-88004885D01*
X133641037Y-87908194D01*
X133700002Y-87797880D01*
X133736312Y-87678182D01*
X133746061Y-87579200D01*
X135494928Y-87579200D01*
X135494928Y-88258001D01*
X135511992Y-88431255D01*
X135562528Y-88597851D01*
X135644595Y-88751387D01*
X135755038Y-88885962D01*
X135889613Y-88996405D01*
X136043149Y-89078472D01*
X136209745Y-89129008D01*
X136382999Y-89146072D01*
X137683001Y-89146072D01*
X137856255Y-89129008D01*
X138022851Y-89078472D01*
X138176387Y-88996405D01*
X138310962Y-88885962D01*
X138421405Y-88751387D01*
X138503472Y-88597851D01*
X138554008Y-88431255D01*
X138571072Y-88258001D01*
X138571072Y-87432999D01*
X138554008Y-87259745D01*
X138503472Y-87093149D01*
X138421405Y-86939613D01*
X138310962Y-86805038D01*
X138176387Y-86694595D01*
X138022851Y-86612528D01*
X137856255Y-86561992D01*
X137683001Y-86544928D01*
X136899860Y-86544928D01*
X136553598Y-86198666D01*
X136527741Y-86167159D01*
X136402042Y-86064001D01*
X136258634Y-85987347D01*
X136103026Y-85940144D01*
X135981753Y-85928200D01*
X135981750Y-85928200D01*
X135941200Y-85924206D01*
X135900650Y-85928200D01*
X133746061Y-85928200D01*
X133736312Y-85829218D01*
X133700002Y-85709520D01*
X133641037Y-85599206D01*
X133561685Y-85502515D01*
X133464994Y-85423163D01*
X133354680Y-85364198D01*
X133234982Y-85327888D01*
X133110500Y-85315628D01*
X133096000Y-85315628D01*
X133096000Y-85305767D01*
X133122896Y-85240834D01*
X133159500Y-85056813D01*
X133159500Y-84869187D01*
X133122896Y-84685166D01*
X133051095Y-84511822D01*
X132946855Y-84355816D01*
X132814184Y-84223145D01*
X132658178Y-84118905D01*
X132651500Y-84116139D01*
X132651500Y-84107187D01*
X132614896Y-83923166D01*
X132543095Y-83749822D01*
X132438855Y-83593816D01*
X132306184Y-83461145D01*
X132150178Y-83356905D01*
X131976834Y-83285104D01*
X131873459Y-83264541D01*
X131852896Y-83161166D01*
X131781095Y-82987822D01*
X131676855Y-82831816D01*
X131544184Y-82699145D01*
X131388178Y-82594905D01*
X131258878Y-82541347D01*
X131230596Y-82399166D01*
X131158795Y-82225822D01*
X131054555Y-82069816D01*
X130921884Y-81937145D01*
X130765878Y-81832905D01*
X130608897Y-81767882D01*
X130582896Y-81637166D01*
X130511095Y-81463822D01*
X130406855Y-81307816D01*
X130274184Y-81175145D01*
X130118178Y-81070905D01*
X129944834Y-80999104D01*
X129760813Y-80962500D01*
X129573187Y-80962500D01*
X129389166Y-80999104D01*
X129215822Y-81070905D01*
X129059816Y-81175145D01*
X128927145Y-81307816D01*
X128822905Y-81463822D01*
X128751104Y-81637166D01*
X128714500Y-81821187D01*
X128714500Y-82008813D01*
X128751104Y-82192834D01*
X128787758Y-82281325D01*
X127595932Y-81089500D01*
X128063950Y-81089500D01*
X128104500Y-81093494D01*
X128145050Y-81089500D01*
X128145053Y-81089500D01*
X128266326Y-81077556D01*
X128421934Y-81030353D01*
X128565342Y-80953699D01*
X128691041Y-80850541D01*
X128716898Y-80819034D01*
X128749860Y-80786072D01*
X129533001Y-80786072D01*
X129706255Y-80769008D01*
X129872851Y-80718472D01*
X130026387Y-80636405D01*
X130160962Y-80525962D01*
X130271405Y-80391387D01*
X130353472Y-80237851D01*
X130380727Y-80148000D01*
X130944928Y-80148000D01*
X130957188Y-80272482D01*
X130993498Y-80392180D01*
X131052463Y-80502494D01*
X131131815Y-80599185D01*
X131228506Y-80678537D01*
X131338820Y-80737502D01*
X131458518Y-80773812D01*
X131583000Y-80786072D01*
X131959750Y-80783000D01*
X132118500Y-80624250D01*
X132118500Y-79375000D01*
X132372500Y-79375000D01*
X132372500Y-80624250D01*
X132531250Y-80783000D01*
X132908000Y-80786072D01*
X133032482Y-80773812D01*
X133152180Y-80737502D01*
X133262494Y-80678537D01*
X133359185Y-80599185D01*
X133438537Y-80502494D01*
X133497502Y-80392180D01*
X133533812Y-80272482D01*
X133546072Y-80148000D01*
X133543000Y-79533750D01*
X133384250Y-79375000D01*
X132372500Y-79375000D01*
X132118500Y-79375000D01*
X131106750Y-79375000D01*
X130948000Y-79533750D01*
X130944928Y-80148000D01*
X130380727Y-80148000D01*
X130404008Y-80071255D01*
X130421072Y-79898001D01*
X130421072Y-78597999D01*
X130404008Y-78424745D01*
X130380728Y-78348000D01*
X130944928Y-78348000D01*
X130948000Y-78962250D01*
X131106750Y-79121000D01*
X132118500Y-79121000D01*
X132118500Y-77871750D01*
X132372500Y-77871750D01*
X132372500Y-79121000D01*
X133384250Y-79121000D01*
X133543000Y-78962250D01*
X133546072Y-78348000D01*
X133533812Y-78223518D01*
X133497502Y-78103820D01*
X133438537Y-77993506D01*
X133359185Y-77896815D01*
X133262494Y-77817463D01*
X133152180Y-77758498D01*
X133032482Y-77722188D01*
X132908000Y-77709928D01*
X132531250Y-77713000D01*
X132372500Y-77871750D01*
X132118500Y-77871750D01*
X131959750Y-77713000D01*
X131583000Y-77709928D01*
X131458518Y-77722188D01*
X131338820Y-77758498D01*
X131228506Y-77817463D01*
X131131815Y-77896815D01*
X131052463Y-77993506D01*
X130993498Y-78103820D01*
X130957188Y-78223518D01*
X130944928Y-78348000D01*
X130380728Y-78348000D01*
X130353472Y-78258149D01*
X130271405Y-78104613D01*
X130160962Y-77970038D01*
X130026387Y-77859595D01*
X129872851Y-77777528D01*
X129706255Y-77726992D01*
X129533001Y-77709928D01*
X128707999Y-77709928D01*
X128534745Y-77726992D01*
X128368149Y-77777528D01*
X128214613Y-77859595D01*
X128080038Y-77970038D01*
X127969595Y-78104613D01*
X127887528Y-78258149D01*
X127836992Y-78424745D01*
X127819928Y-78597999D01*
X127819928Y-79381140D01*
X127762568Y-79438500D01*
X126082007Y-79438500D01*
X126054178Y-79419905D01*
X125880834Y-79348104D01*
X125696813Y-79311500D01*
X125666500Y-79311500D01*
X125666500Y-76621550D01*
X125670494Y-76581000D01*
X125666500Y-76540447D01*
X125654556Y-76419174D01*
X125607353Y-76263566D01*
X125530700Y-76120159D01*
X125530699Y-76120157D01*
X125453392Y-76025958D01*
X125453389Y-76025955D01*
X125427541Y-75994459D01*
X125396046Y-75968612D01*
X113735991Y-64308559D01*
X113812953Y-64122756D01*
X113895000Y-63710279D01*
X113895000Y-63289721D01*
X117245000Y-63289721D01*
X117245000Y-63710279D01*
X117327047Y-64122756D01*
X117487988Y-64511302D01*
X117721637Y-64860983D01*
X118019017Y-65158363D01*
X118368698Y-65392012D01*
X118757244Y-65552953D01*
X119169721Y-65635000D01*
X119590279Y-65635000D01*
X120002756Y-65552953D01*
X120391302Y-65392012D01*
X120740983Y-65158363D01*
X121038363Y-64860983D01*
X121272012Y-64511302D01*
X121432953Y-64122756D01*
X121515000Y-63710279D01*
X121515000Y-63289721D01*
X124865000Y-63289721D01*
X124865000Y-63710279D01*
X124947047Y-64122756D01*
X125107988Y-64511302D01*
X125341637Y-64860983D01*
X125639017Y-65158363D01*
X125988698Y-65392012D01*
X126377244Y-65552953D01*
X126789721Y-65635000D01*
X127210279Y-65635000D01*
X127622756Y-65552953D01*
X128011302Y-65392012D01*
X128360983Y-65158363D01*
X128658363Y-64860983D01*
X128892012Y-64511302D01*
X129052953Y-64122756D01*
X129135000Y-63710279D01*
X129135000Y-63289721D01*
X129133041Y-63279872D01*
X137465000Y-63279872D01*
X137465000Y-63720128D01*
X137550890Y-64151925D01*
X137719369Y-64558669D01*
X137963962Y-64924729D01*
X138275271Y-65236038D01*
X138641331Y-65480631D01*
X139048075Y-65649110D01*
X139479872Y-65735000D01*
X139920128Y-65735000D01*
X140351925Y-65649110D01*
X140758669Y-65480631D01*
X141124729Y-65236038D01*
X141436038Y-64924729D01*
X141680631Y-64558669D01*
X141849110Y-64151925D01*
X141935000Y-63720128D01*
X141935000Y-63279872D01*
X141849110Y-62848075D01*
X141680631Y-62441331D01*
X141436038Y-62075271D01*
X141124729Y-61763962D01*
X140758669Y-61519369D01*
X140351925Y-61350890D01*
X139920128Y-61265000D01*
X139479872Y-61265000D01*
X139048075Y-61350890D01*
X138641331Y-61519369D01*
X138275271Y-61763962D01*
X137963962Y-62075271D01*
X137719369Y-62441331D01*
X137550890Y-62848075D01*
X137465000Y-63279872D01*
X129133041Y-63279872D01*
X129052953Y-62877244D01*
X128892012Y-62488698D01*
X128658363Y-62139017D01*
X128360983Y-61841637D01*
X128011302Y-61607988D01*
X127622756Y-61447047D01*
X127210279Y-61365000D01*
X126789721Y-61365000D01*
X126377244Y-61447047D01*
X125988698Y-61607988D01*
X125639017Y-61841637D01*
X125341637Y-62139017D01*
X125107988Y-62488698D01*
X124947047Y-62877244D01*
X124865000Y-63289721D01*
X121515000Y-63289721D01*
X121432953Y-62877244D01*
X121272012Y-62488698D01*
X121038363Y-62139017D01*
X120740983Y-61841637D01*
X120391302Y-61607988D01*
X120002756Y-61447047D01*
X119590279Y-61365000D01*
X119169721Y-61365000D01*
X118757244Y-61447047D01*
X118368698Y-61607988D01*
X118019017Y-61841637D01*
X117721637Y-62139017D01*
X117487988Y-62488698D01*
X117327047Y-62877244D01*
X117245000Y-63289721D01*
X113895000Y-63289721D01*
X113812953Y-62877244D01*
X113652012Y-62488698D01*
X113418363Y-62139017D01*
X113120983Y-61841637D01*
X112771302Y-61607988D01*
X112382756Y-61447047D01*
X111970279Y-61365000D01*
X111549721Y-61365000D01*
X111137244Y-61447047D01*
X110748698Y-61607988D01*
X110399017Y-61841637D01*
X110101637Y-62139017D01*
X109867988Y-62488698D01*
X109707047Y-62877244D01*
X109625000Y-63289721D01*
X109625000Y-63710279D01*
X109707047Y-64122756D01*
X109867988Y-64511302D01*
X110101637Y-64860983D01*
X110399017Y-65158363D01*
X110748698Y-65392012D01*
X111137244Y-65552953D01*
X111549721Y-65635000D01*
X111970279Y-65635000D01*
X112382756Y-65552953D01*
X112568559Y-65475991D01*
X124015500Y-76922934D01*
X124015501Y-83552462D01*
X123924184Y-83461145D01*
X123768178Y-83356905D01*
X123594834Y-83285104D01*
X123491459Y-83264541D01*
X123470896Y-83161166D01*
X123399095Y-82987822D01*
X123294855Y-82831816D01*
X123162184Y-82699145D01*
X123006178Y-82594905D01*
X122832834Y-82523104D01*
X122729459Y-82502541D01*
X122708896Y-82399166D01*
X122637095Y-82225822D01*
X122532855Y-82069816D01*
X122400184Y-81937145D01*
X122244178Y-81832905D01*
X122070834Y-81761104D01*
X121967459Y-81740541D01*
X121946896Y-81637166D01*
X121875095Y-81463822D01*
X121770855Y-81307816D01*
X121638184Y-81175145D01*
X121482178Y-81070905D01*
X121308834Y-80999104D01*
X121205459Y-80978541D01*
X121184896Y-80875166D01*
X121113095Y-80701822D01*
X121008855Y-80545816D01*
X120876184Y-80413145D01*
X120720178Y-80308905D01*
X120546834Y-80237104D01*
X120443459Y-80216541D01*
X120422896Y-80113166D01*
X120351095Y-79939822D01*
X120246855Y-79783816D01*
X120114184Y-79651145D01*
X119958178Y-79546905D01*
X119784834Y-79475104D01*
X119681459Y-79454541D01*
X119660896Y-79351166D01*
X119589095Y-79177822D01*
X119484855Y-79021816D01*
X119352184Y-78889145D01*
X119196178Y-78784905D01*
X119022834Y-78713104D01*
X118919459Y-78692541D01*
X118898896Y-78589166D01*
X118827095Y-78415822D01*
X118722855Y-78259816D01*
X118590184Y-78127145D01*
X118434178Y-78022905D01*
X118260834Y-77951104D01*
X118076813Y-77914500D01*
X117889187Y-77914500D01*
X117705166Y-77951104D01*
X117531822Y-78022905D01*
X117375816Y-78127145D01*
X117322061Y-78180900D01*
X117299541Y-78153459D01*
X117268040Y-78127607D01*
X116998072Y-77857639D01*
X116998072Y-75515000D01*
X116985812Y-75390518D01*
X116949502Y-75270820D01*
X116890537Y-75160506D01*
X116811185Y-75063815D01*
X116714494Y-74984463D01*
X116604180Y-74925498D01*
X116484482Y-74889188D01*
X116360000Y-74876928D01*
X115460000Y-74876928D01*
X115335518Y-74889188D01*
X115215820Y-74925498D01*
X115190000Y-74939299D01*
X115164180Y-74925498D01*
X115044482Y-74889188D01*
X114920000Y-74876928D01*
X114020000Y-74876928D01*
X113895518Y-74889188D01*
X113775820Y-74925498D01*
X113750000Y-74939299D01*
X113724180Y-74925498D01*
X113604482Y-74889188D01*
X113480000Y-74876928D01*
X112580000Y-74876928D01*
X112455518Y-74889188D01*
X112335820Y-74925498D01*
X112310000Y-74939299D01*
X112284180Y-74925498D01*
X112164482Y-74889188D01*
X112040000Y-74876928D01*
X111140000Y-74876928D01*
X111015518Y-74889188D01*
X110895820Y-74925498D01*
X110870000Y-74939299D01*
X110844180Y-74925498D01*
X110724482Y-74889188D01*
X110600000Y-74876928D01*
X109700000Y-74876928D01*
X109575518Y-74889188D01*
X109455820Y-74925498D01*
X109345506Y-74984463D01*
X109248815Y-75063815D01*
X109220000Y-75098926D01*
X109191185Y-75063815D01*
X109094494Y-74984463D01*
X108984180Y-74925498D01*
X108864482Y-74889188D01*
X108740000Y-74876928D01*
X107840000Y-74876928D01*
X107715518Y-74889188D01*
X107595820Y-74925498D01*
X107570000Y-74939299D01*
X107544180Y-74925498D01*
X107424482Y-74889188D01*
X107300000Y-74876928D01*
X106400000Y-74876928D01*
X106275518Y-74889188D01*
X106155820Y-74925498D01*
X106130000Y-74939299D01*
X106104180Y-74925498D01*
X105984482Y-74889188D01*
X105860000Y-74876928D01*
X104960000Y-74876928D01*
X104835518Y-74889188D01*
X104715820Y-74925498D01*
X104690000Y-74939299D01*
X104664180Y-74925498D01*
X104544482Y-74889188D01*
X104420000Y-74876928D01*
X103520000Y-74876928D01*
X103395518Y-74889188D01*
X103275820Y-74925498D01*
X103250000Y-74939299D01*
X103224180Y-74925498D01*
X103104482Y-74889188D01*
X102980000Y-74876928D01*
X102080000Y-74876928D01*
X101955518Y-74889188D01*
X101835820Y-74925498D01*
X101725506Y-74984463D01*
X101628815Y-75063815D01*
X101600000Y-75098926D01*
X101571185Y-75063815D01*
X101474494Y-74984463D01*
X101364180Y-74925498D01*
X101244482Y-74889188D01*
X101120000Y-74876928D01*
X100220000Y-74876928D01*
X100095518Y-74889188D01*
X99975820Y-74925498D01*
X99950000Y-74939299D01*
X99924180Y-74925498D01*
X99804482Y-74889188D01*
X99680000Y-74876928D01*
X98780000Y-74876928D01*
X98655518Y-74889188D01*
X98535820Y-74925498D01*
X98510000Y-74939299D01*
X98484180Y-74925498D01*
X98364482Y-74889188D01*
X98240000Y-74876928D01*
X97340000Y-74876928D01*
X97215518Y-74889188D01*
X97095820Y-74925498D01*
X97070000Y-74939299D01*
X97044180Y-74925498D01*
X96924482Y-74889188D01*
X96800000Y-74876928D01*
X95900000Y-74876928D01*
X95775518Y-74889188D01*
X95655820Y-74925498D01*
X95630000Y-74939299D01*
X95604180Y-74925498D01*
X95484482Y-74889188D01*
X95360000Y-74876928D01*
X94460000Y-74876928D01*
X94335518Y-74889188D01*
X94215820Y-74925498D01*
X94105506Y-74984463D01*
X94008815Y-75063815D01*
X93980000Y-75098926D01*
X93951185Y-75063815D01*
X93854494Y-74984463D01*
X93744180Y-74925498D01*
X93624482Y-74889188D01*
X93500000Y-74876928D01*
X92600000Y-74876928D01*
X92475518Y-74889188D01*
X92355820Y-74925498D01*
X92330000Y-74939299D01*
X92304180Y-74925498D01*
X92184482Y-74889188D01*
X92060000Y-74876928D01*
X91160000Y-74876928D01*
X91035518Y-74889188D01*
X90915820Y-74925498D01*
X90890000Y-74939299D01*
X90864180Y-74925498D01*
X90744482Y-74889188D01*
X90620000Y-74876928D01*
X89720000Y-74876928D01*
X89595518Y-74889188D01*
X89475820Y-74925498D01*
X89450000Y-74939299D01*
X89424180Y-74925498D01*
X89304482Y-74889188D01*
X89180000Y-74876928D01*
X88280000Y-74876928D01*
X88155518Y-74889188D01*
X88035820Y-74925498D01*
X88010000Y-74939299D01*
X87984180Y-74925498D01*
X87864482Y-74889188D01*
X87740000Y-74876928D01*
X86840000Y-74876928D01*
X86715518Y-74889188D01*
X86595820Y-74925498D01*
X86485506Y-74984463D01*
X86388815Y-75063815D01*
X86309463Y-75160506D01*
X86250498Y-75270820D01*
X86214188Y-75390518D01*
X86201928Y-75515000D01*
X56540000Y-75515000D01*
X56540000Y-63523920D01*
X56557707Y-63279872D01*
X61265000Y-63279872D01*
X61265000Y-63720128D01*
X61350890Y-64151925D01*
X61519369Y-64558669D01*
X61763962Y-64924729D01*
X62075271Y-65236038D01*
X62441331Y-65480631D01*
X62848075Y-65649110D01*
X63279872Y-65735000D01*
X63720128Y-65735000D01*
X64151925Y-65649110D01*
X64558669Y-65480631D01*
X64924729Y-65236038D01*
X65169114Y-64991653D01*
X74887952Y-64991653D01*
X75043962Y-65307214D01*
X75418745Y-65498020D01*
X75823551Y-65612044D01*
X76242824Y-65644902D01*
X76660451Y-65595334D01*
X77060383Y-65465243D01*
X77356038Y-65307214D01*
X77512048Y-64991653D01*
X76200000Y-63679605D01*
X74887952Y-64991653D01*
X65169114Y-64991653D01*
X65236038Y-64924729D01*
X65480631Y-64558669D01*
X65649110Y-64151925D01*
X65735000Y-63720128D01*
X65735000Y-63542824D01*
X74055098Y-63542824D01*
X74104666Y-63960451D01*
X74234757Y-64360383D01*
X74392786Y-64656038D01*
X74708347Y-64812048D01*
X76020395Y-63500000D01*
X76379605Y-63500000D01*
X77691653Y-64812048D01*
X78007214Y-64656038D01*
X78198020Y-64281255D01*
X78312044Y-63876449D01*
X78344902Y-63457176D01*
X78325027Y-63289721D01*
X81685000Y-63289721D01*
X81685000Y-63710279D01*
X81767047Y-64122756D01*
X81927988Y-64511302D01*
X82161637Y-64860983D01*
X82459017Y-65158363D01*
X82808698Y-65392012D01*
X83197244Y-65552953D01*
X83609721Y-65635000D01*
X84030279Y-65635000D01*
X84442756Y-65552953D01*
X84831302Y-65392012D01*
X85180983Y-65158363D01*
X85478363Y-64860983D01*
X85712012Y-64511302D01*
X85788974Y-64325500D01*
X87324673Y-64325500D01*
X87374528Y-64489851D01*
X87456595Y-64643387D01*
X87567038Y-64777962D01*
X87701613Y-64888405D01*
X87855149Y-64970472D01*
X88021745Y-65021008D01*
X88194999Y-65038072D01*
X89020001Y-65038072D01*
X89193255Y-65021008D01*
X89359851Y-64970472D01*
X89513387Y-64888405D01*
X89647962Y-64777962D01*
X89758405Y-64643387D01*
X89840472Y-64489851D01*
X89867727Y-64400000D01*
X90431928Y-64400000D01*
X90444188Y-64524482D01*
X90480498Y-64644180D01*
X90539463Y-64754494D01*
X90618815Y-64851185D01*
X90715506Y-64930537D01*
X90825820Y-64989502D01*
X90945518Y-65025812D01*
X91070000Y-65038072D01*
X91446750Y-65035000D01*
X91605500Y-64876250D01*
X91605500Y-63627000D01*
X91859500Y-63627000D01*
X91859500Y-64876250D01*
X92018250Y-65035000D01*
X92395000Y-65038072D01*
X92519482Y-65025812D01*
X92639180Y-64989502D01*
X92749494Y-64930537D01*
X92846185Y-64851185D01*
X92925537Y-64754494D01*
X92984502Y-64644180D01*
X93020812Y-64524482D01*
X93033072Y-64400000D01*
X93030000Y-63785750D01*
X92871250Y-63627000D01*
X91859500Y-63627000D01*
X91605500Y-63627000D01*
X90593750Y-63627000D01*
X90435000Y-63785750D01*
X90431928Y-64400000D01*
X89867727Y-64400000D01*
X89891008Y-64323255D01*
X89908072Y-64150001D01*
X89908072Y-62849999D01*
X89891008Y-62676745D01*
X89867728Y-62600000D01*
X90431928Y-62600000D01*
X90435000Y-63214250D01*
X90593750Y-63373000D01*
X91605500Y-63373000D01*
X91605500Y-62123750D01*
X91859500Y-62123750D01*
X91859500Y-63373000D01*
X92871250Y-63373000D01*
X93030000Y-63214250D01*
X93033072Y-62600000D01*
X93020812Y-62475518D01*
X92984502Y-62355820D01*
X92925537Y-62245506D01*
X92846185Y-62148815D01*
X92749494Y-62069463D01*
X92639180Y-62010498D01*
X92519482Y-61974188D01*
X92395000Y-61961928D01*
X92018250Y-61965000D01*
X91859500Y-62123750D01*
X91605500Y-62123750D01*
X91446750Y-61965000D01*
X91070000Y-61961928D01*
X90945518Y-61974188D01*
X90825820Y-62010498D01*
X90715506Y-62069463D01*
X90618815Y-62148815D01*
X90539463Y-62245506D01*
X90480498Y-62355820D01*
X90444188Y-62475518D01*
X90431928Y-62600000D01*
X89867728Y-62600000D01*
X89840472Y-62510149D01*
X89758405Y-62356613D01*
X89647962Y-62222038D01*
X89513387Y-62111595D01*
X89359851Y-62029528D01*
X89193255Y-61978992D01*
X89020001Y-61961928D01*
X88194999Y-61961928D01*
X88021745Y-61978992D01*
X87855149Y-62029528D01*
X87701613Y-62111595D01*
X87567038Y-62222038D01*
X87456595Y-62356613D01*
X87374528Y-62510149D01*
X87324673Y-62674500D01*
X85788974Y-62674500D01*
X85712012Y-62488698D01*
X85478363Y-62139017D01*
X85180983Y-61841637D01*
X84831302Y-61607988D01*
X84442756Y-61447047D01*
X84030279Y-61365000D01*
X83609721Y-61365000D01*
X83197244Y-61447047D01*
X82808698Y-61607988D01*
X82459017Y-61841637D01*
X82161637Y-62139017D01*
X81927988Y-62488698D01*
X81767047Y-62877244D01*
X81685000Y-63289721D01*
X78325027Y-63289721D01*
X78295334Y-63039549D01*
X78165243Y-62639617D01*
X78007214Y-62343962D01*
X77691653Y-62187952D01*
X76379605Y-63500000D01*
X76020395Y-63500000D01*
X74708347Y-62187952D01*
X74392786Y-62343962D01*
X74201980Y-62718745D01*
X74087956Y-63123551D01*
X74055098Y-63542824D01*
X65735000Y-63542824D01*
X65735000Y-63279872D01*
X65649110Y-62848075D01*
X65480631Y-62441331D01*
X65236038Y-62075271D01*
X65169114Y-62008347D01*
X74887952Y-62008347D01*
X76200000Y-63320395D01*
X77512048Y-62008347D01*
X77356038Y-61692786D01*
X76981255Y-61501980D01*
X76576449Y-61387956D01*
X76157176Y-61355098D01*
X75739549Y-61404666D01*
X75339617Y-61534757D01*
X75043962Y-61692786D01*
X74887952Y-62008347D01*
X65169114Y-62008347D01*
X64924729Y-61763962D01*
X64558669Y-61519369D01*
X64151925Y-61350890D01*
X63720128Y-61265000D01*
X63279872Y-61265000D01*
X62848075Y-61350890D01*
X62441331Y-61519369D01*
X62075271Y-61763962D01*
X61763962Y-62075271D01*
X61519369Y-62441331D01*
X61350890Y-62848075D01*
X61265000Y-63279872D01*
X56557707Y-63279872D01*
X56614617Y-62495530D01*
X56831739Y-61512102D01*
X57188546Y-60570325D01*
X57677575Y-59689905D01*
X58288569Y-58889313D01*
X59008732Y-58185306D01*
X59822987Y-57592630D01*
X60714269Y-57123704D01*
X61663900Y-56788353D01*
X62655692Y-56592873D01*
X63520164Y-56540000D01*
X139676080Y-56540000D01*
X140704470Y-56614617D01*
G37*
%TD.AperFunction*%
%TD*%
M02*
