M48
; DRILL file {KiCad 5.1.9+dfsg1-1} date Thu Mar 25 11:41:58 2021
; FORMAT={-:-/ absolute / inch / decimal}
; #@! TF.CreationDate,2021-03-25T11:41:58-05:00
; #@! TF.GenerationSoftware,Kicad,Pcbnew,5.1.9+dfsg1-1
; #@! TF.FileFunction,Plated,1,2,PTH
FMAT,2
INCH
T1C0.0118
T2C0.0591
%
G90
G05
T1
X3.435Y-3.225
X3.44Y-3.165
X3.44Y-3.685
X3.44Y-3.745
X3.495Y-3.195
X3.495Y-3.255
X3.495Y-3.715
X3.495Y-3.805
X3.55Y-3.105
X3.55Y-3.775
X3.605Y-3.285
X3.605Y-3.835
X3.635Y-3.345
X3.635Y-3.895
X3.665Y-3.135
X3.665Y-3.865
X3.695Y-3.315
X3.695Y-3.655
X3.735Y-3.685
X3.735Y-3.745
X3.74Y-3.165
X3.74Y-3.225
X3.795Y-3.195
X3.795Y-3.255
X3.795Y-3.715
X3.795Y-3.775
X3.85Y-3.135
X3.85Y-3.805
X3.905Y-3.835
X3.91Y-3.285
X3.935Y-3.345
X3.935Y-3.895
X3.965Y-3.105
X3.965Y-3.865
X3.995Y-3.315
X3.995Y-3.655
X4.035Y-3.135
X4.04Y-3.225
X4.04Y-3.685
X4.04Y-3.745
X4.095Y-3.195
X4.095Y-3.255
X4.095Y-3.775
X4.1Y-3.715
X4.15Y-3.165
X4.155Y-3.835
X4.205Y-3.285
X4.205Y-3.805
X4.235Y-3.345
X4.235Y-3.895
X4.26Y-3.105
X4.265Y-3.865
X4.295Y-3.315
X4.295Y-3.655
X4.335Y-3.135
X4.335Y-3.225
X4.34Y-3.685
X4.34Y-3.745
X4.395Y-3.165
X4.395Y-3.255
X4.395Y-3.715
X4.395Y-3.775
X4.45Y-3.195
X4.45Y-3.865
X4.505Y-3.285
X4.505Y-3.805
X4.535Y-3.345
X4.535Y-3.895
X4.56Y-3.105
X4.565Y-3.835
X4.595Y-3.315
X4.595Y-3.655
X4.645Y-3.105
X4.645Y-3.655
X4.675Y-3.135
X4.675Y-3.685
X4.705Y-3.165
X4.705Y-3.715
X4.735Y-3.195
X4.735Y-3.745
X4.765Y-3.225
X4.765Y-3.775
X4.795Y-3.255
X4.795Y-3.805
X4.825Y-3.285
X4.825Y-3.835
X4.855Y-3.315
X4.855Y-3.865
X4.885Y-3.345
X4.885Y-3.895
X4.945Y-3.16
X5.06Y-3.555
X5.08Y-3.525
X5.105Y-3.225
X5.105Y-3.745
X5.1305Y-3.255
X5.135Y-3.715
X5.155Y-3.285
X5.165Y-3.685
X5.18Y-3.545
X5.185Y-3.315
X5.205Y-3.345
T2
X3.0Y-2.5
X3.3Y-2.5
X4.4Y-2.5
X4.7Y-2.5
X5.0Y-2.5
T0
M30
