%TF.GenerationSoftware,KiCad,Pcbnew,5.1.9+dfsg1-1*%
%TF.CreationDate,2021-03-24T19:05:18-05:00*%
%TF.ProjectId,7seg-prototype,37736567-2d70-4726-9f74-6f747970652e,1.0.0*%
%TF.SameCoordinates,Original*%
%TF.FileFunction,Copper,L2,Bot*%
%TF.FilePolarity,Positive*%
%FSLAX46Y46*%
G04 Gerber Fmt 4.6, Leading zero omitted, Abs format (unit mm)*
G04 Created by KiCad (PCBNEW 5.1.9+dfsg1-1) date 2021-03-24 19:05:18*
%MOMM*%
%LPD*%
G01*
G04 APERTURE LIST*
%TA.AperFunction,ComponentPad*%
%ADD10C,3.000000*%
%TD*%
%TA.AperFunction,ViaPad*%
%ADD11C,0.635000*%
%TD*%
%TA.AperFunction,Conductor*%
%ADD12C,0.381000*%
%TD*%
%TA.AperFunction,Conductor*%
%ADD13C,0.254000*%
%TD*%
%TA.AperFunction,Conductor*%
%ADD14C,0.100000*%
%TD*%
G04 APERTURE END LIST*
D10*
%TO.P,J5,1*%
%TO.N,Net-(J5-Pad1)*%
X127000000Y-63500000D03*
%TD*%
%TO.P,J4,1*%
%TO.N,Net-(J4-Pad1)*%
X119380000Y-63500000D03*
%TD*%
%TO.P,J3,1*%
%TO.N,Net-(J3-Pad1)*%
X111760000Y-63500000D03*
%TD*%
%TO.P,J2,1*%
%TO.N,+VDC*%
X83820000Y-63500000D03*
%TD*%
%TO.P,J1,1*%
%TO.N,GND*%
X76200000Y-63500000D03*
%TD*%
D11*
%TO.N,+VDC*%
X125603000Y-80264000D03*
%TO.N,/SEG4*%
X87249000Y-81915000D03*
X94996000Y-81915000D03*
X110109000Y-81915000D03*
X102616000Y-81915000D03*
X90170000Y-95885000D03*
X104013000Y-95885000D03*
X96393000Y-95885000D03*
X111633000Y-95885000D03*
X121031000Y-95885000D03*
X121031000Y-81915000D03*
X129667000Y-81915000D03*
%TO.N,/SEG5*%
X88773000Y-82677000D03*
X96393000Y-82677000D03*
X111633000Y-82677000D03*
X104013000Y-82677000D03*
X106807000Y-96647000D03*
X114427000Y-96647000D03*
X97790000Y-96647000D03*
X88773000Y-96647000D03*
X121793000Y-96647000D03*
X121793000Y-82677000D03*
X130314700Y-82677000D03*
%TO.N,/SEG6*%
X91567000Y-83439000D03*
X99314000Y-83439000D03*
X106807000Y-83439000D03*
X114427000Y-83439000D03*
X91567000Y-97409000D03*
X99187000Y-97409000D03*
X105537000Y-97409000D03*
X115951000Y-97409000D03*
X122555000Y-97409000D03*
X122555000Y-83439000D03*
X130937000Y-83439000D03*
%TO.N,/SEG7*%
X116713000Y-84201000D03*
X109093000Y-84201000D03*
X93853000Y-84201000D03*
X101473000Y-84201000D03*
X93091000Y-98171000D03*
X113030000Y-98171000D03*
X108331000Y-98171000D03*
X123317000Y-98171000D03*
X123317000Y-84201000D03*
X131699000Y-84201000D03*
X100711000Y-98171000D03*
%TO.N,/SEG8*%
X115189000Y-98933000D03*
X107569000Y-98933000D03*
X99949000Y-98933000D03*
X115189000Y-84963000D03*
X107569000Y-84963000D03*
X99949000Y-84963000D03*
X92329000Y-84963000D03*
X92329000Y-98933000D03*
X124079000Y-98933000D03*
X124079000Y-84963000D03*
X132207000Y-84963000D03*
%TO.N,/SEG0*%
X116713000Y-92837000D03*
X109093000Y-92837000D03*
X101473000Y-92837000D03*
X90170000Y-78867000D03*
X100711000Y-78867000D03*
X115824000Y-78867000D03*
X108204000Y-78867000D03*
X93853000Y-92837000D03*
X117983000Y-78867000D03*
X117983000Y-92837000D03*
X131572000Y-90043000D03*
%TO.N,/SEG1*%
X93091000Y-79629000D03*
X97790000Y-79629000D03*
X110109000Y-79629000D03*
X102489000Y-79629000D03*
X87376000Y-93599000D03*
X94869000Y-93599000D03*
X102616000Y-93599000D03*
X110236000Y-93599000D03*
X118745000Y-93599000D03*
X118745000Y-79629000D03*
X131191000Y-93599000D03*
%TO.N,/SEG2*%
X87376000Y-80391000D03*
X94996000Y-80391000D03*
X111633000Y-80391000D03*
X105410000Y-80391000D03*
X88773000Y-94361000D03*
X96393000Y-94361000D03*
X104140000Y-94361000D03*
X111633000Y-94361000D03*
X119507000Y-94361000D03*
X119507000Y-80391000D03*
X130429000Y-94361000D03*
%TO.N,/SEG3*%
X88773000Y-81153000D03*
X96393000Y-81153000D03*
X113030000Y-81153000D03*
X104013000Y-81153000D03*
X102616000Y-95123000D03*
X87376000Y-95123000D03*
X94869000Y-95123000D03*
X110236000Y-95123000D03*
X120269000Y-95123000D03*
X120269000Y-81153000D03*
X129667000Y-95123000D03*
%TO.N,Net-(J4-Pad1)*%
X129032000Y-89535000D03*
%TO.N,Net-(J5-Pad1)*%
X128524000Y-90297000D03*
%TD*%
D12*
%TO.N,+VDC*%
X122555000Y-77216000D02*
X125603000Y-80264000D01*
X97536000Y-77216000D02*
X122555000Y-77216000D01*
X83820000Y-63500000D02*
X97536000Y-77216000D01*
%TO.N,/SEG4*%
X94996000Y-81915000D02*
X87249000Y-81915000D01*
X102616000Y-81915000D02*
X94996000Y-81915000D01*
X110109000Y-81915000D02*
X102616000Y-81915000D01*
X96393000Y-95885000D02*
X90170000Y-95885000D01*
X104013000Y-95885000D02*
X96393000Y-95885000D01*
X111633000Y-95885000D02*
X104013000Y-95885000D01*
X116840000Y-81915000D02*
X110109000Y-81915000D01*
X111633000Y-95885000D02*
X121031000Y-95885000D01*
X121031000Y-81915000D02*
X116840000Y-81915000D01*
X129667000Y-81915000D02*
X121031000Y-81915000D01*
%TO.N,/SEG5*%
X88773000Y-82677000D02*
X96393000Y-82677000D01*
X96393000Y-82677000D02*
X104013000Y-82677000D01*
X106807000Y-96647000D02*
X114427000Y-96647000D01*
X97790000Y-96647000D02*
X106807000Y-96647000D01*
X88773000Y-96647000D02*
X97790000Y-96647000D01*
X114427000Y-96647000D02*
X116459000Y-96647000D01*
X116459000Y-96647000D02*
X116840000Y-96647000D01*
X116840000Y-96647000D02*
X121793000Y-96647000D01*
X121793000Y-82677000D02*
X111379000Y-82677000D01*
X111379000Y-82677000D02*
X111633000Y-82677000D01*
X104013000Y-82677000D02*
X111379000Y-82677000D01*
X121793000Y-82677000D02*
X130314700Y-82677000D01*
%TO.N,/SEG6*%
X99314000Y-83439000D02*
X91567000Y-83439000D01*
X106807000Y-83439000D02*
X99314000Y-83439000D01*
X114427000Y-83439000D02*
X106807000Y-83439000D01*
X99187000Y-97409000D02*
X91567000Y-97409000D01*
X105537000Y-97409000D02*
X99187000Y-97409000D01*
X115951000Y-97409000D02*
X105537000Y-97409000D01*
X116840000Y-97409000D02*
X115951000Y-97409000D01*
X116840000Y-97409000D02*
X122555000Y-97409000D01*
X122555000Y-83439000D02*
X114427000Y-83439000D01*
X130937000Y-83439000D02*
X122555000Y-83439000D01*
%TO.N,/SEG7*%
X101473000Y-84201000D02*
X116840000Y-84201000D01*
X93853000Y-84201000D02*
X101473000Y-84201000D01*
X113030000Y-98171000D02*
X116840000Y-98171000D01*
X108331000Y-98171000D02*
X113030000Y-98171000D01*
X116840000Y-98171000D02*
X123317000Y-98171000D01*
X123317000Y-84201000D02*
X116713000Y-84201000D01*
X123317000Y-84201000D02*
X131699000Y-84201000D01*
X100711000Y-98171000D02*
X108331000Y-98171000D01*
X93091000Y-98171000D02*
X100711000Y-98171000D01*
%TO.N,/SEG8*%
X116205000Y-98933000D02*
X92329000Y-98933000D01*
X116840000Y-98933000D02*
X116205000Y-98933000D01*
X116840000Y-98933000D02*
X124079000Y-98933000D01*
X124079000Y-84963000D02*
X115189000Y-84963000D01*
X115189000Y-84963000D02*
X92329000Y-84963000D01*
X132207000Y-84963000D02*
X124079000Y-84963000D01*
%TO.N,/SEG0*%
X100711000Y-78867000D02*
X90170000Y-78867000D01*
X108204000Y-78867000D02*
X100711000Y-78867000D01*
X115824000Y-78867000D02*
X108204000Y-78867000D01*
X116840000Y-92837000D02*
X93853000Y-92837000D01*
X116840000Y-78867000D02*
X115824000Y-78867000D01*
X116840000Y-78867000D02*
X117983000Y-78867000D01*
X116840000Y-92837000D02*
X117983000Y-92837000D01*
X128778000Y-92837000D02*
X131572000Y-90043000D01*
X117983000Y-92837000D02*
X128778000Y-92837000D01*
%TO.N,/SEG1*%
X93091000Y-79629000D02*
X97790000Y-79629000D01*
X110109000Y-79629000D02*
X116840000Y-79629000D01*
X102489000Y-79629000D02*
X110109000Y-79629000D01*
X97790000Y-79629000D02*
X102489000Y-79629000D01*
X87376000Y-93599000D02*
X94869000Y-93599000D01*
X94869000Y-93599000D02*
X102616000Y-93599000D01*
X102616000Y-93599000D02*
X110236000Y-93599000D01*
X115443000Y-93599000D02*
X116815618Y-93599000D01*
X110236000Y-93599000D02*
X115443000Y-93599000D01*
X115443000Y-93599000D02*
X116840000Y-93599000D01*
X116840000Y-93599000D02*
X118745000Y-93599000D01*
X118745000Y-79629000D02*
X116840000Y-79629000D01*
X131191000Y-93599000D02*
X118745000Y-93599000D01*
%TO.N,/SEG2*%
X94996000Y-80391000D02*
X87376000Y-80391000D01*
X105410000Y-80391000D02*
X94996000Y-80391000D01*
X111633000Y-80391000D02*
X105410000Y-80391000D01*
X96393000Y-94361000D02*
X88773000Y-94361000D01*
X104140000Y-94361000D02*
X96393000Y-94361000D01*
X111633000Y-94361000D02*
X104140000Y-94361000D01*
X116840000Y-94361000D02*
X115316000Y-94361000D01*
X115316000Y-94361000D02*
X111633000Y-94361000D01*
X116840000Y-94361000D02*
X119507000Y-94361000D01*
X119507000Y-80391000D02*
X111633000Y-80391000D01*
X130429000Y-94361000D02*
X119507000Y-94361000D01*
%TO.N,/SEG3*%
X88773000Y-81153000D02*
X96393000Y-81153000D01*
X113030000Y-81153000D02*
X116840000Y-81153000D01*
X104013000Y-81153000D02*
X113030000Y-81153000D01*
X96393000Y-81153000D02*
X104013000Y-81153000D01*
X94869000Y-95123000D02*
X102616000Y-95123000D01*
X87376000Y-95123000D02*
X94869000Y-95123000D01*
X110236000Y-95123000D02*
X116840000Y-95123000D01*
X102616000Y-95123000D02*
X110236000Y-95123000D01*
X116840000Y-95123000D02*
X117196618Y-95123000D01*
X117196618Y-95123000D02*
X120269000Y-95123000D01*
X120269000Y-81153000D02*
X116840000Y-81153000D01*
X129667000Y-95123000D02*
X120269000Y-95123000D01*
%TO.N,Net-(J4-Pad1)*%
X119380000Y-63500000D02*
X133223000Y-77343000D01*
X129032000Y-89535000D02*
X133223000Y-85344000D01*
X133223000Y-77343000D02*
X133223000Y-85344000D01*
%TO.N,Net-(J5-Pad1)*%
X133985000Y-85979000D02*
X133985000Y-70485000D01*
X129667000Y-90297000D02*
X133985000Y-85979000D01*
X133985000Y-70485000D02*
X127000000Y-63500000D01*
X128524000Y-90297000D02*
X129667000Y-90297000D01*
%TD*%
D13*
%TO.N,GND*%
X140704470Y-56614617D02*
X141687898Y-56831739D01*
X142629675Y-57188546D01*
X143510095Y-57677575D01*
X144310687Y-58288569D01*
X145014694Y-59008732D01*
X145607370Y-59822987D01*
X146076296Y-60714269D01*
X146411647Y-61663900D01*
X146607127Y-62655692D01*
X146660000Y-63520164D01*
X146660001Y-114276080D01*
X146585382Y-115304470D01*
X146368262Y-116287896D01*
X146011454Y-117229675D01*
X145522424Y-118110095D01*
X144911435Y-118910684D01*
X144191268Y-119614694D01*
X143377013Y-120207370D01*
X142485731Y-120676296D01*
X141536099Y-121011647D01*
X140544309Y-121207127D01*
X139679835Y-121260000D01*
X63523906Y-121260000D01*
X62495530Y-121185382D01*
X61512104Y-120968262D01*
X60570325Y-120611454D01*
X59689905Y-120122424D01*
X58889316Y-119511435D01*
X58185306Y-118791268D01*
X57592630Y-117977013D01*
X57123704Y-117085731D01*
X56788353Y-116136099D01*
X56592873Y-115144309D01*
X56540000Y-114279835D01*
X56540000Y-114079872D01*
X61265000Y-114079872D01*
X61265000Y-114520128D01*
X61350890Y-114951925D01*
X61519369Y-115358669D01*
X61763962Y-115724729D01*
X62075271Y-116036038D01*
X62441331Y-116280631D01*
X62848075Y-116449110D01*
X63279872Y-116535000D01*
X63720128Y-116535000D01*
X64151925Y-116449110D01*
X64558669Y-116280631D01*
X64924729Y-116036038D01*
X65236038Y-115724729D01*
X65480631Y-115358669D01*
X65649110Y-114951925D01*
X65735000Y-114520128D01*
X65735000Y-114079872D01*
X137465000Y-114079872D01*
X137465000Y-114520128D01*
X137550890Y-114951925D01*
X137719369Y-115358669D01*
X137963962Y-115724729D01*
X138275271Y-116036038D01*
X138641331Y-116280631D01*
X139048075Y-116449110D01*
X139479872Y-116535000D01*
X139920128Y-116535000D01*
X140351925Y-116449110D01*
X140758669Y-116280631D01*
X141124729Y-116036038D01*
X141436038Y-115724729D01*
X141680631Y-115358669D01*
X141849110Y-114951925D01*
X141935000Y-114520128D01*
X141935000Y-114079872D01*
X141849110Y-113648075D01*
X141680631Y-113241331D01*
X141436038Y-112875271D01*
X141124729Y-112563962D01*
X140758669Y-112319369D01*
X140351925Y-112150890D01*
X139920128Y-112065000D01*
X139479872Y-112065000D01*
X139048075Y-112150890D01*
X138641331Y-112319369D01*
X138275271Y-112563962D01*
X137963962Y-112875271D01*
X137719369Y-113241331D01*
X137550890Y-113648075D01*
X137465000Y-114079872D01*
X65735000Y-114079872D01*
X65649110Y-113648075D01*
X65480631Y-113241331D01*
X65236038Y-112875271D01*
X64924729Y-112563962D01*
X64558669Y-112319369D01*
X64151925Y-112150890D01*
X63720128Y-112065000D01*
X63279872Y-112065000D01*
X62848075Y-112150890D01*
X62441331Y-112319369D01*
X62075271Y-112563962D01*
X61763962Y-112875271D01*
X61519369Y-113241331D01*
X61350890Y-113648075D01*
X61265000Y-114079872D01*
X56540000Y-114079872D01*
X56540000Y-63523920D01*
X56557707Y-63279872D01*
X61265000Y-63279872D01*
X61265000Y-63720128D01*
X61350890Y-64151925D01*
X61519369Y-64558669D01*
X61763962Y-64924729D01*
X62075271Y-65236038D01*
X62441331Y-65480631D01*
X62848075Y-65649110D01*
X63279872Y-65735000D01*
X63720128Y-65735000D01*
X64151925Y-65649110D01*
X64558669Y-65480631D01*
X64924729Y-65236038D01*
X65169114Y-64991653D01*
X74887952Y-64991653D01*
X75043962Y-65307214D01*
X75418745Y-65498020D01*
X75823551Y-65612044D01*
X76242824Y-65644902D01*
X76660451Y-65595334D01*
X77060383Y-65465243D01*
X77356038Y-65307214D01*
X77512048Y-64991653D01*
X76200000Y-63679605D01*
X74887952Y-64991653D01*
X65169114Y-64991653D01*
X65236038Y-64924729D01*
X65480631Y-64558669D01*
X65649110Y-64151925D01*
X65735000Y-63720128D01*
X65735000Y-63542824D01*
X74055098Y-63542824D01*
X74104666Y-63960451D01*
X74234757Y-64360383D01*
X74392786Y-64656038D01*
X74708347Y-64812048D01*
X76020395Y-63500000D01*
X76379605Y-63500000D01*
X77691653Y-64812048D01*
X78007214Y-64656038D01*
X78198020Y-64281255D01*
X78312044Y-63876449D01*
X78344902Y-63457176D01*
X78325027Y-63289721D01*
X81685000Y-63289721D01*
X81685000Y-63710279D01*
X81767047Y-64122756D01*
X81927988Y-64511302D01*
X82161637Y-64860983D01*
X82459017Y-65158363D01*
X82808698Y-65392012D01*
X83197244Y-65552953D01*
X83609721Y-65635000D01*
X84030279Y-65635000D01*
X84442756Y-65552953D01*
X84628559Y-65475991D01*
X96923607Y-77771040D01*
X96949459Y-77802541D01*
X97013596Y-77855177D01*
X97075157Y-77905699D01*
X97091623Y-77914500D01*
X97218566Y-77982353D01*
X97374174Y-78029556D01*
X97495447Y-78041500D01*
X90649007Y-78041500D01*
X90621178Y-78022905D01*
X90447834Y-77951104D01*
X90263813Y-77914500D01*
X90076187Y-77914500D01*
X89892166Y-77951104D01*
X89718822Y-78022905D01*
X89562816Y-78127145D01*
X89430145Y-78259816D01*
X89325905Y-78415822D01*
X89254104Y-78589166D01*
X89217500Y-78773187D01*
X89217500Y-78960813D01*
X89254104Y-79144834D01*
X89325905Y-79318178D01*
X89430145Y-79474184D01*
X89521461Y-79565500D01*
X87855007Y-79565500D01*
X87827178Y-79546905D01*
X87653834Y-79475104D01*
X87469813Y-79438500D01*
X87282187Y-79438500D01*
X87098166Y-79475104D01*
X86924822Y-79546905D01*
X86768816Y-79651145D01*
X86636145Y-79783816D01*
X86531905Y-79939822D01*
X86460104Y-80113166D01*
X86423500Y-80297187D01*
X86423500Y-80484813D01*
X86460104Y-80668834D01*
X86531905Y-80842178D01*
X86636145Y-80998184D01*
X86744497Y-81106536D01*
X86641816Y-81175145D01*
X86509145Y-81307816D01*
X86404905Y-81463822D01*
X86333104Y-81637166D01*
X86296500Y-81821187D01*
X86296500Y-82008813D01*
X86333104Y-82192834D01*
X86404905Y-82366178D01*
X86509145Y-82522184D01*
X86641816Y-82654855D01*
X86797822Y-82759095D01*
X86971166Y-82830896D01*
X87155187Y-82867500D01*
X87342813Y-82867500D01*
X87526834Y-82830896D01*
X87700178Y-82759095D01*
X87728007Y-82740500D01*
X87820500Y-82740500D01*
X87820500Y-82770813D01*
X87857104Y-82954834D01*
X87928905Y-83128178D01*
X88033145Y-83284184D01*
X88165816Y-83416855D01*
X88321822Y-83521095D01*
X88495166Y-83592896D01*
X88679187Y-83629500D01*
X88866813Y-83629500D01*
X89050834Y-83592896D01*
X89224178Y-83521095D01*
X89252007Y-83502500D01*
X90614500Y-83502500D01*
X90614500Y-83532813D01*
X90651104Y-83716834D01*
X90722905Y-83890178D01*
X90827145Y-84046184D01*
X90959816Y-84178855D01*
X91115822Y-84283095D01*
X91289166Y-84354896D01*
X91473187Y-84391500D01*
X91565302Y-84391500D01*
X91484905Y-84511822D01*
X91413104Y-84685166D01*
X91376500Y-84869187D01*
X91376500Y-85056813D01*
X91413104Y-85240834D01*
X91484905Y-85414178D01*
X91589145Y-85570184D01*
X91721816Y-85702855D01*
X91877822Y-85807095D01*
X92051166Y-85878896D01*
X92235187Y-85915500D01*
X92422813Y-85915500D01*
X92606834Y-85878896D01*
X92780178Y-85807095D01*
X92808007Y-85788500D01*
X99469993Y-85788500D01*
X99497822Y-85807095D01*
X99671166Y-85878896D01*
X99855187Y-85915500D01*
X100042813Y-85915500D01*
X100226834Y-85878896D01*
X100400178Y-85807095D01*
X100428007Y-85788500D01*
X107089993Y-85788500D01*
X107117822Y-85807095D01*
X107291166Y-85878896D01*
X107475187Y-85915500D01*
X107662813Y-85915500D01*
X107846834Y-85878896D01*
X108020178Y-85807095D01*
X108048007Y-85788500D01*
X114709993Y-85788500D01*
X114737822Y-85807095D01*
X114911166Y-85878896D01*
X115095187Y-85915500D01*
X115282813Y-85915500D01*
X115466834Y-85878896D01*
X115640178Y-85807095D01*
X115668007Y-85788500D01*
X123599993Y-85788500D01*
X123627822Y-85807095D01*
X123801166Y-85878896D01*
X123985187Y-85915500D01*
X124172813Y-85915500D01*
X124356834Y-85878896D01*
X124530178Y-85807095D01*
X124558007Y-85788500D01*
X131611067Y-85788500D01*
X128786994Y-88612574D01*
X128754166Y-88619104D01*
X128580822Y-88690905D01*
X128424816Y-88795145D01*
X128292145Y-88927816D01*
X128187905Y-89083822D01*
X128116104Y-89257166D01*
X128079500Y-89441187D01*
X128079500Y-89450139D01*
X128072822Y-89452905D01*
X127916816Y-89557145D01*
X127784145Y-89689816D01*
X127679905Y-89845822D01*
X127608104Y-90019166D01*
X127571500Y-90203187D01*
X127571500Y-90390813D01*
X127608104Y-90574834D01*
X127679905Y-90748178D01*
X127784145Y-90904184D01*
X127916816Y-91036855D01*
X128072822Y-91141095D01*
X128246166Y-91212896D01*
X128430187Y-91249500D01*
X128617813Y-91249500D01*
X128801834Y-91212896D01*
X128975178Y-91141095D01*
X129003007Y-91122500D01*
X129325067Y-91122500D01*
X128436068Y-92011500D01*
X118462007Y-92011500D01*
X118434178Y-91992905D01*
X118260834Y-91921104D01*
X118076813Y-91884500D01*
X117889187Y-91884500D01*
X117705166Y-91921104D01*
X117531822Y-91992905D01*
X117503993Y-92011500D01*
X117192007Y-92011500D01*
X117164178Y-91992905D01*
X116990834Y-91921104D01*
X116806813Y-91884500D01*
X116619187Y-91884500D01*
X116435166Y-91921104D01*
X116261822Y-91992905D01*
X116233993Y-92011500D01*
X109572007Y-92011500D01*
X109544178Y-91992905D01*
X109370834Y-91921104D01*
X109186813Y-91884500D01*
X108999187Y-91884500D01*
X108815166Y-91921104D01*
X108641822Y-91992905D01*
X108613993Y-92011500D01*
X101952007Y-92011500D01*
X101924178Y-91992905D01*
X101750834Y-91921104D01*
X101566813Y-91884500D01*
X101379187Y-91884500D01*
X101195166Y-91921104D01*
X101021822Y-91992905D01*
X100993993Y-92011500D01*
X94332007Y-92011500D01*
X94304178Y-91992905D01*
X94130834Y-91921104D01*
X93946813Y-91884500D01*
X93759187Y-91884500D01*
X93575166Y-91921104D01*
X93401822Y-91992905D01*
X93245816Y-92097145D01*
X93113145Y-92229816D01*
X93008905Y-92385822D01*
X92937104Y-92559166D01*
X92900500Y-92743187D01*
X92900500Y-92773500D01*
X87855007Y-92773500D01*
X87827178Y-92754905D01*
X87653834Y-92683104D01*
X87469813Y-92646500D01*
X87282187Y-92646500D01*
X87098166Y-92683104D01*
X86924822Y-92754905D01*
X86768816Y-92859145D01*
X86636145Y-92991816D01*
X86531905Y-93147822D01*
X86460104Y-93321166D01*
X86423500Y-93505187D01*
X86423500Y-93692813D01*
X86460104Y-93876834D01*
X86531905Y-94050178D01*
X86636145Y-94206184D01*
X86768816Y-94338855D01*
X86801958Y-94361000D01*
X86768816Y-94383145D01*
X86636145Y-94515816D01*
X86531905Y-94671822D01*
X86460104Y-94845166D01*
X86423500Y-95029187D01*
X86423500Y-95216813D01*
X86460104Y-95400834D01*
X86531905Y-95574178D01*
X86636145Y-95730184D01*
X86768816Y-95862855D01*
X86924822Y-95967095D01*
X87098166Y-96038896D01*
X87282187Y-96075500D01*
X87469813Y-96075500D01*
X87653834Y-96038896D01*
X87827178Y-95967095D01*
X87855007Y-95948500D01*
X88124461Y-95948500D01*
X88033145Y-96039816D01*
X87928905Y-96195822D01*
X87857104Y-96369166D01*
X87820500Y-96553187D01*
X87820500Y-96740813D01*
X87857104Y-96924834D01*
X87928905Y-97098178D01*
X88033145Y-97254184D01*
X88165816Y-97386855D01*
X88321822Y-97491095D01*
X88495166Y-97562896D01*
X88679187Y-97599500D01*
X88866813Y-97599500D01*
X89050834Y-97562896D01*
X89224178Y-97491095D01*
X89252007Y-97472500D01*
X90614500Y-97472500D01*
X90614500Y-97502813D01*
X90651104Y-97686834D01*
X90722905Y-97860178D01*
X90827145Y-98016184D01*
X90959816Y-98148855D01*
X91115822Y-98253095D01*
X91289166Y-98324896D01*
X91473187Y-98361500D01*
X91565302Y-98361500D01*
X91484905Y-98481822D01*
X91413104Y-98655166D01*
X91376500Y-98839187D01*
X91376500Y-99026813D01*
X91413104Y-99210834D01*
X91484905Y-99384178D01*
X91589145Y-99540184D01*
X91721816Y-99672855D01*
X91877822Y-99777095D01*
X92051166Y-99848896D01*
X92235187Y-99885500D01*
X92422813Y-99885500D01*
X92606834Y-99848896D01*
X92780178Y-99777095D01*
X92808007Y-99758500D01*
X99469993Y-99758500D01*
X99497822Y-99777095D01*
X99671166Y-99848896D01*
X99855187Y-99885500D01*
X100042813Y-99885500D01*
X100226834Y-99848896D01*
X100400178Y-99777095D01*
X100428007Y-99758500D01*
X107089993Y-99758500D01*
X107117822Y-99777095D01*
X107291166Y-99848896D01*
X107475187Y-99885500D01*
X107662813Y-99885500D01*
X107846834Y-99848896D01*
X108020178Y-99777095D01*
X108048007Y-99758500D01*
X114709993Y-99758500D01*
X114737822Y-99777095D01*
X114911166Y-99848896D01*
X115095187Y-99885500D01*
X115282813Y-99885500D01*
X115466834Y-99848896D01*
X115640178Y-99777095D01*
X115668007Y-99758500D01*
X123599993Y-99758500D01*
X123627822Y-99777095D01*
X123801166Y-99848896D01*
X123985187Y-99885500D01*
X124172813Y-99885500D01*
X124356834Y-99848896D01*
X124530178Y-99777095D01*
X124686184Y-99672855D01*
X124818855Y-99540184D01*
X124923095Y-99384178D01*
X124994896Y-99210834D01*
X125031500Y-99026813D01*
X125031500Y-98839187D01*
X124994896Y-98655166D01*
X124923095Y-98481822D01*
X124818855Y-98325816D01*
X124686184Y-98193145D01*
X124530178Y-98088905D01*
X124356834Y-98017104D01*
X124253459Y-97996541D01*
X124232896Y-97893166D01*
X124161095Y-97719822D01*
X124056855Y-97563816D01*
X123924184Y-97431145D01*
X123768178Y-97326905D01*
X123594834Y-97255104D01*
X123491459Y-97234541D01*
X123470896Y-97131166D01*
X123399095Y-96957822D01*
X123294855Y-96801816D01*
X123162184Y-96669145D01*
X123006178Y-96564905D01*
X122832834Y-96493104D01*
X122729459Y-96472541D01*
X122708896Y-96369166D01*
X122637095Y-96195822D01*
X122532855Y-96039816D01*
X122441539Y-95948500D01*
X129187993Y-95948500D01*
X129215822Y-95967095D01*
X129389166Y-96038896D01*
X129573187Y-96075500D01*
X129760813Y-96075500D01*
X129944834Y-96038896D01*
X130118178Y-95967095D01*
X130274184Y-95862855D01*
X130406855Y-95730184D01*
X130511095Y-95574178D01*
X130582896Y-95400834D01*
X130603459Y-95297459D01*
X130706834Y-95276896D01*
X130880178Y-95205095D01*
X131036184Y-95100855D01*
X131168855Y-94968184D01*
X131273095Y-94812178D01*
X131344896Y-94638834D01*
X131365459Y-94535459D01*
X131468834Y-94514896D01*
X131642178Y-94443095D01*
X131798184Y-94338855D01*
X131930855Y-94206184D01*
X132035095Y-94050178D01*
X132106896Y-93876834D01*
X132143500Y-93692813D01*
X132143500Y-93505187D01*
X132106896Y-93321166D01*
X132035095Y-93147822D01*
X131930855Y-92991816D01*
X131798184Y-92859145D01*
X131642178Y-92754905D01*
X131468834Y-92683104D01*
X131284813Y-92646500D01*
X131097187Y-92646500D01*
X130913166Y-92683104D01*
X130739822Y-92754905D01*
X130711993Y-92773500D01*
X130008932Y-92773500D01*
X131817008Y-90965425D01*
X131849834Y-90958896D01*
X132023178Y-90887095D01*
X132179184Y-90782855D01*
X132311855Y-90650184D01*
X132416095Y-90494178D01*
X132487896Y-90320834D01*
X132524500Y-90136813D01*
X132524500Y-89949187D01*
X132487896Y-89765166D01*
X132416095Y-89591822D01*
X132311855Y-89435816D01*
X132179184Y-89303145D01*
X132023178Y-89198905D01*
X131959078Y-89172354D01*
X134540041Y-86591392D01*
X134571541Y-86565541D01*
X134624177Y-86501404D01*
X134674699Y-86439843D01*
X134751353Y-86296434D01*
X134788646Y-86173494D01*
X134798556Y-86140826D01*
X134810500Y-86019553D01*
X134810500Y-86019551D01*
X134814494Y-85979001D01*
X134810500Y-85938450D01*
X134810500Y-70525550D01*
X134814494Y-70485000D01*
X134810500Y-70444447D01*
X134798556Y-70323174D01*
X134751353Y-70167566D01*
X134674699Y-70024157D01*
X134597392Y-69929958D01*
X134597389Y-69929955D01*
X134571541Y-69898459D01*
X134540045Y-69872611D01*
X128975991Y-64308559D01*
X129052953Y-64122756D01*
X129135000Y-63710279D01*
X129135000Y-63289721D01*
X129133041Y-63279872D01*
X137465000Y-63279872D01*
X137465000Y-63720128D01*
X137550890Y-64151925D01*
X137719369Y-64558669D01*
X137963962Y-64924729D01*
X138275271Y-65236038D01*
X138641331Y-65480631D01*
X139048075Y-65649110D01*
X139479872Y-65735000D01*
X139920128Y-65735000D01*
X140351925Y-65649110D01*
X140758669Y-65480631D01*
X141124729Y-65236038D01*
X141436038Y-64924729D01*
X141680631Y-64558669D01*
X141849110Y-64151925D01*
X141935000Y-63720128D01*
X141935000Y-63279872D01*
X141849110Y-62848075D01*
X141680631Y-62441331D01*
X141436038Y-62075271D01*
X141124729Y-61763962D01*
X140758669Y-61519369D01*
X140351925Y-61350890D01*
X139920128Y-61265000D01*
X139479872Y-61265000D01*
X139048075Y-61350890D01*
X138641331Y-61519369D01*
X138275271Y-61763962D01*
X137963962Y-62075271D01*
X137719369Y-62441331D01*
X137550890Y-62848075D01*
X137465000Y-63279872D01*
X129133041Y-63279872D01*
X129052953Y-62877244D01*
X128892012Y-62488698D01*
X128658363Y-62139017D01*
X128360983Y-61841637D01*
X128011302Y-61607988D01*
X127622756Y-61447047D01*
X127210279Y-61365000D01*
X126789721Y-61365000D01*
X126377244Y-61447047D01*
X125988698Y-61607988D01*
X125639017Y-61841637D01*
X125341637Y-62139017D01*
X125107988Y-62488698D01*
X124947047Y-62877244D01*
X124865000Y-63289721D01*
X124865000Y-63710279D01*
X124947047Y-64122756D01*
X125107988Y-64511302D01*
X125341637Y-64860983D01*
X125639017Y-65158363D01*
X125988698Y-65392012D01*
X126377244Y-65552953D01*
X126789721Y-65635000D01*
X127210279Y-65635000D01*
X127622756Y-65552953D01*
X127808559Y-65475991D01*
X133159501Y-70826935D01*
X133159501Y-76112068D01*
X121355991Y-64308559D01*
X121432953Y-64122756D01*
X121515000Y-63710279D01*
X121515000Y-63289721D01*
X121432953Y-62877244D01*
X121272012Y-62488698D01*
X121038363Y-62139017D01*
X120740983Y-61841637D01*
X120391302Y-61607988D01*
X120002756Y-61447047D01*
X119590279Y-61365000D01*
X119169721Y-61365000D01*
X118757244Y-61447047D01*
X118368698Y-61607988D01*
X118019017Y-61841637D01*
X117721637Y-62139017D01*
X117487988Y-62488698D01*
X117327047Y-62877244D01*
X117245000Y-63289721D01*
X117245000Y-63710279D01*
X117327047Y-64122756D01*
X117487988Y-64511302D01*
X117721637Y-64860983D01*
X118019017Y-65158363D01*
X118368698Y-65392012D01*
X118757244Y-65552953D01*
X119169721Y-65635000D01*
X119590279Y-65635000D01*
X120002756Y-65552953D01*
X120188559Y-65475991D01*
X132397500Y-77684933D01*
X132397501Y-83552462D01*
X132306184Y-83461145D01*
X132150178Y-83356905D01*
X131976834Y-83285104D01*
X131873459Y-83264541D01*
X131852896Y-83161166D01*
X131781095Y-82987822D01*
X131676855Y-82831816D01*
X131544184Y-82699145D01*
X131388178Y-82594905D01*
X131258878Y-82541347D01*
X131230596Y-82399166D01*
X131158795Y-82225822D01*
X131054555Y-82069816D01*
X130921884Y-81937145D01*
X130765878Y-81832905D01*
X130608897Y-81767882D01*
X130582896Y-81637166D01*
X130511095Y-81463822D01*
X130406855Y-81307816D01*
X130274184Y-81175145D01*
X130118178Y-81070905D01*
X129944834Y-80999104D01*
X129760813Y-80962500D01*
X129573187Y-80962500D01*
X129389166Y-80999104D01*
X129215822Y-81070905D01*
X129187993Y-81089500D01*
X126082007Y-81089500D01*
X126210184Y-81003855D01*
X126342855Y-80871184D01*
X126447095Y-80715178D01*
X126518896Y-80541834D01*
X126555500Y-80357813D01*
X126555500Y-80170187D01*
X126518896Y-79986166D01*
X126447095Y-79812822D01*
X126342855Y-79656816D01*
X126210184Y-79524145D01*
X126054178Y-79419905D01*
X125880834Y-79348104D01*
X125848007Y-79341574D01*
X123167398Y-76660966D01*
X123141541Y-76629459D01*
X123015842Y-76526301D01*
X122872434Y-76449647D01*
X122716826Y-76402444D01*
X122595553Y-76390500D01*
X122595550Y-76390500D01*
X122555000Y-76386506D01*
X122514450Y-76390500D01*
X97877933Y-76390500D01*
X85795991Y-64308559D01*
X85872953Y-64122756D01*
X85955000Y-63710279D01*
X85955000Y-63289721D01*
X109625000Y-63289721D01*
X109625000Y-63710279D01*
X109707047Y-64122756D01*
X109867988Y-64511302D01*
X110101637Y-64860983D01*
X110399017Y-65158363D01*
X110748698Y-65392012D01*
X111137244Y-65552953D01*
X111549721Y-65635000D01*
X111970279Y-65635000D01*
X112382756Y-65552953D01*
X112771302Y-65392012D01*
X113120983Y-65158363D01*
X113418363Y-64860983D01*
X113652012Y-64511302D01*
X113812953Y-64122756D01*
X113895000Y-63710279D01*
X113895000Y-63289721D01*
X113812953Y-62877244D01*
X113652012Y-62488698D01*
X113418363Y-62139017D01*
X113120983Y-61841637D01*
X112771302Y-61607988D01*
X112382756Y-61447047D01*
X111970279Y-61365000D01*
X111549721Y-61365000D01*
X111137244Y-61447047D01*
X110748698Y-61607988D01*
X110399017Y-61841637D01*
X110101637Y-62139017D01*
X109867988Y-62488698D01*
X109707047Y-62877244D01*
X109625000Y-63289721D01*
X85955000Y-63289721D01*
X85872953Y-62877244D01*
X85712012Y-62488698D01*
X85478363Y-62139017D01*
X85180983Y-61841637D01*
X84831302Y-61607988D01*
X84442756Y-61447047D01*
X84030279Y-61365000D01*
X83609721Y-61365000D01*
X83197244Y-61447047D01*
X82808698Y-61607988D01*
X82459017Y-61841637D01*
X82161637Y-62139017D01*
X81927988Y-62488698D01*
X81767047Y-62877244D01*
X81685000Y-63289721D01*
X78325027Y-63289721D01*
X78295334Y-63039549D01*
X78165243Y-62639617D01*
X78007214Y-62343962D01*
X77691653Y-62187952D01*
X76379605Y-63500000D01*
X76020395Y-63500000D01*
X74708347Y-62187952D01*
X74392786Y-62343962D01*
X74201980Y-62718745D01*
X74087956Y-63123551D01*
X74055098Y-63542824D01*
X65735000Y-63542824D01*
X65735000Y-63279872D01*
X65649110Y-62848075D01*
X65480631Y-62441331D01*
X65236038Y-62075271D01*
X65169114Y-62008347D01*
X74887952Y-62008347D01*
X76200000Y-63320395D01*
X77512048Y-62008347D01*
X77356038Y-61692786D01*
X76981255Y-61501980D01*
X76576449Y-61387956D01*
X76157176Y-61355098D01*
X75739549Y-61404666D01*
X75339617Y-61534757D01*
X75043962Y-61692786D01*
X74887952Y-62008347D01*
X65169114Y-62008347D01*
X64924729Y-61763962D01*
X64558669Y-61519369D01*
X64151925Y-61350890D01*
X63720128Y-61265000D01*
X63279872Y-61265000D01*
X62848075Y-61350890D01*
X62441331Y-61519369D01*
X62075271Y-61763962D01*
X61763962Y-62075271D01*
X61519369Y-62441331D01*
X61350890Y-62848075D01*
X61265000Y-63279872D01*
X56557707Y-63279872D01*
X56614617Y-62495530D01*
X56831739Y-61512102D01*
X57188546Y-60570325D01*
X57677575Y-59689905D01*
X58288569Y-58889313D01*
X59008732Y-58185306D01*
X59822987Y-57592630D01*
X60714269Y-57123704D01*
X61663900Y-56788353D01*
X62655692Y-56592873D01*
X63520164Y-56540000D01*
X139676080Y-56540000D01*
X140704470Y-56614617D01*
%TA.AperFunction,Conductor*%
D14*
G36*
X140704470Y-56614617D02*
G01*
X141687898Y-56831739D01*
X142629675Y-57188546D01*
X143510095Y-57677575D01*
X144310687Y-58288569D01*
X145014694Y-59008732D01*
X145607370Y-59822987D01*
X146076296Y-60714269D01*
X146411647Y-61663900D01*
X146607127Y-62655692D01*
X146660000Y-63520164D01*
X146660001Y-114276080D01*
X146585382Y-115304470D01*
X146368262Y-116287896D01*
X146011454Y-117229675D01*
X145522424Y-118110095D01*
X144911435Y-118910684D01*
X144191268Y-119614694D01*
X143377013Y-120207370D01*
X142485731Y-120676296D01*
X141536099Y-121011647D01*
X140544309Y-121207127D01*
X139679835Y-121260000D01*
X63523906Y-121260000D01*
X62495530Y-121185382D01*
X61512104Y-120968262D01*
X60570325Y-120611454D01*
X59689905Y-120122424D01*
X58889316Y-119511435D01*
X58185306Y-118791268D01*
X57592630Y-117977013D01*
X57123704Y-117085731D01*
X56788353Y-116136099D01*
X56592873Y-115144309D01*
X56540000Y-114279835D01*
X56540000Y-114079872D01*
X61265000Y-114079872D01*
X61265000Y-114520128D01*
X61350890Y-114951925D01*
X61519369Y-115358669D01*
X61763962Y-115724729D01*
X62075271Y-116036038D01*
X62441331Y-116280631D01*
X62848075Y-116449110D01*
X63279872Y-116535000D01*
X63720128Y-116535000D01*
X64151925Y-116449110D01*
X64558669Y-116280631D01*
X64924729Y-116036038D01*
X65236038Y-115724729D01*
X65480631Y-115358669D01*
X65649110Y-114951925D01*
X65735000Y-114520128D01*
X65735000Y-114079872D01*
X137465000Y-114079872D01*
X137465000Y-114520128D01*
X137550890Y-114951925D01*
X137719369Y-115358669D01*
X137963962Y-115724729D01*
X138275271Y-116036038D01*
X138641331Y-116280631D01*
X139048075Y-116449110D01*
X139479872Y-116535000D01*
X139920128Y-116535000D01*
X140351925Y-116449110D01*
X140758669Y-116280631D01*
X141124729Y-116036038D01*
X141436038Y-115724729D01*
X141680631Y-115358669D01*
X141849110Y-114951925D01*
X141935000Y-114520128D01*
X141935000Y-114079872D01*
X141849110Y-113648075D01*
X141680631Y-113241331D01*
X141436038Y-112875271D01*
X141124729Y-112563962D01*
X140758669Y-112319369D01*
X140351925Y-112150890D01*
X139920128Y-112065000D01*
X139479872Y-112065000D01*
X139048075Y-112150890D01*
X138641331Y-112319369D01*
X138275271Y-112563962D01*
X137963962Y-112875271D01*
X137719369Y-113241331D01*
X137550890Y-113648075D01*
X137465000Y-114079872D01*
X65735000Y-114079872D01*
X65649110Y-113648075D01*
X65480631Y-113241331D01*
X65236038Y-112875271D01*
X64924729Y-112563962D01*
X64558669Y-112319369D01*
X64151925Y-112150890D01*
X63720128Y-112065000D01*
X63279872Y-112065000D01*
X62848075Y-112150890D01*
X62441331Y-112319369D01*
X62075271Y-112563962D01*
X61763962Y-112875271D01*
X61519369Y-113241331D01*
X61350890Y-113648075D01*
X61265000Y-114079872D01*
X56540000Y-114079872D01*
X56540000Y-63523920D01*
X56557707Y-63279872D01*
X61265000Y-63279872D01*
X61265000Y-63720128D01*
X61350890Y-64151925D01*
X61519369Y-64558669D01*
X61763962Y-64924729D01*
X62075271Y-65236038D01*
X62441331Y-65480631D01*
X62848075Y-65649110D01*
X63279872Y-65735000D01*
X63720128Y-65735000D01*
X64151925Y-65649110D01*
X64558669Y-65480631D01*
X64924729Y-65236038D01*
X65169114Y-64991653D01*
X74887952Y-64991653D01*
X75043962Y-65307214D01*
X75418745Y-65498020D01*
X75823551Y-65612044D01*
X76242824Y-65644902D01*
X76660451Y-65595334D01*
X77060383Y-65465243D01*
X77356038Y-65307214D01*
X77512048Y-64991653D01*
X76200000Y-63679605D01*
X74887952Y-64991653D01*
X65169114Y-64991653D01*
X65236038Y-64924729D01*
X65480631Y-64558669D01*
X65649110Y-64151925D01*
X65735000Y-63720128D01*
X65735000Y-63542824D01*
X74055098Y-63542824D01*
X74104666Y-63960451D01*
X74234757Y-64360383D01*
X74392786Y-64656038D01*
X74708347Y-64812048D01*
X76020395Y-63500000D01*
X76379605Y-63500000D01*
X77691653Y-64812048D01*
X78007214Y-64656038D01*
X78198020Y-64281255D01*
X78312044Y-63876449D01*
X78344902Y-63457176D01*
X78325027Y-63289721D01*
X81685000Y-63289721D01*
X81685000Y-63710279D01*
X81767047Y-64122756D01*
X81927988Y-64511302D01*
X82161637Y-64860983D01*
X82459017Y-65158363D01*
X82808698Y-65392012D01*
X83197244Y-65552953D01*
X83609721Y-65635000D01*
X84030279Y-65635000D01*
X84442756Y-65552953D01*
X84628559Y-65475991D01*
X96923607Y-77771040D01*
X96949459Y-77802541D01*
X97013596Y-77855177D01*
X97075157Y-77905699D01*
X97091623Y-77914500D01*
X97218566Y-77982353D01*
X97374174Y-78029556D01*
X97495447Y-78041500D01*
X90649007Y-78041500D01*
X90621178Y-78022905D01*
X90447834Y-77951104D01*
X90263813Y-77914500D01*
X90076187Y-77914500D01*
X89892166Y-77951104D01*
X89718822Y-78022905D01*
X89562816Y-78127145D01*
X89430145Y-78259816D01*
X89325905Y-78415822D01*
X89254104Y-78589166D01*
X89217500Y-78773187D01*
X89217500Y-78960813D01*
X89254104Y-79144834D01*
X89325905Y-79318178D01*
X89430145Y-79474184D01*
X89521461Y-79565500D01*
X87855007Y-79565500D01*
X87827178Y-79546905D01*
X87653834Y-79475104D01*
X87469813Y-79438500D01*
X87282187Y-79438500D01*
X87098166Y-79475104D01*
X86924822Y-79546905D01*
X86768816Y-79651145D01*
X86636145Y-79783816D01*
X86531905Y-79939822D01*
X86460104Y-80113166D01*
X86423500Y-80297187D01*
X86423500Y-80484813D01*
X86460104Y-80668834D01*
X86531905Y-80842178D01*
X86636145Y-80998184D01*
X86744497Y-81106536D01*
X86641816Y-81175145D01*
X86509145Y-81307816D01*
X86404905Y-81463822D01*
X86333104Y-81637166D01*
X86296500Y-81821187D01*
X86296500Y-82008813D01*
X86333104Y-82192834D01*
X86404905Y-82366178D01*
X86509145Y-82522184D01*
X86641816Y-82654855D01*
X86797822Y-82759095D01*
X86971166Y-82830896D01*
X87155187Y-82867500D01*
X87342813Y-82867500D01*
X87526834Y-82830896D01*
X87700178Y-82759095D01*
X87728007Y-82740500D01*
X87820500Y-82740500D01*
X87820500Y-82770813D01*
X87857104Y-82954834D01*
X87928905Y-83128178D01*
X88033145Y-83284184D01*
X88165816Y-83416855D01*
X88321822Y-83521095D01*
X88495166Y-83592896D01*
X88679187Y-83629500D01*
X88866813Y-83629500D01*
X89050834Y-83592896D01*
X89224178Y-83521095D01*
X89252007Y-83502500D01*
X90614500Y-83502500D01*
X90614500Y-83532813D01*
X90651104Y-83716834D01*
X90722905Y-83890178D01*
X90827145Y-84046184D01*
X90959816Y-84178855D01*
X91115822Y-84283095D01*
X91289166Y-84354896D01*
X91473187Y-84391500D01*
X91565302Y-84391500D01*
X91484905Y-84511822D01*
X91413104Y-84685166D01*
X91376500Y-84869187D01*
X91376500Y-85056813D01*
X91413104Y-85240834D01*
X91484905Y-85414178D01*
X91589145Y-85570184D01*
X91721816Y-85702855D01*
X91877822Y-85807095D01*
X92051166Y-85878896D01*
X92235187Y-85915500D01*
X92422813Y-85915500D01*
X92606834Y-85878896D01*
X92780178Y-85807095D01*
X92808007Y-85788500D01*
X99469993Y-85788500D01*
X99497822Y-85807095D01*
X99671166Y-85878896D01*
X99855187Y-85915500D01*
X100042813Y-85915500D01*
X100226834Y-85878896D01*
X100400178Y-85807095D01*
X100428007Y-85788500D01*
X107089993Y-85788500D01*
X107117822Y-85807095D01*
X107291166Y-85878896D01*
X107475187Y-85915500D01*
X107662813Y-85915500D01*
X107846834Y-85878896D01*
X108020178Y-85807095D01*
X108048007Y-85788500D01*
X114709993Y-85788500D01*
X114737822Y-85807095D01*
X114911166Y-85878896D01*
X115095187Y-85915500D01*
X115282813Y-85915500D01*
X115466834Y-85878896D01*
X115640178Y-85807095D01*
X115668007Y-85788500D01*
X123599993Y-85788500D01*
X123627822Y-85807095D01*
X123801166Y-85878896D01*
X123985187Y-85915500D01*
X124172813Y-85915500D01*
X124356834Y-85878896D01*
X124530178Y-85807095D01*
X124558007Y-85788500D01*
X131611067Y-85788500D01*
X128786994Y-88612574D01*
X128754166Y-88619104D01*
X128580822Y-88690905D01*
X128424816Y-88795145D01*
X128292145Y-88927816D01*
X128187905Y-89083822D01*
X128116104Y-89257166D01*
X128079500Y-89441187D01*
X128079500Y-89450139D01*
X128072822Y-89452905D01*
X127916816Y-89557145D01*
X127784145Y-89689816D01*
X127679905Y-89845822D01*
X127608104Y-90019166D01*
X127571500Y-90203187D01*
X127571500Y-90390813D01*
X127608104Y-90574834D01*
X127679905Y-90748178D01*
X127784145Y-90904184D01*
X127916816Y-91036855D01*
X128072822Y-91141095D01*
X128246166Y-91212896D01*
X128430187Y-91249500D01*
X128617813Y-91249500D01*
X128801834Y-91212896D01*
X128975178Y-91141095D01*
X129003007Y-91122500D01*
X129325067Y-91122500D01*
X128436068Y-92011500D01*
X118462007Y-92011500D01*
X118434178Y-91992905D01*
X118260834Y-91921104D01*
X118076813Y-91884500D01*
X117889187Y-91884500D01*
X117705166Y-91921104D01*
X117531822Y-91992905D01*
X117503993Y-92011500D01*
X117192007Y-92011500D01*
X117164178Y-91992905D01*
X116990834Y-91921104D01*
X116806813Y-91884500D01*
X116619187Y-91884500D01*
X116435166Y-91921104D01*
X116261822Y-91992905D01*
X116233993Y-92011500D01*
X109572007Y-92011500D01*
X109544178Y-91992905D01*
X109370834Y-91921104D01*
X109186813Y-91884500D01*
X108999187Y-91884500D01*
X108815166Y-91921104D01*
X108641822Y-91992905D01*
X108613993Y-92011500D01*
X101952007Y-92011500D01*
X101924178Y-91992905D01*
X101750834Y-91921104D01*
X101566813Y-91884500D01*
X101379187Y-91884500D01*
X101195166Y-91921104D01*
X101021822Y-91992905D01*
X100993993Y-92011500D01*
X94332007Y-92011500D01*
X94304178Y-91992905D01*
X94130834Y-91921104D01*
X93946813Y-91884500D01*
X93759187Y-91884500D01*
X93575166Y-91921104D01*
X93401822Y-91992905D01*
X93245816Y-92097145D01*
X93113145Y-92229816D01*
X93008905Y-92385822D01*
X92937104Y-92559166D01*
X92900500Y-92743187D01*
X92900500Y-92773500D01*
X87855007Y-92773500D01*
X87827178Y-92754905D01*
X87653834Y-92683104D01*
X87469813Y-92646500D01*
X87282187Y-92646500D01*
X87098166Y-92683104D01*
X86924822Y-92754905D01*
X86768816Y-92859145D01*
X86636145Y-92991816D01*
X86531905Y-93147822D01*
X86460104Y-93321166D01*
X86423500Y-93505187D01*
X86423500Y-93692813D01*
X86460104Y-93876834D01*
X86531905Y-94050178D01*
X86636145Y-94206184D01*
X86768816Y-94338855D01*
X86801958Y-94361000D01*
X86768816Y-94383145D01*
X86636145Y-94515816D01*
X86531905Y-94671822D01*
X86460104Y-94845166D01*
X86423500Y-95029187D01*
X86423500Y-95216813D01*
X86460104Y-95400834D01*
X86531905Y-95574178D01*
X86636145Y-95730184D01*
X86768816Y-95862855D01*
X86924822Y-95967095D01*
X87098166Y-96038896D01*
X87282187Y-96075500D01*
X87469813Y-96075500D01*
X87653834Y-96038896D01*
X87827178Y-95967095D01*
X87855007Y-95948500D01*
X88124461Y-95948500D01*
X88033145Y-96039816D01*
X87928905Y-96195822D01*
X87857104Y-96369166D01*
X87820500Y-96553187D01*
X87820500Y-96740813D01*
X87857104Y-96924834D01*
X87928905Y-97098178D01*
X88033145Y-97254184D01*
X88165816Y-97386855D01*
X88321822Y-97491095D01*
X88495166Y-97562896D01*
X88679187Y-97599500D01*
X88866813Y-97599500D01*
X89050834Y-97562896D01*
X89224178Y-97491095D01*
X89252007Y-97472500D01*
X90614500Y-97472500D01*
X90614500Y-97502813D01*
X90651104Y-97686834D01*
X90722905Y-97860178D01*
X90827145Y-98016184D01*
X90959816Y-98148855D01*
X91115822Y-98253095D01*
X91289166Y-98324896D01*
X91473187Y-98361500D01*
X91565302Y-98361500D01*
X91484905Y-98481822D01*
X91413104Y-98655166D01*
X91376500Y-98839187D01*
X91376500Y-99026813D01*
X91413104Y-99210834D01*
X91484905Y-99384178D01*
X91589145Y-99540184D01*
X91721816Y-99672855D01*
X91877822Y-99777095D01*
X92051166Y-99848896D01*
X92235187Y-99885500D01*
X92422813Y-99885500D01*
X92606834Y-99848896D01*
X92780178Y-99777095D01*
X92808007Y-99758500D01*
X99469993Y-99758500D01*
X99497822Y-99777095D01*
X99671166Y-99848896D01*
X99855187Y-99885500D01*
X100042813Y-99885500D01*
X100226834Y-99848896D01*
X100400178Y-99777095D01*
X100428007Y-99758500D01*
X107089993Y-99758500D01*
X107117822Y-99777095D01*
X107291166Y-99848896D01*
X107475187Y-99885500D01*
X107662813Y-99885500D01*
X107846834Y-99848896D01*
X108020178Y-99777095D01*
X108048007Y-99758500D01*
X114709993Y-99758500D01*
X114737822Y-99777095D01*
X114911166Y-99848896D01*
X115095187Y-99885500D01*
X115282813Y-99885500D01*
X115466834Y-99848896D01*
X115640178Y-99777095D01*
X115668007Y-99758500D01*
X123599993Y-99758500D01*
X123627822Y-99777095D01*
X123801166Y-99848896D01*
X123985187Y-99885500D01*
X124172813Y-99885500D01*
X124356834Y-99848896D01*
X124530178Y-99777095D01*
X124686184Y-99672855D01*
X124818855Y-99540184D01*
X124923095Y-99384178D01*
X124994896Y-99210834D01*
X125031500Y-99026813D01*
X125031500Y-98839187D01*
X124994896Y-98655166D01*
X124923095Y-98481822D01*
X124818855Y-98325816D01*
X124686184Y-98193145D01*
X124530178Y-98088905D01*
X124356834Y-98017104D01*
X124253459Y-97996541D01*
X124232896Y-97893166D01*
X124161095Y-97719822D01*
X124056855Y-97563816D01*
X123924184Y-97431145D01*
X123768178Y-97326905D01*
X123594834Y-97255104D01*
X123491459Y-97234541D01*
X123470896Y-97131166D01*
X123399095Y-96957822D01*
X123294855Y-96801816D01*
X123162184Y-96669145D01*
X123006178Y-96564905D01*
X122832834Y-96493104D01*
X122729459Y-96472541D01*
X122708896Y-96369166D01*
X122637095Y-96195822D01*
X122532855Y-96039816D01*
X122441539Y-95948500D01*
X129187993Y-95948500D01*
X129215822Y-95967095D01*
X129389166Y-96038896D01*
X129573187Y-96075500D01*
X129760813Y-96075500D01*
X129944834Y-96038896D01*
X130118178Y-95967095D01*
X130274184Y-95862855D01*
X130406855Y-95730184D01*
X130511095Y-95574178D01*
X130582896Y-95400834D01*
X130603459Y-95297459D01*
X130706834Y-95276896D01*
X130880178Y-95205095D01*
X131036184Y-95100855D01*
X131168855Y-94968184D01*
X131273095Y-94812178D01*
X131344896Y-94638834D01*
X131365459Y-94535459D01*
X131468834Y-94514896D01*
X131642178Y-94443095D01*
X131798184Y-94338855D01*
X131930855Y-94206184D01*
X132035095Y-94050178D01*
X132106896Y-93876834D01*
X132143500Y-93692813D01*
X132143500Y-93505187D01*
X132106896Y-93321166D01*
X132035095Y-93147822D01*
X131930855Y-92991816D01*
X131798184Y-92859145D01*
X131642178Y-92754905D01*
X131468834Y-92683104D01*
X131284813Y-92646500D01*
X131097187Y-92646500D01*
X130913166Y-92683104D01*
X130739822Y-92754905D01*
X130711993Y-92773500D01*
X130008932Y-92773500D01*
X131817008Y-90965425D01*
X131849834Y-90958896D01*
X132023178Y-90887095D01*
X132179184Y-90782855D01*
X132311855Y-90650184D01*
X132416095Y-90494178D01*
X132487896Y-90320834D01*
X132524500Y-90136813D01*
X132524500Y-89949187D01*
X132487896Y-89765166D01*
X132416095Y-89591822D01*
X132311855Y-89435816D01*
X132179184Y-89303145D01*
X132023178Y-89198905D01*
X131959078Y-89172354D01*
X134540041Y-86591392D01*
X134571541Y-86565541D01*
X134624177Y-86501404D01*
X134674699Y-86439843D01*
X134751353Y-86296434D01*
X134788646Y-86173494D01*
X134798556Y-86140826D01*
X134810500Y-86019553D01*
X134810500Y-86019551D01*
X134814494Y-85979001D01*
X134810500Y-85938450D01*
X134810500Y-70525550D01*
X134814494Y-70485000D01*
X134810500Y-70444447D01*
X134798556Y-70323174D01*
X134751353Y-70167566D01*
X134674699Y-70024157D01*
X134597392Y-69929958D01*
X134597389Y-69929955D01*
X134571541Y-69898459D01*
X134540045Y-69872611D01*
X128975991Y-64308559D01*
X129052953Y-64122756D01*
X129135000Y-63710279D01*
X129135000Y-63289721D01*
X129133041Y-63279872D01*
X137465000Y-63279872D01*
X137465000Y-63720128D01*
X137550890Y-64151925D01*
X137719369Y-64558669D01*
X137963962Y-64924729D01*
X138275271Y-65236038D01*
X138641331Y-65480631D01*
X139048075Y-65649110D01*
X139479872Y-65735000D01*
X139920128Y-65735000D01*
X140351925Y-65649110D01*
X140758669Y-65480631D01*
X141124729Y-65236038D01*
X141436038Y-64924729D01*
X141680631Y-64558669D01*
X141849110Y-64151925D01*
X141935000Y-63720128D01*
X141935000Y-63279872D01*
X141849110Y-62848075D01*
X141680631Y-62441331D01*
X141436038Y-62075271D01*
X141124729Y-61763962D01*
X140758669Y-61519369D01*
X140351925Y-61350890D01*
X139920128Y-61265000D01*
X139479872Y-61265000D01*
X139048075Y-61350890D01*
X138641331Y-61519369D01*
X138275271Y-61763962D01*
X137963962Y-62075271D01*
X137719369Y-62441331D01*
X137550890Y-62848075D01*
X137465000Y-63279872D01*
X129133041Y-63279872D01*
X129052953Y-62877244D01*
X128892012Y-62488698D01*
X128658363Y-62139017D01*
X128360983Y-61841637D01*
X128011302Y-61607988D01*
X127622756Y-61447047D01*
X127210279Y-61365000D01*
X126789721Y-61365000D01*
X126377244Y-61447047D01*
X125988698Y-61607988D01*
X125639017Y-61841637D01*
X125341637Y-62139017D01*
X125107988Y-62488698D01*
X124947047Y-62877244D01*
X124865000Y-63289721D01*
X124865000Y-63710279D01*
X124947047Y-64122756D01*
X125107988Y-64511302D01*
X125341637Y-64860983D01*
X125639017Y-65158363D01*
X125988698Y-65392012D01*
X126377244Y-65552953D01*
X126789721Y-65635000D01*
X127210279Y-65635000D01*
X127622756Y-65552953D01*
X127808559Y-65475991D01*
X133159501Y-70826935D01*
X133159501Y-76112068D01*
X121355991Y-64308559D01*
X121432953Y-64122756D01*
X121515000Y-63710279D01*
X121515000Y-63289721D01*
X121432953Y-62877244D01*
X121272012Y-62488698D01*
X121038363Y-62139017D01*
X120740983Y-61841637D01*
X120391302Y-61607988D01*
X120002756Y-61447047D01*
X119590279Y-61365000D01*
X119169721Y-61365000D01*
X118757244Y-61447047D01*
X118368698Y-61607988D01*
X118019017Y-61841637D01*
X117721637Y-62139017D01*
X117487988Y-62488698D01*
X117327047Y-62877244D01*
X117245000Y-63289721D01*
X117245000Y-63710279D01*
X117327047Y-64122756D01*
X117487988Y-64511302D01*
X117721637Y-64860983D01*
X118019017Y-65158363D01*
X118368698Y-65392012D01*
X118757244Y-65552953D01*
X119169721Y-65635000D01*
X119590279Y-65635000D01*
X120002756Y-65552953D01*
X120188559Y-65475991D01*
X132397500Y-77684933D01*
X132397501Y-83552462D01*
X132306184Y-83461145D01*
X132150178Y-83356905D01*
X131976834Y-83285104D01*
X131873459Y-83264541D01*
X131852896Y-83161166D01*
X131781095Y-82987822D01*
X131676855Y-82831816D01*
X131544184Y-82699145D01*
X131388178Y-82594905D01*
X131258878Y-82541347D01*
X131230596Y-82399166D01*
X131158795Y-82225822D01*
X131054555Y-82069816D01*
X130921884Y-81937145D01*
X130765878Y-81832905D01*
X130608897Y-81767882D01*
X130582896Y-81637166D01*
X130511095Y-81463822D01*
X130406855Y-81307816D01*
X130274184Y-81175145D01*
X130118178Y-81070905D01*
X129944834Y-80999104D01*
X129760813Y-80962500D01*
X129573187Y-80962500D01*
X129389166Y-80999104D01*
X129215822Y-81070905D01*
X129187993Y-81089500D01*
X126082007Y-81089500D01*
X126210184Y-81003855D01*
X126342855Y-80871184D01*
X126447095Y-80715178D01*
X126518896Y-80541834D01*
X126555500Y-80357813D01*
X126555500Y-80170187D01*
X126518896Y-79986166D01*
X126447095Y-79812822D01*
X126342855Y-79656816D01*
X126210184Y-79524145D01*
X126054178Y-79419905D01*
X125880834Y-79348104D01*
X125848007Y-79341574D01*
X123167398Y-76660966D01*
X123141541Y-76629459D01*
X123015842Y-76526301D01*
X122872434Y-76449647D01*
X122716826Y-76402444D01*
X122595553Y-76390500D01*
X122595550Y-76390500D01*
X122555000Y-76386506D01*
X122514450Y-76390500D01*
X97877933Y-76390500D01*
X85795991Y-64308559D01*
X85872953Y-64122756D01*
X85955000Y-63710279D01*
X85955000Y-63289721D01*
X109625000Y-63289721D01*
X109625000Y-63710279D01*
X109707047Y-64122756D01*
X109867988Y-64511302D01*
X110101637Y-64860983D01*
X110399017Y-65158363D01*
X110748698Y-65392012D01*
X111137244Y-65552953D01*
X111549721Y-65635000D01*
X111970279Y-65635000D01*
X112382756Y-65552953D01*
X112771302Y-65392012D01*
X113120983Y-65158363D01*
X113418363Y-64860983D01*
X113652012Y-64511302D01*
X113812953Y-64122756D01*
X113895000Y-63710279D01*
X113895000Y-63289721D01*
X113812953Y-62877244D01*
X113652012Y-62488698D01*
X113418363Y-62139017D01*
X113120983Y-61841637D01*
X112771302Y-61607988D01*
X112382756Y-61447047D01*
X111970279Y-61365000D01*
X111549721Y-61365000D01*
X111137244Y-61447047D01*
X110748698Y-61607988D01*
X110399017Y-61841637D01*
X110101637Y-62139017D01*
X109867988Y-62488698D01*
X109707047Y-62877244D01*
X109625000Y-63289721D01*
X85955000Y-63289721D01*
X85872953Y-62877244D01*
X85712012Y-62488698D01*
X85478363Y-62139017D01*
X85180983Y-61841637D01*
X84831302Y-61607988D01*
X84442756Y-61447047D01*
X84030279Y-61365000D01*
X83609721Y-61365000D01*
X83197244Y-61447047D01*
X82808698Y-61607988D01*
X82459017Y-61841637D01*
X82161637Y-62139017D01*
X81927988Y-62488698D01*
X81767047Y-62877244D01*
X81685000Y-63289721D01*
X78325027Y-63289721D01*
X78295334Y-63039549D01*
X78165243Y-62639617D01*
X78007214Y-62343962D01*
X77691653Y-62187952D01*
X76379605Y-63500000D01*
X76020395Y-63500000D01*
X74708347Y-62187952D01*
X74392786Y-62343962D01*
X74201980Y-62718745D01*
X74087956Y-63123551D01*
X74055098Y-63542824D01*
X65735000Y-63542824D01*
X65735000Y-63279872D01*
X65649110Y-62848075D01*
X65480631Y-62441331D01*
X65236038Y-62075271D01*
X65169114Y-62008347D01*
X74887952Y-62008347D01*
X76200000Y-63320395D01*
X77512048Y-62008347D01*
X77356038Y-61692786D01*
X76981255Y-61501980D01*
X76576449Y-61387956D01*
X76157176Y-61355098D01*
X75739549Y-61404666D01*
X75339617Y-61534757D01*
X75043962Y-61692786D01*
X74887952Y-62008347D01*
X65169114Y-62008347D01*
X64924729Y-61763962D01*
X64558669Y-61519369D01*
X64151925Y-61350890D01*
X63720128Y-61265000D01*
X63279872Y-61265000D01*
X62848075Y-61350890D01*
X62441331Y-61519369D01*
X62075271Y-61763962D01*
X61763962Y-62075271D01*
X61519369Y-62441331D01*
X61350890Y-62848075D01*
X61265000Y-63279872D01*
X56557707Y-63279872D01*
X56614617Y-62495530D01*
X56831739Y-61512102D01*
X57188546Y-60570325D01*
X57677575Y-59689905D01*
X58288569Y-58889313D01*
X59008732Y-58185306D01*
X59822987Y-57592630D01*
X60714269Y-57123704D01*
X61663900Y-56788353D01*
X62655692Y-56592873D01*
X63520164Y-56540000D01*
X139676080Y-56540000D01*
X140704470Y-56614617D01*
G37*
%TD.AperFunction*%
%TD*%
M02*
